0,0, Header,0,1,480,,
1,0, Start_track,,,,,
1,0, Title_t," ""Piano""",,,,
1,0, Instrument_name_t," ""Steinway Grand Piano""",,,,
1,0, Time_signature,4,2,24,8,
1,0, Key_signature,0," ""major""",,,
1,0, SMPTE_offset,1,0,0,0,0
1,0, Tempo,705882,,,,
1,0, Note_on_c,0,35,61,,
1,480, Note_on_c,0,35,61,,
1,480, Note_off_c,0,35,64,,
1,960, Note_on_c,0,35,61,,
1,960, Note_off_c,0,35,64,,
1,1440, Note_on_c,0,35,61,,
1,1440, Note_off_c,0,35,64,,
1,1920, Control_c,0,0,121,,
1,1920, Control_c,0,32,0,,
1,1920, Program_c,0,0,,,
1,1920, Control_c,0,7,101,,
1,1920, Control_c,0,7,102,,
1,1920, Control_c,0,7,110,,
1,1920, Control_c,0,10,64,,
1,1920, Note_on_c,0,48,61,,
1,1920, Note_on_c,0,51,61,,
1,1920, Note_on_c,0,55,75,,
1,1920, Note_on_c,0,60,69,,
1,1920, Note_off_c,0,35,64,,
1,1921, Control_c,0,101,0,,
1,1921, Control_c,0,101,0,,
1,1921, Control_c,0,100,0,,
1,1921, Control_c,0,100,0,,
1,1921, Control_c,0,6,12,,
1,1921, Control_c,0,6,12,,
1,1921, Control_c,0,38,0,,
1,1921, Control_c,0,38,0,,
1,1925, Control_c,0,7,102,,
1,1925, Control_c,0,7,110,,
1,2400, Note_on_c,0,63,65,,
1,2409, Note_off_c,0,60,0,,
1,2875, Note_off_c,0,63,0,,
1,2880, Note_on_c,0,53,59,,
1,2880, Note_on_c,0,56,59,,
1,2880, Note_on_c,0,60,73,,
1,2880, Note_on_c,0,65,67,,
1,2885, Note_off_c,0,48,0,,
1,2885, Note_off_c,0,51,0,,
1,2885, Note_off_c,0,55,0,,
1,3235, Note_off_c,0,65,0,,
1,3240, Note_on_c,0,63,64,,
1,3583, Note_off_c,0,63,0,,
1,3600, Note_on_c,0,65,64,,
1,3830, Note_off_c,0,53,0,,
1,3830, Note_off_c,0,56,0,,
1,3830, Note_off_c,0,60,0,,
1,3838, Note_off_c,0,65,0,,
1,3840, Note_on_c,0,46,61,,
1,3840, Note_on_c,0,50,61,,
1,3840, Note_on_c,0,53,75,,
1,3840, Note_on_c,0,65,69,,
1,4080, Note_on_c,0,65,64,,
1,4094, Note_off_c,0,65,0,,
1,4304, Note_off_c,0,65,0,,
1,4320, Note_on_c,0,70,65,,
1,4542, Note_off_c,0,70,0,,
1,4560, Note_on_c,0,68,64,,
1,4785, Note_off_c,0,68,0,,
1,4800, Note_on_c,0,51,59,,
1,4800, Note_on_c,0,55,59,,
1,4800, Note_on_c,0,58,73,,
1,4800, Note_on_c,0,67,67,,
1,4808, Note_off_c,0,46,0,,
1,4808, Note_off_c,0,50,0,,
1,4808, Note_off_c,0,53,0,,
1,4916, Note_off_c,0,67,0,,
1,4920, Note_on_c,0,65,64,,
1,5138, Note_off_c,0,65,0,,
1,5160, Note_on_c,0,67,64,,
1,5750, Note_off_c,0,51,0,,
1,5750, Note_off_c,0,55,0,,
1,5750, Note_off_c,0,58,0,,
1,5755, Note_off_c,0,67,0,,
1,5760, Note_on_c,0,48,61,,
1,5760, Note_on_c,0,51,61,,
1,5760, Note_on_c,0,55,75,,
1,5760, Note_on_c,0,67,69,,
1,6240, Note_on_c,0,70,65,,
1,6252, Note_off_c,0,67,0,,
1,6715, Note_off_c,0,70,0,,
1,6720, Note_on_c,0,53,59,,
1,6720, Note_on_c,0,56,59,,
1,6720, Note_on_c,0,60,73,,
1,6720, Note_on_c,0,72,67,,
1,6728, Note_off_c,0,48,0,,
1,6728, Note_off_c,0,51,0,,
1,6728, Note_off_c,0,55,0,,
1,7075, Note_off_c,0,72,0,,
1,7080, Note_on_c,0,65,64,,
1,7423, Note_off_c,0,65,0,,
1,7440, Note_on_c,0,63,64,,
1,7663, Note_off_c,0,63,0,,
1,7670, Note_off_c,0,53,0,,
1,7670, Note_off_c,0,56,0,,
1,7670, Note_off_c,0,60,0,,
1,7680, Note_on_c,0,55,61,,
1,7680, Note_on_c,0,58,61,,
1,7680, Note_on_c,0,62,75,,
1,7680, Note_on_c,0,70,69,,
1,7920, Note_on_c,0,70,64,,
1,7934, Note_off_c,0,70,0,,
1,8144, Note_off_c,0,70,0,,
1,8160, Note_on_c,0,67,65,,
1,8382, Note_off_c,0,67,0,,
1,8400, Note_on_c,0,70,64,,
1,8639, Note_off_c,0,70,0,,
1,8640, Note_on_c,0,56,59,,
1,8640, Note_on_c,0,60,59,,
1,8640, Note_on_c,0,63,73,,
1,8640, Note_on_c,0,67,59,,
1,8640, Note_on_c,0,70,73,,
1,8648, Note_off_c,0,55,0,,
1,8648, Note_off_c,0,58,0,,
1,8648, Note_off_c,0,62,0,,
1,8995, Note_off_c,0,67,0,,
1,8995, Note_off_c,0,70,0,,
1,9000, Note_on_c,0,68,56,,
1,9000, Note_on_c,0,72,70,,
1,9590, Note_off_c,0,56,0,,
1,9590, Note_off_c,0,60,0,,
1,9590, Note_off_c,0,63,0,,
1,9595, Note_off_c,0,68,0,,
1,9595, Note_off_c,0,72,0,,
1,9600, Note_on_c,0,80,69,,
1,9710, Control_c,0,7,102,,
1,9720, Note_on_c,0,79,64,,
1,9730, Note_off_c,0,80,0,,
1,9829, Note_off_c,0,79,0,,
1,9840, Note_on_c,0,75,64,,
1,9950, Note_off_c,0,75,0,,
1,9960, Note_on_c,0,72,64,,
1,10074, Note_off_c,0,72,0,,
1,10080, Note_on_c,0,68,65,,
1,10194, Note_off_c,0,68,0,,
1,10200, Note_on_c,0,67,64,,
1,10308, Note_off_c,0,67,0,,
1,10320, Note_on_c,0,63,64,,
1,10429, Note_off_c,0,63,0,,
1,10440, Note_on_c,0,58,64,,
1,10555, Note_off_c,0,58,0,,
1,10560, Note_on_c,0,56,67,,
1,10676, Note_off_c,0,56,0,,
1,10680, Note_on_c,0,55,64,,
1,10788, Note_off_c,0,55,0,,
1,10800, Note_on_c,0,39,63,,
1,11511, Note_off_c,0,39,0,,
1,11520, Tempo,483871,,,,
1,11520, Note_on_c,0,36,59,,
1,11520, Note_on_c,0,48,71,,
1,11520, Note_on_c,0,55,61,,
1,11520, Note_on_c,0,60,75,,
1,11760, Note_on_c,0,36,54,,
1,11760, Note_on_c,0,48,66,,
1,11774, Note_off_c,0,36,0,,
1,11774, Note_off_c,0,48,0,,
1,11984, Note_off_c,0,36,0,,
1,11998, Note_off_c,0,48,0,,
1,12000, Note_on_c,0,48,65,,
1,12000, Note_on_c,0,55,57,,
1,12000, Note_on_c,0,63,71,,
1,12012, Note_off_c,0,55,0,,
1,12012, Note_off_c,0,60,0,,
1,12222, Note_off_c,0,48,0,,
1,12240, Note_on_c,0,51,64,,
1,12465, Note_off_c,0,51,0,,
1,12475, Note_off_c,0,55,0,,
1,12475, Note_off_c,0,63,0,,
1,12480, Note_on_c,0,41,59,,
1,12480, Note_on_c,0,53,73,,
1,12480, Note_on_c,0,60,59,,
1,12480, Note_on_c,0,65,73,,
1,12705, Note_off_c,0,41,0,,
1,12719, Note_off_c,0,53,0,,
1,12720, Note_on_c,0,53,64,,
1,12835, Note_off_c,0,60,0,,
1,12835, Note_off_c,0,65,0,,
1,12840, Note_on_c,0,63,64,,
1,12957, Note_off_c,0,53,0,,
1,12960, Note_on_c,0,53,65,,
1,13182, Note_off_c,0,53,0,,
1,13182, Note_off_c,0,63,0,,
1,13200, Note_on_c,0,48,64,,
1,13200, Note_on_c,0,60,67,,
1,13200, Note_on_c,0,65,62,,
1,13423, Note_off_c,0,48,0,,
1,13423, Note_off_c,0,60,0,,
1,13438, Note_off_c,0,65,0,,
1,13440, Note_on_c,0,46,69,,
1,13440, Note_on_c,0,58,72,,
1,13440, Note_on_c,0,65,67,,
1,13680, Note_off_c,0,58,0,,
1,13680, Note_on_c,0,46,64,,
1,13680, Note_on_c,0,62,56,,
1,13680, Note_on_c,0,65,70,,
1,13694, Note_off_c,0,46,0,,
1,13694, Note_off_c,0,65,0,,
1,13904, Note_off_c,0,46,0,,
1,13918, Note_off_c,0,62,0,,
1,13918, Note_off_c,0,65,0,,
1,13920, Note_on_c,0,50,65,,
1,13920, Note_on_c,0,62,57,,
1,13920, Note_on_c,0,65,57,,
1,13920, Note_on_c,0,70,71,,
1,14142, Note_off_c,0,50,0,,
1,14142, Note_off_c,0,62,0,,
1,14142, Note_off_c,0,65,0,,
1,14156, Note_off_c,0,70,0,,
1,14160, Note_on_c,0,53,64,,
1,14160, Note_on_c,0,68,64,,
1,14385, Note_off_c,0,53,0,,
1,14385, Note_off_c,0,68,0,,
1,14400, Note_on_c,0,39,58,,
1,14400, Note_on_c,0,51,73,,
1,14400, Note_on_c,0,67,67,,
1,14516, Note_off_c,0,67,0,,
1,14520, Note_on_c,0,65,64,,
1,14625, Note_off_c,0,39,0,,
1,14639, Note_off_c,0,51,0,,
1,14640, Note_on_c,0,51,64,,
1,14738, Note_off_c,0,65,0,,
1,14760, Note_on_c,0,67,64,,
1,14877, Note_off_c,0,51,0,,
1,14880, Note_on_c,0,51,65,,
1,15102, Note_off_c,0,51,0,,
1,15120, Note_on_c,0,38,55,,
1,15120, Note_on_c,0,50,70,,
1,15343, Note_off_c,0,38,0,,
1,15355, Note_off_c,0,67,0,,
1,15358, Note_off_c,0,50,0,,
1,15360, Note_on_c,0,36,59,,
1,15360, Note_on_c,0,48,75,,
1,15360, Note_on_c,0,60,61,,
1,15360, Note_on_c,0,63,61,,
1,15360, Note_on_c,0,67,75,,
1,15600, Note_on_c,0,36,54,,
1,15600, Note_on_c,0,48,66,,
1,15614, Note_off_c,0,36,0,,
1,15614, Note_off_c,0,48,0,,
1,15824, Note_off_c,0,36,0,,
1,15838, Note_off_c,0,48,0,,
1,15840, Note_on_c,0,48,65,,
1,15840, Note_on_c,0,63,57,,
1,15840, Note_on_c,0,67,57,,
1,15840, Note_on_c,0,70,71,,
1,15852, Note_off_c,0,60,0,,
1,15852, Note_off_c,0,63,0,,
1,15852, Note_off_c,0,67,0,,
1,16062, Note_off_c,0,48,0,,
1,16080, Note_on_c,0,51,64,,
1,16305, Note_off_c,0,51,0,,
1,16315, Note_off_c,0,63,0,,
1,16315, Note_off_c,0,67,0,,
1,16315, Note_off_c,0,70,0,,
1,16320, Note_on_c,0,41,59,,
1,16320, Note_on_c,0,53,73,,
1,16320, Note_on_c,0,65,59,,
1,16320, Note_on_c,0,68,59,,
1,16320, Note_on_c,0,72,73,,
1,16545, Note_off_c,0,41,0,,
1,16559, Note_off_c,0,53,0,,
1,16560, Note_on_c,0,53,64,,
1,16675, Note_off_c,0,65,0,,
1,16675, Note_off_c,0,68,0,,
1,16675, Note_off_c,0,72,0,,
1,16680, Note_on_c,0,65,64,,
1,16797, Note_off_c,0,53,0,,
1,16800, Note_on_c,0,41,57,,
1,16800, Note_on_c,0,53,71,,
1,17022, Note_off_c,0,41,0,,
1,17022, Note_off_c,0,65,0,,
1,17036, Note_off_c,0,53,0,,
1,17040, Note_on_c,0,36,54,,
1,17040, Note_on_c,0,48,70,,
1,17040, Note_on_c,0,63,64,,
1,17263, Note_off_c,0,36,0,,
1,17263, Note_off_c,0,63,0,,
1,17278, Note_off_c,0,48,0,,
1,17280, Note_on_c,0,46,61,,
1,17280, Note_on_c,0,50,75,,
1,17280, Note_on_c,0,62,61,,
1,17280, Note_on_c,0,70,71,,
1,17520, Note_on_c,0,62,56,,
1,17520, Note_on_c,0,70,70,,
1,17534, Note_off_c,0,62,0,,
1,17534, Note_off_c,0,70,0,,
1,17744, Note_off_c,0,62,0,,
1,17758, Note_off_c,0,70,0,,
1,17760, Note_on_c,0,43,65,,
1,17760, Note_on_c,0,58,57,,
1,17760, Note_on_c,0,67,71,,
1,17772, Note_off_c,0,46,0,,
1,17772, Note_off_c,0,50,0,,
1,17982, Note_off_c,0,43,0,,
1,17982, Note_off_c,0,58,0,,
1,17996, Note_off_c,0,67,0,,
1,18000, Note_on_c,0,46,64,,
1,18000, Note_on_c,0,63,56,,
1,18000, Note_on_c,0,70,70,,
1,18225, Note_off_c,0,46,0,,
1,18239, Note_off_c,0,63,0,,
1,18239, Note_off_c,0,70,0,,
1,18240, Note_on_c,0,36,57,,
1,18240, Note_on_c,0,48,69,,
1,18240, Note_on_c,0,63,59,,
1,18240, Note_on_c,0,70,73,,
1,18595, Note_off_c,0,36,0,,
1,18595, Note_off_c,0,48,0,,
1,18595, Note_off_c,0,63,0,,
1,18595, Note_off_c,0,70,0,,
1,18600, Note_on_c,0,36,54,,
1,18600, Note_on_c,0,48,66,,
1,18600, Note_on_c,0,63,56,,
1,18600, Note_on_c,0,72,70,,
1,19195, Note_off_c,0,36,0,,
1,19195, Note_off_c,0,48,0,,
1,19195, Note_off_c,0,63,0,,
1,19195, Note_off_c,0,72,0,,
1,19200, Note_on_c,0,39,68,,
1,19200, Note_on_c,0,55,61,,
1,19200, Note_on_c,0,58,61,,
1,19200, Note_on_c,0,63,75,,
1,19440, Note_off_c,0,39,0,,
1,19440, Note_on_c,0,46,64,,
1,19664, Note_off_c,0,46,0,,
1,19680, Note_on_c,0,51,57,,
1,19680, Note_on_c,0,55,71,,
1,19680, Note_on_c,0,63,65,,
1,19692, Note_off_c,0,55,0,,
1,19692, Note_off_c,0,58,0,,
1,19692, Note_off_c,0,63,0,,
1,19902, Note_off_c,0,51,0,,
1,19902, Note_off_c,0,63,0,,
1,19916, Note_off_c,0,55,0,,
1,19920, Note_on_c,0,46,64,,
1,19920, Note_on_c,0,58,64,,
1,20036, Note_off_c,0,58,0,,
1,20040, Note_on_c,0,58,64,,
1,20145, Note_off_c,0,46,0,,
1,20160, Note_on_c,0,39,66,,
1,20385, Note_off_c,0,39,0,,
1,20400, Note_on_c,0,46,64,,
1,20623, Note_off_c,0,46,0,,
1,20640, Note_on_c,0,51,57,,
1,20640, Note_on_c,0,55,71,,
1,20875, Note_off_c,0,58,0,,
1,20880, Note_on_c,0,63,64,,
1,21114, Note_off_c,0,51,0,,
1,21114, Note_off_c,0,55,0,,
1,21118, Note_off_c,0,63,0,,
1,21120, Note_on_c,0,46,69,,
1,21120, Note_on_c,0,63,69,,
1,21360, Note_off_c,0,46,0,,
1,21360, Note_on_c,0,53,64,,
1,21480, Note_on_c,0,65,64,,
1,21491, Note_off_c,0,63,0,,
1,21584, Note_off_c,0,53,0,,
1,21600, Note_on_c,0,58,65,,
1,21822, Note_off_c,0,58,0,,
1,21824, Note_off_c,0,65,0,,
1,21840, Note_on_c,0,53,64,,
1,21840, Note_on_c,0,58,64,,
1,22065, Note_off_c,0,53,0,,
1,22079, Note_off_c,0,58,0,,
1,22080, Note_on_c,0,46,67,,
1,22080, Note_on_c,0,58,67,,
1,22305, Note_off_c,0,46,0,,
1,22320, Note_on_c,0,53,64,,
1,22543, Note_off_c,0,53,0,,
1,22560, Note_on_c,0,58,65,,
1,22792, Note_off_c,0,58,0,,
1,22800, Note_on_c,0,58,64,,
1,23020, Note_off_c,0,58,0,,
1,23038, Note_off_c,0,58,0,,
1,23040, Note_on_c,0,48,69,,
1,23040, Note_on_c,0,67,69,,
1,23280, Note_off_c,0,48,0,,
1,23280, Note_on_c,0,55,64,,
1,23400, Note_on_c,0,68,64,,
1,23411, Note_off_c,0,67,0,,
1,23504, Note_off_c,0,55,0,,
1,23520, Note_on_c,0,60,57,,
1,23520, Note_on_c,0,63,71,,
1,23744, Note_off_c,0,68,0,,
1,23760, Note_on_c,0,67,64,,
1,23985, Note_off_c,0,67,0,,
1,23995, Note_off_c,0,60,0,,
1,23995, Note_off_c,0,63,0,,
1,24000, Note_on_c,0,46,67,,
1,24000, Note_on_c,0,65,67,,
1,24225, Note_off_c,0,46,0,,
1,24240, Note_on_c,0,53,64,,
1,24355, Note_off_c,0,65,0,,
1,24360, Note_on_c,0,63,64,,
1,24463, Note_off_c,0,53,0,,
1,24480, Note_on_c,0,58,57,,
1,24480, Note_on_c,0,62,71,,
1,24703, Note_off_c,0,63,0,,
1,24720, Note_on_c,0,65,64,,
1,24943, Note_off_c,0,65,0,,
1,24954, Note_off_c,0,58,0,,
1,24954, Note_off_c,0,62,0,,
1,24960, Note_on_c,0,44,69,,
1,24960, Note_on_c,0,67,69,,
1,25200, Note_off_c,0,44,0,,
1,25200, Note_on_c,0,51,64,,
1,25320, Note_on_c,0,68,64,,
1,25331, Note_off_c,0,67,0,,
1,25424, Note_off_c,0,51,0,,
1,25440, Note_on_c,0,56,57,,
1,25440, Note_on_c,0,60,71,,
1,25664, Note_off_c,0,68,0,,
1,25680, Note_on_c,0,67,64,,
1,25905, Note_off_c,0,67,0,,
1,25915, Note_off_c,0,56,0,,
1,25915, Note_off_c,0,60,0,,
1,25920, Note_on_c,0,44,67,,
1,25920, Note_on_c,0,60,67,,
1,26145, Note_off_c,0,44,0,,
1,26160, Note_on_c,0,51,64,,
1,26383, Note_off_c,0,51,0,,
1,26400, Note_on_c,0,56,57,,
1,26400, Note_on_c,0,60,71,,
1,26622, Note_off_c,0,56,0,,
1,26632, Note_off_c,0,60,0,,
1,26636, Note_off_c,0,60,0,,
1,26640, Note_on_c,0,51,64,,
1,26640, Note_on_c,0,60,64,,
1,26749, Note_off_c,0,60,0,,
1,26760, Note_on_c,0,62,64,,
1,26863, Note_off_c,0,51,0,,
1,26874, Note_off_c,0,62,0,,
1,26880, Note_on_c,0,46,69,,
1,26880, Note_on_c,0,63,69,,
1,27120, Note_off_c,0,46,0,,
1,27120, Note_on_c,0,53,64,,
1,27240, Note_on_c,0,63,64,,
1,27251, Note_off_c,0,63,0,,
1,27344, Note_off_c,0,53,0,,
1,27360, Note_on_c,0,58,57,,
1,27360, Note_on_c,0,62,71,,
1,27584, Note_off_c,0,63,0,,
1,27600, Note_on_c,0,62,64,,
1,27835, Note_off_c,0,58,0,,
1,27835, Note_off_c,0,62,0,,
1,27839, Note_off_c,0,62,0,,
1,27840, Note_on_c,0,46,67,,
1,27840, Note_on_c,0,62,67,,
1,28065, Note_off_c,0,46,0,,
1,28080, Note_on_c,0,53,64,,
1,28303, Note_off_c,0,53,0,,
1,28320, Note_on_c,0,58,57,,
1,28320, Note_on_c,0,62,71,,
1,28542, Note_off_c,0,58,0,,
1,28552, Note_off_c,0,62,0,,
1,28556, Note_off_c,0,62,0,,
1,28560, Note_on_c,0,53,64,,
1,28560, Note_on_c,0,63,64,,
1,28669, Note_off_c,0,63,0,,
1,28680, Note_on_c,0,65,64,,
1,28783, Note_off_c,0,53,0,,
1,28794, Note_off_c,0,65,0,,
1,28800, Note_on_c,0,51,69,,
1,28800, Note_on_c,0,68,69,,
1,29040, Note_off_c,0,51,0,,
1,29040, Note_on_c,0,58,64,,
1,29160, Note_on_c,0,67,64,,
1,29171, Note_off_c,0,68,0,,
1,29264, Note_off_c,0,58,0,,
1,29280, Note_on_c,0,63,65,,
1,29502, Note_off_c,0,63,0,,
1,29504, Note_off_c,0,67,0,,
1,29520, Note_on_c,0,58,64,,
1,29520, Note_on_c,0,65,64,,
1,29745, Note_off_c,0,58,0,,
1,29745, Note_off_c,0,65,0,,
1,29760, Note_on_c,0,48,67,,
1,29760, Note_on_c,0,63,67,,
1,29985, Note_off_c,0,48,0,,
1,30000, Note_on_c,0,55,64,,
1,30223, Note_off_c,0,55,0,,
1,30240, Note_on_c,0,60,57,,
1,30240, Note_on_c,0,63,71,,
1,30472, Note_off_c,0,63,0,,
1,30480, Note_on_c,0,67,64,,
1,30714, Note_off_c,0,60,0,,
1,30714, Note_off_c,0,63,0,,
1,30718, Note_off_c,0,67,0,,
1,30720, Note_on_c,0,45,69,,
1,30720, Note_on_c,0,67,69,,
1,30960, Note_off_c,0,45,0,,
1,30960, Note_on_c,0,53,64,,
1,31080, Note_on_c,0,65,64,,
1,31091, Note_off_c,0,67,0,,
1,31184, Note_off_c,0,53,0,,
1,31200, Note_on_c,0,57,57,,
1,31200, Note_on_c,0,60,71,,
1,31422, Note_off_c,0,57,0,,
1,31424, Note_off_c,0,65,0,,
1,31436, Note_off_c,0,60,0,,
1,31440, Note_on_c,0,53,64,,
1,31440, Note_on_c,0,64,64,,
1,31665, Note_off_c,0,53,0,,
1,31665, Note_off_c,0,64,0,,
1,31680, Note_on_c,0,45,67,,
1,31680, Note_on_c,0,65,67,,
1,31905, Note_off_c,0,45,0,,
1,31920, Note_on_c,0,48,64,,
1,32143, Note_off_c,0,48,0,,
1,32156, Note_off_c,0,65,0,,
1,32160, Note_on_c,0,53,57,,
1,32160, Note_on_c,0,57,71,,
1,32160, Note_on_c,0,60,65,,
1,32382, Note_off_c,0,53,0,,
1,32396, Note_off_c,0,57,0,,
1,32400, Note_on_c,0,48,64,,
1,32623, Note_off_c,0,48,0,,
1,32634, Note_off_c,0,60,0,,
1,32640, Note_on_c,0,43,69,,
1,32640, Note_on_c,0,60,69,,
1,32760, Note_on_c,0,47,64,,
1,32770, Note_off_c,0,43,0,,
1,32869, Note_off_c,0,47,0,,
1,32880, Note_on_c,0,50,64,,
1,32990, Note_off_c,0,50,0,,
1,33000, Note_on_c,0,55,64,,
1,33114, Note_off_c,0,55,0,,
1,33120, Note_on_c,0,59,65,,
1,33234, Note_off_c,0,59,0,,
1,33240, Note_on_c,0,55,64,,
1,33348, Note_off_c,0,55,0,,
1,33360, Note_on_c,0,50,64,,
1,33360, Note_on_c,0,62,64,,
1,33369, Note_off_c,0,60,0,,
1,33469, Note_off_c,0,50,0,,
1,33480, Note_on_c,0,47,64,,
1,33595, Note_off_c,0,47,0,,
1,33599, Note_off_c,0,62,0,,
1,33600, Note_on_c,0,43,67,,
1,33600, Note_on_c,0,62,67,,
1,33825, Note_off_c,0,43,0,,
1,33840, Note_on_c,0,50,64,,
1,34063, Note_off_c,0,50,0,,
1,34080, Note_on_c,0,55,57,,
1,34080, Note_on_c,0,59,71,,
1,34550, Note_off_c,0,62,0,,
1,34554, Note_off_c,0,55,0,,
1,34554, Note_off_c,0,59,0,,
1,34560, Note_on_c,0,39,68,,
1,34560, Note_on_c,0,55,61,,
1,34560, Note_on_c,0,58,61,,
1,34560, Note_on_c,0,63,75,,
1,34800, Note_off_c,0,39,0,,
1,34800, Note_on_c,0,46,64,,
1,35024, Note_off_c,0,46,0,,
1,35040, Note_on_c,0,51,57,,
1,35040, Note_on_c,0,55,71,,
1,35040, Note_on_c,0,63,65,,
1,35052, Note_off_c,0,55,0,,
1,35052, Note_off_c,0,58,0,,
1,35052, Note_off_c,0,63,0,,
1,35262, Note_off_c,0,51,0,,
1,35262, Note_off_c,0,63,0,,
1,35276, Note_off_c,0,55,0,,
1,35280, Note_on_c,0,46,64,,
1,35280, Note_on_c,0,58,64,,
1,35396, Note_off_c,0,58,0,,
1,35400, Note_on_c,0,58,64,,
1,35505, Note_off_c,0,46,0,,
1,35520, Note_on_c,0,39,66,,
1,35745, Note_off_c,0,39,0,,
1,35760, Note_on_c,0,46,64,,
1,35983, Note_off_c,0,46,0,,
1,36000, Note_on_c,0,51,57,,
1,36000, Note_on_c,0,55,71,,
1,36222, Note_off_c,0,51,0,,
1,36235, Note_off_c,0,58,0,,
1,36236, Note_off_c,0,55,0,,
1,36240, Note_on_c,0,46,64,,
1,36240, Note_on_c,0,63,64,,
1,36478, Note_off_c,0,46,0,,
1,36478, Note_off_c,0,63,0,,
1,36480, Note_on_c,0,46,69,,
1,36480, Note_on_c,0,63,69,,
1,36720, Note_off_c,0,46,0,,
1,36720, Note_on_c,0,53,64,,
1,36840, Note_on_c,0,65,64,,
1,36851, Note_off_c,0,63,0,,
1,36944, Note_off_c,0,53,0,,
1,36960, Note_on_c,0,58,65,,
1,37182, Note_off_c,0,58,0,,
1,37184, Note_off_c,0,65,0,,
1,37200, Note_on_c,0,53,64,,
1,37200, Note_on_c,0,58,64,,
1,37425, Note_off_c,0,53,0,,
1,37439, Note_off_c,0,58,0,,
1,37440, Note_on_c,0,46,67,,
1,37440, Note_on_c,0,58,67,,
1,37665, Note_off_c,0,46,0,,
1,37680, Note_on_c,0,53,64,,
1,37903, Note_off_c,0,53,0,,
1,37920, Note_on_c,0,58,65,,
1,38138, Note_off_c,0,58,0,,
1,38156, Note_off_c,0,58,0,,
1,38160, Note_on_c,0,53,64,,
1,38160, Note_on_c,0,58,64,,
1,38383, Note_off_c,0,53,0,,
1,38383, Note_off_c,0,58,0,,
1,38400, Note_on_c,0,48,69,,
1,38400, Note_on_c,0,67,69,,
1,38640, Note_off_c,0,48,0,,
1,38640, Note_on_c,0,55,64,,
1,38760, Note_on_c,0,68,64,,
1,38771, Note_off_c,0,67,0,,
1,38864, Note_off_c,0,55,0,,
1,38880, Note_on_c,0,60,57,,
1,38880, Note_on_c,0,63,71,,
1,39102, Note_off_c,0,60,0,,
1,39104, Note_off_c,0,68,0,,
1,39116, Note_off_c,0,63,0,,
1,39120, Note_on_c,0,55,64,,
1,39120, Note_on_c,0,67,64,,
1,39345, Note_off_c,0,55,0,,
1,39345, Note_off_c,0,67,0,,
1,39360, Note_on_c,0,46,67,,
1,39360, Note_on_c,0,65,67,,
1,39585, Note_off_c,0,46,0,,
1,39600, Note_on_c,0,53,64,,
1,39715, Note_off_c,0,65,0,,
1,39720, Note_on_c,0,63,64,,
1,39823, Note_off_c,0,53,0,,
1,39840, Note_on_c,0,58,57,,
1,39840, Note_on_c,0,62,71,,
1,40062, Note_off_c,0,58,0,,
1,40062, Note_off_c,0,63,0,,
1,40076, Note_off_c,0,62,0,,
1,40080, Note_on_c,0,53,64,,
1,40080, Note_on_c,0,65,64,,
1,40303, Note_off_c,0,53,0,,
1,40303, Note_off_c,0,65,0,,
1,40320, Note_on_c,0,44,69,,
1,40320, Note_on_c,0,67,69,,
1,40560, Note_off_c,0,44,0,,
1,40560, Note_on_c,0,51,64,,
1,40680, Note_on_c,0,68,64,,
1,40691, Note_off_c,0,67,0,,
1,40784, Note_off_c,0,51,0,,
1,40800, Note_on_c,0,56,57,,
1,40800, Note_on_c,0,60,71,,
1,41022, Note_off_c,0,56,0,,
1,41024, Note_off_c,0,68,0,,
1,41036, Note_off_c,0,60,0,,
1,41040, Note_on_c,0,51,64,,
1,41040, Note_on_c,0,67,64,,
1,41265, Note_off_c,0,51,0,,
1,41265, Note_off_c,0,67,0,,
1,41280, Note_on_c,0,44,67,,
1,41280, Note_on_c,0,60,67,,
1,41505, Note_off_c,0,44,0,,
1,41520, Note_on_c,0,51,64,,
1,41743, Note_off_c,0,51,0,,
1,41760, Note_on_c,0,56,57,,
1,41760, Note_on_c,0,60,71,,
1,41982, Note_off_c,0,56,0,,
1,41992, Note_off_c,0,60,0,,
1,41996, Note_off_c,0,60,0,,
1,42000, Note_on_c,0,51,64,,
1,42000, Note_on_c,0,60,64,,
1,42109, Note_off_c,0,60,0,,
1,42120, Note_on_c,0,62,64,,
1,42223, Note_off_c,0,51,0,,
1,42234, Note_off_c,0,62,0,,
1,42240, Note_on_c,0,46,69,,
1,42240, Note_on_c,0,63,69,,
1,42480, Note_off_c,0,46,0,,
1,42480, Note_on_c,0,53,64,,
1,42600, Note_on_c,0,63,64,,
1,42611, Note_off_c,0,63,0,,
1,42704, Note_off_c,0,53,0,,
1,42720, Note_on_c,0,58,57,,
1,42720, Note_on_c,0,62,71,,
1,42942, Note_off_c,0,58,0,,
1,42944, Note_off_c,0,63,0,,
1,42956, Note_off_c,0,62,0,,
1,42960, Note_on_c,0,53,64,,
1,42960, Note_on_c,0,62,64,,
1,43185, Note_off_c,0,53,0,,
1,43199, Note_off_c,0,62,0,,
1,43200, Note_on_c,0,46,67,,
1,43200, Note_on_c,0,62,67,,
1,43425, Note_off_c,0,46,0,,
1,43440, Note_on_c,0,53,64,,
1,43663, Note_off_c,0,53,0,,
1,43680, Note_on_c,0,58,57,,
1,43680, Note_on_c,0,62,71,,
1,43902, Note_off_c,0,58,0,,
1,43912, Note_off_c,0,62,0,,
1,43916, Note_off_c,0,62,0,,
1,43920, Note_on_c,0,53,64,,
1,43920, Note_on_c,0,63,64,,
1,44029, Note_off_c,0,63,0,,
1,44040, Note_on_c,0,65,64,,
1,44143, Note_off_c,0,53,0,,
1,44154, Note_off_c,0,65,0,,
1,44160, Note_on_c,0,51,69,,
1,44160, Note_on_c,0,68,69,,
1,44400, Note_off_c,0,51,0,,
1,44400, Note_on_c,0,58,64,,
1,44520, Note_on_c,0,67,64,,
1,44531, Note_off_c,0,68,0,,
1,44624, Note_off_c,0,58,0,,
1,44640, Note_on_c,0,63,65,,
1,44862, Note_off_c,0,63,0,,
1,44864, Note_off_c,0,67,0,,
1,44880, Note_on_c,0,58,64,,
1,44880, Note_on_c,0,65,64,,
1,45105, Note_off_c,0,58,0,,
1,45105, Note_off_c,0,65,0,,
1,45120, Note_on_c,0,48,67,,
1,45120, Note_on_c,0,63,67,,
1,45345, Note_off_c,0,48,0,,
1,45360, Note_on_c,0,55,64,,
1,45583, Note_off_c,0,55,0,,
1,45600, Note_on_c,0,60,57,,
1,45600, Note_on_c,0,63,71,,
1,45822, Note_off_c,0,60,0,,
1,45832, Note_off_c,0,63,0,,
1,45836, Note_off_c,0,63,0,,
1,45840, Note_on_c,0,55,64,,
1,45840, Note_on_c,0,67,64,,
1,46063, Note_off_c,0,55,0,,
1,46078, Note_off_c,0,67,0,,
1,46080, Note_on_c,0,45,69,,
1,46080, Note_on_c,0,67,69,,
1,46320, Note_off_c,0,45,0,,
1,46320, Note_on_c,0,53,64,,
1,46440, Note_on_c,0,65,64,,
1,46451, Note_off_c,0,67,0,,
1,46544, Note_off_c,0,53,0,,
1,46560, Note_on_c,0,57,57,,
1,46560, Note_on_c,0,60,71,,
1,46782, Note_off_c,0,57,0,,
1,46784, Note_off_c,0,65,0,,
1,46796, Note_off_c,0,60,0,,
1,46800, Note_on_c,0,53,64,,
1,46800, Note_on_c,0,64,64,,
1,47025, Note_off_c,0,53,0,,
1,47025, Note_off_c,0,64,0,,
1,47040, Note_on_c,0,45,67,,
1,47040, Note_on_c,0,65,67,,
1,47265, Note_off_c,0,45,0,,
1,47280, Note_on_c,0,53,64,,
1,47395, Note_off_c,0,65,0,,
1,47400, Note_on_c,0,67,64,,
1,47503, Note_off_c,0,53,0,,
1,47520, Note_on_c,0,57,57,,
1,47520, Note_on_c,0,60,71,,
1,47742, Note_off_c,0,57,0,,
1,47742, Note_off_c,0,67,0,,
1,47756, Note_off_c,0,60,0,,
1,47760, Note_on_c,0,53,64,,
1,47760, Note_on_c,0,68,64,,
1,47983, Note_off_c,0,53,0,,
1,47983, Note_off_c,0,68,0,,
1,48000, Note_on_c,0,43,61,,
1,48000, Note_on_c,0,55,75,,
1,48000, Note_on_c,0,67,69,,
1,48480, Note_on_c,0,43,57,,
1,48480, Note_on_c,0,50,71,,
1,48480, Note_on_c,0,55,57,,
1,48480, Note_on_c,0,59,71,,
1,48492, Note_off_c,0,43,0,,
1,48492, Note_off_c,0,55,0,,
1,48492, Note_off_c,0,67,0,,
1,48955, Note_off_c,0,43,0,,
1,48955, Note_off_c,0,50,0,,
1,48955, Note_off_c,0,55,0,,
1,48955, Note_off_c,0,59,0,,
1,48960, Note_on_c,0,43,59,,
1,48960, Note_on_c,0,50,59,,
1,48960, Note_on_c,0,53,73,,
1,48960, Note_on_c,0,57,59,,
1,48960, Note_on_c,0,60,73,,
1,49436, Note_off_c,0,43,0,,
1,49436, Note_off_c,0,50,0,,
1,49436, Note_off_c,0,53,0,,
1,49436, Note_off_c,0,57,0,,
1,49436, Note_off_c,0,60,0,,
1,49440, Note_on_c,0,43,57,,
1,49440, Note_on_c,0,50,57,,
1,49440, Note_on_c,0,53,67,,
1,49440, Note_on_c,0,59,57,,
1,49440, Note_on_c,0,62,71,,
1,49914, Note_off_c,0,43,0,,
1,49914, Note_off_c,0,50,0,,
1,49914, Note_off_c,0,53,0,,
1,49914, Note_off_c,0,59,0,,
1,49914, Note_off_c,0,62,0,,
1,49920, Note_on_c,0,44,69,,
1,49920, Note_on_c,0,60,61,,
1,49920, Note_on_c,0,63,75,,
1,50160, Note_off_c,0,44,0,,
1,50160, Note_on_c,0,51,64,,
1,50280, Note_on_c,0,60,56,,
1,50280, Note_on_c,0,63,66,,
1,50291, Note_off_c,0,60,0,,
1,50291, Note_off_c,0,63,0,,
1,50384, Note_off_c,0,51,0,,
1,50400, Note_on_c,0,56,65,,
1,50622, Note_off_c,0,56,0,,
1,50624, Note_off_c,0,60,0,,
1,50638, Note_off_c,0,63,0,,
1,50640, Note_on_c,0,51,64,,
1,50640, Note_on_c,0,58,56,,
1,50640, Note_on_c,0,62,70,,
1,50865, Note_off_c,0,51,0,,
1,50865, Note_off_c,0,58,0,,
1,50879, Note_off_c,0,62,0,,
1,50880, Note_on_c,0,44,67,,
1,50880, Note_on_c,0,60,59,,
1,50880, Note_on_c,0,63,73,,
1,51105, Note_off_c,0,44,0,,
1,51120, Note_on_c,0,51,64,,
1,51235, Note_off_c,0,60,0,,
1,51235, Note_off_c,0,63,0,,
1,51240, Note_on_c,0,60,56,,
1,51240, Note_on_c,0,63,66,,
1,51343, Note_off_c,0,51,0,,
1,51360, Note_on_c,0,56,65,,
1,51582, Note_off_c,0,56,0,,
1,51582, Note_off_c,0,60,0,,
1,51597, Note_off_c,0,63,0,,
1,51600, Note_on_c,0,51,64,,
1,51600, Note_on_c,0,58,56,,
1,51600, Note_on_c,0,62,70,,
1,51823, Note_off_c,0,51,0,,
1,51838, Note_off_c,0,58,0,,
1,51838, Note_off_c,0,62,0,,
1,51840, Note_on_c,0,43,69,,
1,51840, Note_on_c,0,58,61,,
1,51840, Note_on_c,0,65,75,,
1,52080, Note_off_c,0,43,0,,
1,52080, Note_on_c,0,50,64,,
1,52200, Note_on_c,0,58,56,,
1,52200, Note_on_c,0,65,66,,
1,52211, Note_off_c,0,58,0,,
1,52211, Note_off_c,0,65,0,,
1,52304, Note_off_c,0,50,0,,
1,52320, Note_on_c,0,55,65,,
1,52542, Note_off_c,0,55,0,,
1,52544, Note_off_c,0,58,0,,
1,52558, Note_off_c,0,65,0,,
1,52560, Note_on_c,0,50,64,,
1,52560, Note_on_c,0,63,64,,
1,52785, Note_off_c,0,50,0,,
1,52785, Note_off_c,0,63,0,,
1,52800, Note_on_c,0,36,65,,
1,52800, Note_on_c,0,60,59,,
1,52800, Note_on_c,0,62,73,,
1,53025, Note_off_c,0,36,0,,
1,53040, Note_on_c,0,43,64,,
1,53155, Note_off_c,0,60,0,,
1,53155, Note_off_c,0,62,0,,
1,53160, Note_on_c,0,60,64,,
1,53263, Note_off_c,0,43,0,,
1,53280, Note_on_c,0,48,65,,
1,53502, Note_off_c,0,48,0,,
1,53502, Note_off_c,0,60,0,,
1,53520, Note_on_c,0,43,64,,
1,53520, Note_on_c,0,58,56,,
1,53520, Note_on_c,0,62,70,,
1,53743, Note_off_c,0,43,0,,
1,53743, Note_off_c,0,58,0,,
1,53758, Note_off_c,0,62,0,,
1,53760, Note_on_c,0,44,69,,
1,53760, Note_on_c,0,60,61,,
1,53760, Note_on_c,0,63,75,,
1,54000, Note_off_c,0,44,0,,
1,54000, Note_on_c,0,51,64,,
1,54120, Note_on_c,0,60,56,,
1,54120, Note_on_c,0,63,66,,
1,54131, Note_off_c,0,60,0,,
1,54131, Note_off_c,0,63,0,,
1,54224, Note_off_c,0,51,0,,
1,54240, Note_on_c,0,56,65,,
1,54462, Note_off_c,0,56,0,,
1,54464, Note_off_c,0,60,0,,
1,54478, Note_off_c,0,63,0,,
1,54480, Note_on_c,0,51,64,,
1,54480, Note_on_c,0,58,56,,
1,54480, Note_on_c,0,62,70,,
1,54705, Note_off_c,0,51,0,,
1,54705, Note_off_c,0,58,0,,
1,54719, Note_off_c,0,62,0,,
1,54720, Note_on_c,0,46,67,,
1,54720, Note_on_c,0,62,59,,
1,54720, Note_on_c,0,65,73,,
1,54945, Note_off_c,0,46,0,,
1,54960, Note_on_c,0,53,64,,
1,55075, Note_off_c,0,62,0,,
1,55075, Note_off_c,0,65,0,,
1,55080, Note_on_c,0,62,64,,
1,55183, Note_off_c,0,53,0,,
1,55200, Note_on_c,0,58,65,,
1,55422, Note_off_c,0,58,0,,
1,55422, Note_off_c,0,62,0,,
1,55440, Note_on_c,0,53,64,,
1,55440, Note_on_c,0,60,64,,
1,55663, Note_off_c,0,53,0,,
1,55663, Note_off_c,0,60,0,,
1,55680, Note_on_c,0,39,68,,
1,55680, Note_on_c,0,53,61,,
1,55680, Note_on_c,0,58,75,,
1,55920, Note_off_c,0,39,0,,
1,55920, Note_on_c,0,46,64,,
1,56144, Note_off_c,0,46,0,,
1,56160, Note_on_c,0,51,65,,
1,56160, Note_on_c,0,63,57,,
1,56160, Note_on_c,0,67,71,,
1,56172, Note_off_c,0,53,0,,
1,56172, Note_off_c,0,58,0,,
1,56382, Note_off_c,0,51,0,,
1,56400, Note_on_c,0,46,64,,
1,56625, Note_off_c,0,46,0,,
1,56635, Note_off_c,0,63,0,,
1,56635, Note_off_c,0,67,0,,
1,56640, Note_on_c,0,39,66,,
1,56640, Note_on_c,0,65,59,,
1,56640, Note_on_c,0,68,73,,
1,56865, Note_off_c,0,39,0,,
1,56880, Note_on_c,0,46,64,,
1,57103, Note_off_c,0,46,0,,
1,57116, Note_off_c,0,65,0,,
1,57116, Note_off_c,0,68,0,,
1,57120, Note_on_c,0,51,65,,
1,57120, Note_on_c,0,67,57,,
1,57120, Note_on_c,0,70,71,,
1,57342, Note_off_c,0,51,0,,
1,57360, Note_on_c,0,46,64,,
1,57583, Note_off_c,0,46,0,,
1,57594, Note_off_c,0,67,0,,
1,57594, Note_off_c,0,70,0,,
1,57600, Note_on_c,0,44,69,,
1,57600, Note_on_c,0,60,61,,
1,57600, Note_on_c,0,63,75,,
1,57840, Note_off_c,0,44,0,,
1,57840, Note_on_c,0,51,64,,
1,57960, Note_on_c,0,60,56,,
1,57960, Note_on_c,0,63,66,,
1,57971, Note_off_c,0,60,0,,
1,57971, Note_off_c,0,63,0,,
1,58064, Note_off_c,0,51,0,,
1,58080, Note_on_c,0,56,65,,
1,58302, Note_off_c,0,56,0,,
1,58304, Note_off_c,0,60,0,,
1,58318, Note_off_c,0,63,0,,
1,58320, Note_on_c,0,51,64,,
1,58320, Note_on_c,0,58,56,,
1,58320, Note_on_c,0,62,70,,
1,58545, Note_off_c,0,51,0,,
1,58545, Note_off_c,0,58,0,,
1,58559, Note_off_c,0,62,0,,
1,58560, Note_on_c,0,44,67,,
1,58560, Note_on_c,0,60,59,,
1,58560, Note_on_c,0,63,73,,
1,58785, Note_off_c,0,44,0,,
1,58800, Note_on_c,0,51,64,,
1,58915, Note_off_c,0,60,0,,
1,58915, Note_off_c,0,63,0,,
1,58920, Note_on_c,0,60,56,,
1,58920, Note_on_c,0,63,66,,
1,59023, Note_off_c,0,51,0,,
1,59040, Note_on_c,0,56,65,,
1,59262, Note_off_c,0,56,0,,
1,59262, Note_off_c,0,60,0,,
1,59277, Note_off_c,0,63,0,,
1,59280, Note_on_c,0,51,64,,
1,59280, Note_on_c,0,58,56,,
1,59280, Note_on_c,0,62,70,,
1,59503, Note_off_c,0,51,0,,
1,59518, Note_off_c,0,58,0,,
1,59518, Note_off_c,0,62,0,,
1,59520, Note_on_c,0,43,69,,
1,59520, Note_on_c,0,58,61,,
1,59520, Note_on_c,0,65,75,,
1,59760, Note_off_c,0,43,0,,
1,59760, Note_on_c,0,50,64,,
1,59880, Note_on_c,0,58,56,,
1,59880, Note_on_c,0,65,66,,
1,59891, Note_off_c,0,58,0,,
1,59891, Note_off_c,0,65,0,,
1,59984, Note_off_c,0,50,0,,
1,60000, Note_on_c,0,55,65,,
1,60222, Note_off_c,0,55,0,,
1,60224, Note_off_c,0,58,0,,
1,60238, Note_off_c,0,65,0,,
1,60240, Note_on_c,0,50,64,,
1,60240, Note_on_c,0,60,56,,
1,60240, Note_on_c,0,63,70,,
1,60465, Note_off_c,0,50,0,,
1,60465, Note_off_c,0,60,0,,
1,60479, Note_off_c,0,63,0,,
1,60480, Note_on_c,0,36,65,,
1,60480, Note_on_c,0,58,59,,
1,60480, Note_on_c,0,62,73,,
1,60705, Note_off_c,0,36,0,,
1,60720, Note_on_c,0,43,64,,
1,60835, Note_off_c,0,58,0,,
1,60835, Note_off_c,0,62,0,,
1,60840, Note_on_c,0,60,56,,
1,60840, Note_on_c,0,63,70,,
1,60943, Note_off_c,0,43,0,,
1,60960, Note_on_c,0,48,65,,
1,61182, Note_off_c,0,48,0,,
1,61182, Note_off_c,0,60,0,,
1,61197, Note_off_c,0,63,0,,
1,61200, Note_on_c,0,43,64,,
1,61200, Note_on_c,0,62,56,,
1,61200, Note_on_c,0,65,70,,
1,61423, Note_off_c,0,43,0,,
1,61438, Note_off_c,0,62,0,,
1,61438, Note_off_c,0,65,0,,
1,61440, Note_on_c,0,45,69,,
1,61440, Note_on_c,0,62,61,,
1,61440, Note_on_c,0,67,75,,
1,61680, Note_off_c,0,45,0,,
1,61680, Note_on_c,0,53,64,,
1,61800, Note_on_c,0,62,56,,
1,61800, Note_on_c,0,68,70,,
1,61811, Note_off_c,0,62,0,,
1,61811, Note_off_c,0,67,0,,
1,61904, Note_off_c,0,53,0,,
1,61920, Note_on_c,0,57,65,,
1,62142, Note_off_c,0,57,0,,
1,62158, Note_off_c,0,62,0,,
1,62158, Note_off_c,0,68,0,,
1,62160, Note_on_c,0,53,64,,
1,62160, Note_on_c,0,62,56,,
1,62160, Note_on_c,0,67,70,,
1,62385, Note_off_c,0,53,0,,
1,62399, Note_off_c,0,62,0,,
1,62399, Note_off_c,0,67,0,,
1,62400, Note_on_c,0,45,67,,
1,62400, Note_on_c,0,62,59,,
1,62400, Note_on_c,0,65,73,,
1,62625, Note_off_c,0,45,0,,
1,62640, Note_on_c,0,53,64,,
1,62755, Note_off_c,0,62,0,,
1,62755, Note_off_c,0,65,0,,
1,62760, Note_on_c,0,62,56,,
1,62760, Note_on_c,0,63,70,,
1,62863, Note_off_c,0,53,0,,
1,62880, Note_on_c,0,57,65,,
1,63102, Note_off_c,0,57,0,,
1,63117, Note_off_c,0,62,0,,
1,63117, Note_off_c,0,63,0,,
1,63120, Note_on_c,0,53,64,,
1,63120, Note_on_c,0,62,56,,
1,63120, Note_on_c,0,65,70,,
1,63343, Note_off_c,0,53,0,,
1,63358, Note_off_c,0,62,0,,
1,63358, Note_off_c,0,65,0,,
1,63360, Note_on_c,0,43,61,,
1,63360, Note_on_c,0,55,75,,
1,63360, Note_on_c,0,59,61,,
1,63360, Note_on_c,0,62,61,,
1,63360, Note_on_c,0,67,75,,
1,63840, Note_on_c,0,45,57,,
1,63840, Note_on_c,0,57,71,,
1,63852, Note_off_c,0,43,0,,
1,63852, Note_off_c,0,55,0,,
1,64315, Note_off_c,0,45,0,,
1,64315, Note_off_c,0,57,0,,
1,64320, Note_on_c,0,47,59,,
1,64320, Note_on_c,0,55,59,,
1,64320, Note_on_c,0,59,73,,
1,64320, Note_on_c,0,67,73,,
1,64328, Note_off_c,0,59,0,,
1,64328, Note_off_c,0,62,0,,
1,64328, Note_off_c,0,67,0,,
1,64675, Note_off_c,0,55,0,,
1,64675, Note_off_c,0,67,0,,
1,64680, Note_on_c,0,57,56,,
1,64680, Note_on_c,0,69,70,,
1,64796, Note_off_c,0,47,0,,
1,64796, Note_off_c,0,59,0,,
1,64800, Note_on_c,0,43,57,,
1,64800, Note_on_c,0,55,71,,
1,65023, Note_off_c,0,57,0,,
1,65037, Note_off_c,0,69,0,,
1,65040, Note_on_c,0,59,56,,
1,65040, Note_on_c,0,71,70,,
1,65263, Note_off_c,0,59,0,,
1,65274, Note_off_c,0,43,0,,
1,65274, Note_off_c,0,55,0,,
1,65278, Note_off_c,0,71,0,,
1,65280, Note_on_c,0,36,59,,
1,65280, Note_on_c,0,48,75,,
1,65280, Note_on_c,0,55,61,,
1,65280, Note_on_c,0,60,75,,
1,65520, Note_on_c,0,36,62,,
1,65534, Note_off_c,0,36,0,,
1,65534, Note_off_c,0,48,0,,
1,65744, Note_off_c,0,36,0,,
1,65760, Note_on_c,0,48,65,,
1,65760, Note_on_c,0,55,57,,
1,65760, Note_on_c,0,63,71,,
1,65772, Note_off_c,0,55,0,,
1,65772, Note_off_c,0,60,0,,
1,65982, Note_off_c,0,48,0,,
1,66000, Note_on_c,0,51,64,,
1,66225, Note_off_c,0,51,0,,
1,66235, Note_off_c,0,55,0,,
1,66235, Note_off_c,0,63,0,,
1,66240, Note_on_c,0,41,67,,
1,66240, Note_on_c,0,60,59,,
1,66240, Note_on_c,0,65,73,,
1,66356, Note_off_c,0,41,0,,
1,66360, Note_on_c,0,53,64,,
1,66468, Note_off_c,0,53,0,,
1,66480, Note_on_c,0,41,64,,
1,66595, Note_off_c,0,60,0,,
1,66595, Note_off_c,0,65,0,,
1,66600, Note_on_c,0,60,56,,
1,66600, Note_on_c,0,63,70,,
1,66703, Note_off_c,0,41,0,,
1,66720, Note_on_c,0,53,65,,
1,66942, Note_off_c,0,53,0,,
1,66957, Note_off_c,0,60,0,,
1,66957, Note_off_c,0,63,0,,
1,66960, Note_on_c,0,41,64,,
1,66960, Note_on_c,0,60,56,,
1,66960, Note_on_c,0,65,70,,
1,67183, Note_off_c,0,41,0,,
1,67183, Note_off_c,0,60,0,,
1,67198, Note_off_c,0,65,0,,
1,67200, Note_on_c,0,46,69,,
1,67200, Note_on_c,0,58,72,,
1,67200, Note_on_c,0,62,72,,
1,67200, Note_on_c,0,65,67,,
1,67440, Note_off_c,0,58,0,,
1,67440, Note_on_c,0,46,64,,
1,67440, Note_on_c,0,62,56,,
1,67440, Note_on_c,0,65,70,,
1,67454, Note_off_c,0,46,0,,
1,67454, Note_off_c,0,62,0,,
1,67454, Note_off_c,0,65,0,,
1,67664, Note_off_c,0,46,0,,
1,67678, Note_off_c,0,62,0,,
1,67678, Note_off_c,0,65,0,,
1,67680, Note_on_c,0,50,65,,
1,67680, Note_on_c,0,62,57,,
1,67680, Note_on_c,0,65,57,,
1,67680, Note_on_c,0,70,71,,
1,67902, Note_off_c,0,50,0,,
1,67902, Note_off_c,0,62,0,,
1,67902, Note_off_c,0,65,0,,
1,67916, Note_off_c,0,70,0,,
1,67920, Note_on_c,0,53,64,,
1,67920, Note_on_c,0,68,64,,
1,68145, Note_off_c,0,53,0,,
1,68145, Note_off_c,0,68,0,,
1,68160, Note_on_c,0,39,66,,
1,68160, Note_on_c,0,63,59,,
1,68160, Note_on_c,0,67,73,,
1,68276, Note_off_c,0,39,0,,
1,68276, Note_off_c,0,63,0,,
1,68280, Note_on_c,0,51,64,,
1,68280, Note_on_c,0,65,64,,
1,68283, Note_off_c,0,67,0,,
1,68388, Note_off_c,0,51,0,,
1,68400, Note_on_c,0,39,63,,
1,68498, Note_off_c,0,65,0,,
1,68520, Note_on_c,0,63,56,,
1,68520, Note_on_c,0,67,66,,
1,68637, Note_off_c,0,39,0,,
1,68640, Note_on_c,0,39,56,,
1,68640, Note_on_c,0,51,71,,
1,68862, Note_off_c,0,39,0,,
1,68876, Note_off_c,0,51,0,,
1,68880, Note_on_c,0,38,55,,
1,68880, Note_on_c,0,50,70,,
1,69103, Note_off_c,0,38,0,,
1,69115, Note_off_c,0,63,0,,
1,69115, Note_off_c,0,67,0,,
1,69118, Note_off_c,0,50,0,,
1,69120, Note_on_c,0,36,59,,
1,69120, Note_on_c,0,48,75,,
1,69120, Note_on_c,0,60,61,,
1,69120, Note_on_c,0,63,61,,
1,69120, Note_on_c,0,67,75,,
1,69360, Note_on_c,0,36,54,,
1,69360, Note_on_c,0,48,66,,
1,69374, Note_off_c,0,36,0,,
1,69374, Note_off_c,0,48,0,,
1,69584, Note_off_c,0,36,0,,
1,69598, Note_off_c,0,48,0,,
1,69600, Note_on_c,0,48,65,,
1,69600, Note_on_c,0,63,57,,
1,69600, Note_on_c,0,67,57,,
1,69600, Note_on_c,0,70,71,,
1,69612, Note_off_c,0,60,0,,
1,69612, Note_off_c,0,63,0,,
1,69612, Note_off_c,0,67,0,,
1,69822, Note_off_c,0,48,0,,
1,69840, Note_on_c,0,51,64,,
1,70065, Note_off_c,0,51,0,,
1,70075, Note_off_c,0,63,0,,
1,70075, Note_off_c,0,67,0,,
1,70075, Note_off_c,0,70,0,,
1,70080, Note_on_c,0,41,59,,
1,70080, Note_on_c,0,53,73,,
1,70080, Note_on_c,0,65,59,,
1,70080, Note_on_c,0,68,59,,
1,70080, Note_on_c,0,72,73,,
1,70305, Note_off_c,0,41,0,,
1,70319, Note_off_c,0,53,0,,
1,70320, Note_on_c,0,53,64,,
1,70435, Note_off_c,0,65,0,,
1,70435, Note_off_c,0,68,0,,
1,70435, Note_off_c,0,72,0,,
1,70440, Note_on_c,0,65,64,,
1,70557, Note_off_c,0,53,0,,
1,70560, Note_on_c,0,41,57,,
1,70560, Note_on_c,0,53,71,,
1,70782, Note_off_c,0,41,0,,
1,70782, Note_off_c,0,65,0,,
1,70796, Note_off_c,0,53,0,,
1,70800, Note_on_c,0,36,54,,
1,70800, Note_on_c,0,48,70,,
1,70800, Note_on_c,0,63,64,,
1,71023, Note_off_c,0,36,0,,
1,71023, Note_off_c,0,63,0,,
1,71038, Note_off_c,0,48,0,,
1,71040, Note_on_c,0,46,69,,
1,71040, Note_on_c,0,62,69,,
1,71280, Note_on_c,0,46,64,,
1,71280, Note_on_c,0,62,64,,
1,71294, Note_off_c,0,46,0,,
1,71294, Note_off_c,0,62,0,,
1,71504, Note_off_c,0,46,0,,
1,71504, Note_off_c,0,62,0,,
1,71520, Note_on_c,0,50,65,,
1,71520, Note_on_c,0,60,65,,
1,71742, Note_off_c,0,50,0,,
1,71742, Note_off_c,0,60,0,,
1,71760, Note_on_c,0,53,64,,
1,71760, Note_on_c,0,62,64,,
1,71985, Note_off_c,0,53,0,,
1,71985, Note_off_c,0,62,0,,
1,72000, Note_on_c,0,39,58,,
1,72000, Note_on_c,0,51,73,,
1,72000, Note_on_c,0,65,67,,
1,72116, Note_off_c,0,65,0,,
1,72120, Note_on_c,0,63,64,,
1,72225, Note_off_c,0,39,0,,
1,72239, Note_off_c,0,51,0,,
1,72240, Note_on_c,0,51,64,,
1,72352, Note_off_c,0,63,0,,
1,72360, Note_on_c,0,63,64,,
1,72463, Note_off_c,0,51,0,,
1,72480, Note_on_c,0,39,64,,
1,72594, Note_off_c,0,63,0,,
1,72600, Note_on_c,0,65,64,,
1,72702, Note_off_c,0,39,0,,
1,72709, Note_off_c,0,65,0,,
1,72720, Note_on_c,0,38,63,,
1,72720, Note_on_c,0,67,64,,
1,72829, Note_off_c,0,67,0,,
1,72840, Note_on_c,0,70,64,,
1,72943, Note_off_c,0,38,0,,
1,72954, Note_off_c,0,70,0,,
1,72960, Note_on_c,0,36,59,,
1,72960, Note_on_c,0,48,75,,
1,72960, Note_on_c,0,60,61,,
1,72960, Note_on_c,0,67,61,,
1,72960, Note_on_c,0,72,75,,
1,73200, Note_on_c,0,36,62,,
1,73214, Note_off_c,0,36,0,,
1,73214, Note_off_c,0,48,0,,
1,73424, Note_off_c,0,36,0,,
1,73440, Note_on_c,0,48,65,,
1,73440, Note_on_c,0,55,57,,
1,73440, Note_on_c,0,63,71,,
1,73452, Note_off_c,0,60,0,,
1,73452, Note_off_c,0,67,0,,
1,73452, Note_off_c,0,72,0,,
1,73662, Note_off_c,0,48,0,,
1,73680, Note_on_c,0,51,64,,
1,73905, Note_off_c,0,51,0,,
1,73915, Note_off_c,0,55,0,,
1,73915, Note_off_c,0,63,0,,
1,73920, Note_on_c,0,41,67,,
1,73920, Note_on_c,0,60,59,,
1,73920, Note_on_c,0,65,73,,
1,74036, Note_off_c,0,41,0,,
1,74040, Note_on_c,0,53,64,,
1,74148, Note_off_c,0,53,0,,
1,74160, Note_on_c,0,41,64,,
1,74275, Note_off_c,0,60,0,,
1,74275, Note_off_c,0,65,0,,
1,74280, Note_on_c,0,60,56,,
1,74280, Note_on_c,0,63,70,,
1,74383, Note_off_c,0,41,0,,
1,74400, Note_on_c,0,53,65,,
1,74622, Note_off_c,0,53,0,,
1,74637, Note_off_c,0,60,0,,
1,74637, Note_off_c,0,63,0,,
1,74640, Note_on_c,0,41,64,,
1,74640, Note_on_c,0,60,56,,
1,74640, Note_on_c,0,65,70,,
1,74863, Note_off_c,0,41,0,,
1,74863, Note_off_c,0,60,0,,
1,74878, Note_off_c,0,65,0,,
1,74880, Note_on_c,0,46,69,,
1,74880, Note_on_c,0,58,72,,
1,74880, Note_on_c,0,62,72,,
1,74880, Note_on_c,0,65,67,,
1,75120, Note_off_c,0,58,0,,
1,75120, Note_on_c,0,46,64,,
1,75120, Note_on_c,0,62,56,,
1,75120, Note_on_c,0,65,70,,
1,75134, Note_off_c,0,46,0,,
1,75134, Note_off_c,0,62,0,,
1,75134, Note_off_c,0,65,0,,
1,75344, Note_off_c,0,46,0,,
1,75358, Note_off_c,0,62,0,,
1,75358, Note_off_c,0,65,0,,
1,75360, Note_on_c,0,50,65,,
1,75360, Note_on_c,0,62,57,,
1,75360, Note_on_c,0,65,57,,
1,75360, Note_on_c,0,70,71,,
1,75582, Note_off_c,0,50,0,,
1,75582, Note_off_c,0,62,0,,
1,75582, Note_off_c,0,65,0,,
1,75596, Note_off_c,0,70,0,,
1,75600, Note_on_c,0,53,64,,
1,75600, Note_on_c,0,68,64,,
1,75825, Note_off_c,0,53,0,,
1,75825, Note_off_c,0,68,0,,
1,75840, Note_on_c,0,39,58,,
1,75840, Note_on_c,0,51,73,,
1,75840, Note_on_c,0,63,59,,
1,75840, Note_on_c,0,67,73,,
1,75956, Note_off_c,0,63,0,,
1,75960, Note_on_c,0,65,64,,
1,75963, Note_off_c,0,67,0,,
1,76065, Note_off_c,0,39,0,,
1,76079, Note_off_c,0,51,0,,
1,76080, Note_on_c,0,51,64,,
1,76178, Note_off_c,0,65,0,,
1,76200, Note_on_c,0,63,56,,
1,76200, Note_on_c,0,67,66,,
1,76317, Note_off_c,0,51,0,,
1,76320, Note_on_c,0,39,56,,
1,76320, Note_on_c,0,51,71,,
1,76542, Note_off_c,0,39,0,,
1,76556, Note_off_c,0,51,0,,
1,76560, Note_on_c,0,38,63,,
1,76783, Note_off_c,0,38,0,,
1,76795, Note_off_c,0,63,0,,
1,76795, Note_off_c,0,67,0,,
1,76800, Note_on_c,0,36,59,,
1,76800, Note_on_c,0,48,75,,
1,76800, Note_on_c,0,60,61,,
1,76800, Note_on_c,0,63,61,,
1,76800, Note_on_c,0,67,75,,
1,77040, Note_off_c,0,36,0,,
1,77040, Note_on_c,0,48,64,,
1,77054, Note_off_c,0,48,0,,
1,77278, Note_off_c,0,48,0,,
1,77280, Note_on_c,0,36,55,,
1,77280, Note_on_c,0,48,71,,
1,77280, Note_on_c,0,63,57,,
1,77280, Note_on_c,0,67,57,,
1,77280, Note_on_c,0,70,71,,
1,77292, Note_off_c,0,60,0,,
1,77292, Note_off_c,0,63,0,,
1,77292, Note_off_c,0,67,0,,
1,77502, Note_off_c,0,36,0,,
1,77516, Note_off_c,0,48,0,,
1,77520, Note_on_c,0,48,64,,
1,77745, Note_off_c,0,48,0,,
1,77755, Note_off_c,0,63,0,,
1,77755, Note_off_c,0,67,0,,
1,77755, Note_off_c,0,70,0,,
1,77760, Note_on_c,0,41,59,,
1,77760, Note_on_c,0,53,73,,
1,77760, Note_on_c,0,65,59,,
1,77760, Note_on_c,0,68,59,,
1,77760, Note_on_c,0,72,73,,
1,77985, Note_off_c,0,41,0,,
1,77999, Note_off_c,0,53,0,,
1,78000, Note_on_c,0,53,64,,
1,78115, Note_off_c,0,65,0,,
1,78115, Note_off_c,0,68,0,,
1,78115, Note_off_c,0,72,0,,
1,78120, Note_on_c,0,65,64,,
1,78237, Note_off_c,0,53,0,,
1,78240, Note_on_c,0,41,57,,
1,78240, Note_on_c,0,53,71,,
1,78462, Note_off_c,0,41,0,,
1,78462, Note_off_c,0,65,0,,
1,78476, Note_off_c,0,53,0,,
1,78480, Note_on_c,0,53,64,,
1,78480, Note_on_c,0,63,64,,
1,78703, Note_off_c,0,53,0,,
1,78703, Note_off_c,0,63,0,,
1,78720, Note_on_c,0,46,61,,
1,78720, Note_on_c,0,58,71,,
1,78720, Note_on_c,0,62,61,,
1,78720, Note_on_c,0,70,71,,
1,78960, Note_on_c,0,46,56,,
1,78960, Note_on_c,0,58,70,,
1,78960, Note_on_c,0,62,56,,
1,78960, Note_on_c,0,70,70,,
1,78974, Note_off_c,0,46,0,,
1,78974, Note_off_c,0,58,0,,
1,78974, Note_off_c,0,62,0,,
1,78974, Note_off_c,0,70,0,,
1,79184, Note_off_c,0,46,0,,
1,79184, Note_off_c,0,62,0,,
1,79198, Note_off_c,0,58,0,,
1,79198, Note_off_c,0,70,0,,
1,79200, Note_on_c,0,43,57,,
1,79200, Note_on_c,0,55,71,,
1,79200, Note_on_c,0,58,57,,
1,79200, Note_on_c,0,67,71,,
1,79422, Note_off_c,0,43,0,,
1,79422, Note_off_c,0,58,0,,
1,79436, Note_off_c,0,55,0,,
1,79436, Note_off_c,0,67,0,,
1,79440, Note_on_c,0,46,56,,
1,79440, Note_on_c,0,58,70,,
1,79440, Note_on_c,0,63,56,,
1,79440, Note_on_c,0,70,70,,
1,79679, Note_off_c,0,46,0,,
1,79679, Note_off_c,0,58,0,,
1,79679, Note_off_c,0,63,0,,
1,79679, Note_off_c,0,70,0,,
1,79680, Note_on_c,0,46,59,,
1,79680, Note_on_c,0,58,73,,
1,79680, Note_on_c,0,63,59,,
1,79680, Note_on_c,0,70,73,,
1,80035, Note_off_c,0,46,0,,
1,80035, Note_off_c,0,58,0,,
1,80035, Note_off_c,0,63,0,,
1,80035, Note_off_c,0,70,0,,
1,80040, Note_on_c,0,48,56,,
1,80040, Note_on_c,0,60,70,,
1,80040, Note_on_c,0,63,56,,
1,80040, Note_on_c,0,72,70,,
1,80635, Note_off_c,0,48,0,,
1,80635, Note_off_c,0,60,0,,
1,80635, Note_off_c,0,63,0,,
1,80635, Note_off_c,0,72,0,,
1,80640, Note_on_c,0,36,59,,
1,80640, Note_on_c,0,48,75,,
1,80640, Note_on_c,0,55,61,,
1,80640, Note_on_c,0,60,75,,
1,80880, Note_on_c,0,36,62,,
1,80894, Note_off_c,0,36,0,,
1,80894, Note_off_c,0,48,0,,
1,81104, Note_off_c,0,36,0,,
1,81120, Note_on_c,0,48,65,,
1,81120, Note_on_c,0,55,57,,
1,81120, Note_on_c,0,63,71,,
1,81132, Note_off_c,0,55,0,,
1,81132, Note_off_c,0,60,0,,
1,81342, Note_off_c,0,48,0,,
1,81360, Note_on_c,0,51,64,,
1,81585, Note_off_c,0,51,0,,
1,81595, Note_off_c,0,55,0,,
1,81595, Note_off_c,0,63,0,,
1,81600, Note_on_c,0,41,67,,
1,81600, Note_on_c,0,60,59,,
1,81600, Note_on_c,0,65,73,,
1,81716, Note_off_c,0,41,0,,
1,81720, Note_on_c,0,53,64,,
1,81828, Note_off_c,0,53,0,,
1,81840, Note_on_c,0,41,64,,
1,81955, Note_off_c,0,60,0,,
1,81955, Note_off_c,0,65,0,,
1,81960, Note_on_c,0,60,56,,
1,81960, Note_on_c,0,63,70,,
1,82063, Note_off_c,0,41,0,,
1,82080, Note_on_c,0,53,65,,
1,82302, Note_off_c,0,53,0,,
1,82317, Note_off_c,0,60,0,,
1,82317, Note_off_c,0,63,0,,
1,82320, Note_on_c,0,41,64,,
1,82320, Note_on_c,0,60,56,,
1,82320, Note_on_c,0,65,70,,
1,82543, Note_off_c,0,41,0,,
1,82543, Note_off_c,0,60,0,,
1,82558, Note_off_c,0,65,0,,
1,82560, Note_on_c,0,46,69,,
1,82560, Note_on_c,0,58,72,,
1,82560, Note_on_c,0,62,72,,
1,82560, Note_on_c,0,65,67,,
1,82800, Note_off_c,0,58,0,,
1,82800, Note_on_c,0,46,64,,
1,82800, Note_on_c,0,62,56,,
1,82800, Note_on_c,0,65,70,,
1,82814, Note_off_c,0,46,0,,
1,82814, Note_off_c,0,62,0,,
1,82814, Note_off_c,0,65,0,,
1,83024, Note_off_c,0,46,0,,
1,83038, Note_off_c,0,62,0,,
1,83038, Note_off_c,0,65,0,,
1,83040, Note_on_c,0,50,65,,
1,83040, Note_on_c,0,62,57,,
1,83040, Note_on_c,0,65,57,,
1,83040, Note_on_c,0,70,71,,
1,83262, Note_off_c,0,50,0,,
1,83262, Note_off_c,0,62,0,,
1,83262, Note_off_c,0,65,0,,
1,83276, Note_off_c,0,70,0,,
1,83280, Note_on_c,0,53,64,,
1,83280, Note_on_c,0,68,64,,
1,83505, Note_off_c,0,53,0,,
1,83505, Note_off_c,0,68,0,,
1,83520, Note_on_c,0,39,58,,
1,83520, Note_on_c,0,51,73,,
1,83520, Note_on_c,0,63,59,,
1,83520, Note_on_c,0,67,73,,
1,83636, Note_off_c,0,63,0,,
1,83640, Note_on_c,0,65,64,,
1,83643, Note_off_c,0,67,0,,
1,83745, Note_off_c,0,39,0,,
1,83759, Note_off_c,0,51,0,,
1,83760, Note_on_c,0,51,64,,
1,83858, Note_off_c,0,65,0,,
1,83880, Note_on_c,0,63,56,,
1,83880, Note_on_c,0,67,66,,
1,83997, Note_off_c,0,51,0,,
1,84000, Note_on_c,0,39,56,,
1,84000, Note_on_c,0,51,71,,
1,84222, Note_off_c,0,39,0,,
1,84236, Note_off_c,0,51,0,,
1,84240, Note_on_c,0,38,63,,
1,84463, Note_off_c,0,38,0,,
1,84475, Note_off_c,0,63,0,,
1,84475, Note_off_c,0,67,0,,
1,84480, Note_on_c,0,36,59,,
1,84480, Note_on_c,0,48,75,,
1,84480, Note_on_c,0,60,61,,
1,84480, Note_on_c,0,63,61,,
1,84480, Note_on_c,0,67,75,,
1,84720, Note_off_c,0,36,0,,
1,84720, Note_on_c,0,48,64,,
1,84734, Note_off_c,0,48,0,,
1,84958, Note_off_c,0,48,0,,
1,84960, Note_on_c,0,36,55,,
1,84960, Note_on_c,0,48,71,,
1,84960, Note_on_c,0,63,57,,
1,84960, Note_on_c,0,67,57,,
1,84960, Note_on_c,0,70,71,,
1,84972, Note_off_c,0,60,0,,
1,84972, Note_off_c,0,63,0,,
1,84972, Note_off_c,0,67,0,,
1,85182, Note_off_c,0,36,0,,
1,85196, Note_off_c,0,48,0,,
1,85200, Note_on_c,0,48,64,,
1,85425, Note_off_c,0,48,0,,
1,85435, Note_off_c,0,63,0,,
1,85435, Note_off_c,0,67,0,,
1,85435, Note_off_c,0,70,0,,
1,85440, Note_on_c,0,41,59,,
1,85440, Note_on_c,0,53,73,,
1,85440, Note_on_c,0,65,59,,
1,85440, Note_on_c,0,68,59,,
1,85440, Note_on_c,0,72,73,,
1,85665, Note_off_c,0,41,0,,
1,85679, Note_off_c,0,53,0,,
1,85680, Note_on_c,0,53,64,,
1,85795, Note_off_c,0,65,0,,
1,85795, Note_off_c,0,68,0,,
1,85795, Note_off_c,0,72,0,,
1,85800, Note_on_c,0,65,64,,
1,85917, Note_off_c,0,53,0,,
1,85920, Note_on_c,0,41,57,,
1,85920, Note_on_c,0,53,71,,
1,86142, Note_off_c,0,41,0,,
1,86142, Note_off_c,0,65,0,,
1,86156, Note_off_c,0,53,0,,
1,86160, Note_on_c,0,53,64,,
1,86160, Note_on_c,0,63,64,,
1,86383, Note_off_c,0,53,0,,
1,86383, Note_off_c,0,63,0,,
1,86400, Note_on_c,0,46,61,,
1,86400, Note_on_c,0,58,71,,
1,86400, Note_on_c,0,62,61,,
1,86400, Note_on_c,0,70,71,,
1,86640, Note_on_c,0,46,56,,
1,86640, Note_on_c,0,58,70,,
1,86640, Note_on_c,0,62,56,,
1,86640, Note_on_c,0,70,70,,
1,86654, Note_off_c,0,46,0,,
1,86654, Note_off_c,0,58,0,,
1,86654, Note_off_c,0,62,0,,
1,86654, Note_off_c,0,70,0,,
1,86864, Note_off_c,0,46,0,,
1,86864, Note_off_c,0,62,0,,
1,86878, Note_off_c,0,58,0,,
1,86878, Note_off_c,0,70,0,,
1,86880, Note_on_c,0,43,57,,
1,86880, Note_on_c,0,55,71,,
1,86880, Note_on_c,0,58,57,,
1,86880, Note_on_c,0,67,71,,
1,87102, Note_off_c,0,43,0,,
1,87102, Note_off_c,0,58,0,,
1,87116, Note_off_c,0,55,0,,
1,87116, Note_off_c,0,67,0,,
1,87120, Note_on_c,0,46,56,,
1,87120, Note_on_c,0,58,70,,
1,87120, Note_on_c,0,63,56,,
1,87120, Note_on_c,0,70,70,,
1,87359, Note_off_c,0,46,0,,
1,87359, Note_off_c,0,58,0,,
1,87359, Note_off_c,0,63,0,,
1,87359, Note_off_c,0,70,0,,
1,87360, Note_on_c,0,46,59,,
1,87360, Note_on_c,0,58,73,,
1,87360, Note_on_c,0,63,59,,
1,87360, Note_on_c,0,70,73,,
1,87715, Note_off_c,0,46,0,,
1,87715, Note_off_c,0,58,0,,
1,87715, Note_off_c,0,63,0,,
1,87715, Note_off_c,0,70,0,,
1,87720, Note_on_c,0,48,56,,
1,87720, Note_on_c,0,60,70,,
1,87720, Note_on_c,0,63,56,,
1,87720, Note_on_c,0,72,70,,
1,88315, Note_off_c,0,48,0,,
1,88315, Note_off_c,0,60,0,,
1,88315, Note_off_c,0,63,0,,
1,88315, Note_off_c,0,72,0,,
1,88320, Note_on_c,0,36,59,,
1,88320, Note_on_c,0,48,75,,
1,88320, Note_on_c,0,55,69,,
1,88380, Note_on_c,0,58,64,,
1,88395, Note_off_c,0,55,0,,
1,88435, Note_off_c,0,58,0,,
1,88440, Note_on_c,0,60,64,,
1,88549, Note_off_c,0,60,0,,
1,88560, Note_on_c,0,36,54,,
1,88560, Note_on_c,0,48,70,,
1,88574, Note_off_c,0,36,0,,
1,88574, Note_off_c,0,48,0,,
1,88670, Control_c,0,7,110,,
1,88784, Note_off_c,0,36,0,,
1,88798, Note_off_c,0,48,0,,
1,88800, Note_on_c,0,63,57,,
1,88800, Note_on_c,0,67,57,,
1,88800, Note_on_c,0,72,71,,
1,89275, Note_off_c,0,63,0,,
1,89275, Note_off_c,0,67,0,,
1,89275, Note_off_c,0,72,0,,
1,89280, Note_on_c,0,36,65,,
1,89280, Note_on_c,0,55,67,,
1,89340, Note_on_c,0,58,64,,
1,89340, Note_off_c,0,55,0,,
1,89395, Note_off_c,0,58,0,,
1,89400, Note_on_c,0,60,64,,
1,89508, Note_off_c,0,60,0,,
1,89519, Note_off_c,0,36,0,,
1,89520, Note_on_c,0,36,62,,
1,89743, Note_off_c,0,36,0,,
1,89760, Note_on_c,0,63,57,,
1,89760, Note_on_c,0,67,57,,
1,89760, Note_on_c,0,72,71,,
1,90234, Note_off_c,0,63,0,,
1,90234, Note_off_c,0,67,0,,
1,90234, Note_off_c,0,72,0,,
1,90240, Note_on_c,0,36,59,,
1,90240, Note_on_c,0,48,75,,
1,90240, Note_on_c,0,55,69,,
1,90300, Note_on_c,0,58,64,,
1,90315, Note_off_c,0,55,0,,
1,90355, Note_off_c,0,58,0,,
1,90360, Note_on_c,0,60,64,,
1,90469, Note_off_c,0,60,0,,
1,90480, Note_on_c,0,36,54,,
1,90480, Note_on_c,0,48,70,,
1,90494, Note_off_c,0,36,0,,
1,90494, Note_off_c,0,48,0,,
1,90704, Note_off_c,0,36,0,,
1,90718, Note_off_c,0,48,0,,
1,90720, Note_on_c,0,63,57,,
1,90720, Note_on_c,0,67,57,,
1,90720, Note_on_c,0,72,71,,
1,91195, Note_off_c,0,63,0,,
1,91195, Note_off_c,0,67,0,,
1,91195, Note_off_c,0,72,0,,
1,91200, Note_on_c,0,36,65,,
1,91200, Note_on_c,0,55,67,,
1,91260, Note_on_c,0,58,64,,
1,91260, Note_off_c,0,55,0,,
1,91315, Note_off_c,0,58,0,,
1,91320, Note_on_c,0,60,64,,
1,91428, Note_off_c,0,60,0,,
1,91439, Note_off_c,0,36,0,,
1,91440, Note_on_c,0,36,62,,
1,91663, Note_off_c,0,36,0,,
1,91680, Note_on_c,0,63,57,,
1,91680, Note_on_c,0,67,57,,
1,91680, Note_on_c,0,72,71,,
1,92154, Note_off_c,0,63,0,,
1,92154, Note_off_c,0,67,0,,
1,92154, Note_off_c,0,72,0,,
1,92160, Note_on_c,0,44,69,,
1,92160, Note_on_c,0,51,69,,
1,92220, Note_on_c,0,55,64,,
1,92235, Note_off_c,0,51,0,,
1,92275, Note_off_c,0,55,0,,
1,92280, Note_on_c,0,56,64,,
1,92389, Note_off_c,0,56,0,,
1,92400, Note_on_c,0,44,64,,
1,92414, Note_off_c,0,44,0,,
1,92624, Note_off_c,0,44,0,,
1,92640, Note_on_c,0,60,57,,
1,92640, Note_on_c,0,63,57,,
1,92640, Note_on_c,0,68,71,,
1,93115, Note_off_c,0,60,0,,
1,93115, Note_off_c,0,63,0,,
1,93115, Note_off_c,0,68,0,,
1,93120, Note_on_c,0,44,67,,
1,93120, Note_on_c,0,51,67,,
1,93180, Note_on_c,0,55,64,,
1,93180, Note_off_c,0,51,0,,
1,93235, Note_off_c,0,55,0,,
1,93240, Note_on_c,0,56,64,,
1,93348, Note_off_c,0,56,0,,
1,93359, Note_off_c,0,44,0,,
1,93360, Note_on_c,0,44,64,,
1,93583, Note_off_c,0,44,0,,
1,93600, Note_on_c,0,60,57,,
1,93600, Note_on_c,0,63,57,,
1,93600, Note_on_c,0,68,71,,
1,94074, Note_off_c,0,60,0,,
1,94074, Note_off_c,0,63,0,,
1,94074, Note_off_c,0,68,0,,
1,94080, Note_on_c,0,46,69,,
1,94080, Note_on_c,0,51,69,,
1,94140, Note_on_c,0,56,64,,
1,94155, Note_off_c,0,51,0,,
1,94195, Note_off_c,0,56,0,,
1,94200, Note_on_c,0,58,64,,
1,94309, Note_off_c,0,58,0,,
1,94320, Note_on_c,0,46,64,,
1,94334, Note_off_c,0,46,0,,
1,94544, Note_off_c,0,46,0,,
1,94560, Note_on_c,0,62,57,,
1,94560, Note_on_c,0,65,57,,
1,94560, Note_on_c,0,70,71,,
1,95035, Note_off_c,0,62,0,,
1,95035, Note_off_c,0,65,0,,
1,95035, Note_off_c,0,70,0,,
1,95040, Note_on_c,0,46,67,,
1,95040, Note_on_c,0,51,67,,
1,95100, Note_on_c,0,56,64,,
1,95100, Note_off_c,0,51,0,,
1,95155, Note_off_c,0,56,0,,
1,95160, Note_on_c,0,58,64,,
1,95268, Note_off_c,0,58,0,,
1,95279, Note_off_c,0,46,0,,
1,95280, Note_on_c,0,46,64,,
1,95503, Note_off_c,0,46,0,,
1,95520, Note_on_c,0,62,57,,
1,95520, Note_on_c,0,65,57,,
1,95520, Note_on_c,0,70,71,,
1,95994, Note_off_c,0,62,0,,
1,95994, Note_off_c,0,65,0,,
1,95994, Note_off_c,0,70,0,,
1,96000, Note_on_c,0,36,59,,
1,96000, Note_on_c,0,48,75,,
1,96000, Note_on_c,0,55,69,,
1,96060, Note_on_c,0,58,64,,
1,96075, Note_off_c,0,55,0,,
1,96115, Note_off_c,0,58,0,,
1,96120, Note_on_c,0,60,64,,
1,96229, Note_off_c,0,60,0,,
1,96240, Note_on_c,0,36,54,,
1,96240, Note_on_c,0,48,70,,
1,96254, Note_off_c,0,36,0,,
1,96254, Note_off_c,0,48,0,,
1,96464, Note_off_c,0,36,0,,
1,96478, Note_off_c,0,48,0,,
1,96480, Note_on_c,0,63,57,,
1,96480, Note_on_c,0,67,57,,
1,96480, Note_on_c,0,72,71,,
1,96955, Note_off_c,0,63,0,,
1,96955, Note_off_c,0,67,0,,
1,96955, Note_off_c,0,72,0,,
1,96960, Note_on_c,0,36,65,,
1,96960, Note_on_c,0,55,67,,
1,97020, Note_on_c,0,58,64,,
1,97020, Note_off_c,0,55,0,,
1,97075, Note_off_c,0,58,0,,
1,97080, Note_on_c,0,60,64,,
1,97188, Note_off_c,0,60,0,,
1,97199, Note_off_c,0,36,0,,
1,97200, Note_on_c,0,36,62,,
1,97423, Note_off_c,0,36,0,,
1,97440, Note_on_c,0,63,57,,
1,97440, Note_on_c,0,67,57,,
1,97440, Note_on_c,0,72,71,,
1,97914, Note_off_c,0,63,0,,
1,97914, Note_off_c,0,67,0,,
1,97914, Note_off_c,0,72,0,,
1,97920, Note_on_c,0,36,59,,
1,97920, Note_on_c,0,48,75,,
1,97920, Note_on_c,0,55,69,,
1,97980, Note_on_c,0,58,64,,
1,97995, Note_off_c,0,55,0,,
1,98035, Note_off_c,0,58,0,,
1,98040, Note_on_c,0,60,64,,
1,98149, Note_off_c,0,60,0,,
1,98160, Note_on_c,0,36,54,,
1,98160, Note_on_c,0,48,70,,
1,98174, Note_off_c,0,36,0,,
1,98174, Note_off_c,0,48,0,,
1,98384, Note_off_c,0,36,0,,
1,98398, Note_off_c,0,48,0,,
1,98400, Note_on_c,0,63,57,,
1,98400, Note_on_c,0,67,57,,
1,98400, Note_on_c,0,72,71,,
1,98875, Note_off_c,0,63,0,,
1,98875, Note_off_c,0,67,0,,
1,98875, Note_off_c,0,72,0,,
1,98880, Note_on_c,0,36,65,,
1,98880, Note_on_c,0,55,67,,
1,98940, Note_on_c,0,58,64,,
1,98940, Note_off_c,0,55,0,,
1,98995, Note_off_c,0,58,0,,
1,99000, Note_on_c,0,60,64,,
1,99108, Note_off_c,0,60,0,,
1,99119, Note_off_c,0,36,0,,
1,99120, Note_on_c,0,36,62,,
1,99343, Note_off_c,0,36,0,,
1,99360, Note_on_c,0,63,57,,
1,99360, Note_on_c,0,67,57,,
1,99360, Note_on_c,0,72,71,,
1,99834, Note_off_c,0,63,0,,
1,99834, Note_off_c,0,67,0,,
1,99834, Note_off_c,0,72,0,,
1,99840, Note_on_c,0,44,69,,
1,99840, Note_on_c,0,51,69,,
1,99900, Note_on_c,0,55,64,,
1,99915, Note_off_c,0,51,0,,
1,99955, Note_off_c,0,55,0,,
1,99960, Note_on_c,0,56,64,,
1,100069, Note_off_c,0,56,0,,
1,100080, Note_on_c,0,44,64,,
1,100094, Note_off_c,0,44,0,,
1,100304, Note_off_c,0,44,0,,
1,100320, Note_on_c,0,60,57,,
1,100320, Note_on_c,0,63,57,,
1,100320, Note_on_c,0,68,71,,
1,100795, Note_off_c,0,60,0,,
1,100795, Note_off_c,0,63,0,,
1,100795, Note_off_c,0,68,0,,
1,100800, Note_on_c,0,44,67,,
1,100800, Note_on_c,0,51,67,,
1,100860, Note_on_c,0,55,64,,
1,100860, Note_off_c,0,51,0,,
1,100915, Note_off_c,0,55,0,,
1,100920, Note_on_c,0,56,64,,
1,101028, Note_off_c,0,56,0,,
1,101039, Note_off_c,0,44,0,,
1,101040, Note_on_c,0,44,64,,
1,101263, Note_off_c,0,44,0,,
1,101280, Note_on_c,0,60,57,,
1,101280, Note_on_c,0,63,57,,
1,101280, Note_on_c,0,68,71,,
1,101754, Note_off_c,0,60,0,,
1,101754, Note_off_c,0,63,0,,
1,101754, Note_off_c,0,68,0,,
1,101760, Note_on_c,0,38,60,,
1,101760, Note_on_c,0,46,61,,
1,101760, Note_on_c,0,50,75,,
1,101760, Note_on_c,0,53,61,,
1,101760, Note_on_c,0,58,71,,
1,102240, Note_on_c,0,38,56,,
1,102240, Note_on_c,0,46,57,,
1,102240, Note_on_c,0,50,67,,
1,102240, Note_on_c,0,53,57,,
1,102240, Note_on_c,0,58,67,,
1,102252, Note_off_c,0,38,0,,
1,102252, Note_off_c,0,46,0,,
1,102252, Note_off_c,0,50,0,,
1,102252, Note_off_c,0,53,0,,
1,102252, Note_off_c,0,58,0,,
1,102715, Note_off_c,0,38,0,,
1,102715, Note_off_c,0,46,0,,
1,102715, Note_off_c,0,50,0,,
1,102715, Note_off_c,0,53,0,,
1,102715, Note_off_c,0,58,0,,
1,102720, Note_on_c,0,38,58,,
1,102720, Note_on_c,0,46,59,,
1,102720, Note_on_c,0,50,69,,
1,102720, Note_on_c,0,53,59,,
1,102720, Note_on_c,0,58,69,,
1,102959, Note_off_c,0,38,0,,
1,102959, Note_off_c,0,46,0,,
1,102959, Note_off_c,0,50,0,,
1,102960, Note_on_c,0,38,55,,
1,102960, Note_on_c,0,46,56,,
1,102960, Note_on_c,0,50,66,,
1,103196, Note_off_c,0,53,0,,
1,103196, Note_off_c,0,58,0,,
1,103197, Note_off_c,0,38,0,,
1,103197, Note_off_c,0,46,0,,
1,103197, Note_off_c,0,50,0,,
1,103200, Note_on_c,0,38,56,,
1,103200, Note_on_c,0,46,57,,
1,103200, Note_on_c,0,50,71,,
1,103200, Note_on_c,0,53,57,,
1,103200, Note_on_c,0,58,71,,
1,103674, Note_off_c,0,38,0,,
1,103674, Note_off_c,0,46,0,,
1,103674, Note_off_c,0,50,0,,
1,103674, Note_off_c,0,53,0,,
1,103674, Note_off_c,0,58,0,,
1,103680, Note_on_c,0,44,61,,
1,103680, Note_on_c,0,51,75,,
1,103920, Note_on_c,0,44,56,,
1,103920, Note_on_c,0,51,66,,
1,103934, Note_off_c,0,44,0,,
1,103934, Note_off_c,0,51,0,,
1,104144, Note_off_c,0,44,0,,
1,104158, Note_off_c,0,51,0,,
1,104280, Note_on_c,0,44,56,,
1,104280, Note_on_c,0,51,66,,
1,104634, Note_off_c,0,44,0,,
1,104634, Note_off_c,0,51,0,,
1,104640, Note_on_c,0,44,59,,
1,104640, Note_on_c,0,51,69,,
1,104640, Note_on_c,0,55,59,,
1,104640, Note_on_c,0,67,73,,
1,104995, Note_off_c,0,44,0,,
1,104995, Note_off_c,0,51,0,,
1,105000, Note_on_c,0,44,56,,
1,105000, Note_on_c,0,51,66,,
1,105116, Note_off_c,0,55,0,,
1,105116, Note_off_c,0,67,0,,
1,105120, Note_on_c,0,53,57,,
1,105120, Note_on_c,0,65,71,,
1,105357, Note_off_c,0,44,0,,
1,105357, Note_off_c,0,51,0,,
1,105360, Note_on_c,0,44,56,,
1,105360, Note_on_c,0,51,70,,
1,105583, Note_off_c,0,44,0,,
1,105594, Note_off_c,0,53,0,,
1,105594, Note_off_c,0,65,0,,
1,105598, Note_off_c,0,51,0,,
1,105600, Note_on_c,0,43,61,,
1,105600, Note_on_c,0,50,75,,
1,105600, Note_on_c,0,60,61,,
1,105600, Note_on_c,0,72,75,,
1,105840, Note_on_c,0,43,56,,
1,105840, Note_on_c,0,50,66,,
1,105854, Note_off_c,0,43,0,,
1,105854, Note_off_c,0,50,0,,
1,106064, Note_off_c,0,43,0,,
1,106078, Note_off_c,0,50,0,,
1,106200, Note_on_c,0,43,56,,
1,106200, Note_on_c,0,50,66,,
1,106554, Note_off_c,0,43,0,,
1,106554, Note_off_c,0,50,0,,
1,106560, Note_on_c,0,43,59,,
1,106560, Note_on_c,0,50,69,,
1,106560, Note_on_c,0,60,67,,
1,106568, Note_off_c,0,60,0,,
1,106568, Note_off_c,0,72,0,,
1,106915, Note_off_c,0,43,0,,
1,106915, Note_off_c,0,50,0,,
1,106920, Note_on_c,0,43,56,,
1,106920, Note_on_c,0,50,66,,
1,107036, Note_off_c,0,60,0,,
1,107040, Note_on_c,0,60,65,,
1,107277, Note_off_c,0,43,0,,
1,107277, Note_off_c,0,50,0,,
1,107280, Note_on_c,0,43,56,,
1,107280, Note_on_c,0,50,70,,
1,107503, Note_off_c,0,43,0,,
1,107514, Note_off_c,0,60,0,,
1,107518, Note_off_c,0,50,0,,
1,107520, Note_on_c,0,44,61,,
1,107520, Note_on_c,0,51,75,,
1,107520, Note_on_c,0,67,69,,
1,107760, Note_on_c,0,44,56,,
1,107760, Note_on_c,0,51,66,,
1,107774, Note_off_c,0,44,0,,
1,107774, Note_off_c,0,51,0,,
1,107984, Note_off_c,0,44,0,,
1,107998, Note_off_c,0,51,0,,
1,108120, Note_on_c,0,44,56,,
1,108120, Note_on_c,0,51,66,,
1,108474, Note_off_c,0,44,0,,
1,108474, Note_off_c,0,51,0,,
1,108480, Note_on_c,0,44,59,,
1,108480, Note_on_c,0,51,69,,
1,108480, Note_on_c,0,55,59,,
1,108480, Note_on_c,0,67,73,,
1,108488, Note_off_c,0,67,0,,
1,108835, Note_off_c,0,44,0,,
1,108835, Note_off_c,0,51,0,,
1,108840, Note_on_c,0,44,56,,
1,108840, Note_on_c,0,51,66,,
1,108956, Note_off_c,0,55,0,,
1,108956, Note_off_c,0,67,0,,
1,108960, Note_on_c,0,53,57,,
1,108960, Note_on_c,0,65,71,,
1,109197, Note_off_c,0,44,0,,
1,109197, Note_off_c,0,51,0,,
1,109200, Note_on_c,0,44,56,,
1,109200, Note_on_c,0,51,70,,
1,109423, Note_off_c,0,44,0,,
1,109434, Note_off_c,0,53,0,,
1,109434, Note_off_c,0,65,0,,
1,109438, Note_off_c,0,51,0,,
1,109440, Note_on_c,0,43,61,,
1,109440, Note_on_c,0,50,75,,
1,109440, Note_on_c,0,60,61,,
1,109440, Note_on_c,0,72,75,,
1,109680, Note_on_c,0,43,56,,
1,109680, Note_on_c,0,50,66,,
1,109694, Note_off_c,0,43,0,,
1,109694, Note_off_c,0,50,0,,
1,109904, Note_off_c,0,43,0,,
1,109918, Note_off_c,0,50,0,,
1,110040, Note_on_c,0,43,56,,
1,110040, Note_on_c,0,50,66,,
1,110160, Note_on_c,0,58,56,,
1,110160, Note_on_c,0,70,70,,
1,110169, Note_off_c,0,60,0,,
1,110169, Note_off_c,0,72,0,,
1,110385, Note_off_c,0,58,0,,
1,110394, Note_off_c,0,43,0,,
1,110394, Note_off_c,0,50,0,,
1,110399, Note_off_c,0,70,0,,
1,110400, Note_on_c,0,43,59,,
1,110400, Note_on_c,0,50,69,,
1,110400, Note_on_c,0,60,67,,
1,110755, Note_off_c,0,43,0,,
1,110755, Note_off_c,0,50,0,,
1,110760, Note_on_c,0,43,56,,
1,110760, Note_on_c,0,50,66,,
1,110876, Note_off_c,0,60,0,,
1,110880, Note_on_c,0,60,65,,
1,111117, Note_off_c,0,43,0,,
1,111117, Note_off_c,0,50,0,,
1,111120, Note_on_c,0,43,56,,
1,111120, Note_on_c,0,50,70,,
1,111343, Note_off_c,0,43,0,,
1,111354, Note_off_c,0,60,0,,
1,111358, Note_off_c,0,50,0,,
1,111360, Note_on_c,0,44,61,,
1,111360, Note_on_c,0,51,75,,
1,111360, Note_on_c,0,67,69,,
1,111600, Note_on_c,0,44,56,,
1,111600, Note_on_c,0,51,66,,
1,111614, Note_off_c,0,44,0,,
1,111614, Note_off_c,0,51,0,,
1,111824, Note_off_c,0,44,0,,
1,111838, Note_off_c,0,51,0,,
1,111960, Note_on_c,0,44,56,,
1,111960, Note_on_c,0,51,66,,
1,112080, Note_on_c,0,67,64,,
1,112089, Note_off_c,0,67,0,,
1,112314, Note_off_c,0,44,0,,
1,112314, Note_off_c,0,51,0,,
1,112319, Note_off_c,0,67,0,,
1,112320, Note_on_c,0,44,59,,
1,112320, Note_on_c,0,51,69,,
1,112320, Note_on_c,0,55,59,,
1,112320, Note_on_c,0,67,73,,
1,112675, Note_off_c,0,44,0,,
1,112675, Note_off_c,0,51,0,,
1,112680, Note_on_c,0,44,56,,
1,112680, Note_on_c,0,51,66,,
1,112796, Note_off_c,0,55,0,,
1,112796, Note_off_c,0,67,0,,
1,112800, Note_on_c,0,53,57,,
1,112800, Note_on_c,0,65,71,,
1,113037, Note_off_c,0,44,0,,
1,113037, Note_off_c,0,51,0,,
1,113040, Note_on_c,0,44,56,,
1,113040, Note_on_c,0,51,70,,
1,113263, Note_off_c,0,44,0,,
1,113274, Note_off_c,0,53,0,,
1,113274, Note_off_c,0,65,0,,
1,113278, Note_off_c,0,51,0,,
1,113280, Note_on_c,0,43,61,,
1,113280, Note_on_c,0,50,75,,
1,113280, Note_on_c,0,60,56,,
1,113280, Note_on_c,0,72,70,,
1,113520, Note_on_c,0,43,56,,
1,113520, Note_on_c,0,50,66,,
1,113534, Note_off_c,0,43,0,,
1,113534, Note_off_c,0,50,0,,
1,113744, Note_off_c,0,43,0,,
1,113758, Note_off_c,0,50,0,,
1,113880, Note_on_c,0,43,56,,
1,113880, Note_on_c,0,50,66,,
1,114234, Note_off_c,0,43,0,,
1,114234, Note_off_c,0,50,0,,
1,114240, Note_on_c,0,43,59,,
1,114240, Note_on_c,0,50,69,,
1,114595, Note_off_c,0,43,0,,
1,114595, Note_off_c,0,50,0,,
1,114600, Note_on_c,0,43,56,,
1,114600, Note_on_c,0,50,66,,
1,114720, Note_on_c,0,58,57,,
1,114720, Note_on_c,0,70,71,,
1,114724, Note_off_c,0,60,0,,
1,114724, Note_off_c,0,72,0,,
1,114957, Note_off_c,0,43,0,,
1,114957, Note_off_c,0,50,0,,
1,114960, Note_on_c,0,43,56,,
1,114960, Note_on_c,0,50,70,,
1,115183, Note_off_c,0,43,0,,
1,115194, Note_off_c,0,58,0,,
1,115194, Note_off_c,0,70,0,,
1,115198, Note_off_c,0,50,0,,
1,115200, Note_on_c,0,44,61,,
1,115200, Note_on_c,0,51,61,,
1,115200, Note_on_c,0,56,75,,
1,115200, Note_on_c,0,65,56,,
1,115200, Note_on_c,0,67,56,,
1,115200, Note_on_c,0,74,70,,
1,115440, Note_on_c,0,44,56,,
1,115440, Note_on_c,0,51,56,,
1,115440, Note_on_c,0,56,66,,
1,115454, Note_off_c,0,44,0,,
1,115454, Note_off_c,0,51,0,,
1,115454, Note_off_c,0,56,0,,
1,115664, Note_off_c,0,44,0,,
1,115664, Note_off_c,0,51,0,,
1,115678, Note_off_c,0,56,0,,
1,115800, Note_on_c,0,44,56,,
1,115800, Note_on_c,0,51,56,,
1,115800, Note_on_c,0,56,66,,
1,116154, Note_off_c,0,44,0,,
1,116154, Note_off_c,0,51,0,,
1,116154, Note_off_c,0,56,0,,
1,116160, Note_on_c,0,44,59,,
1,116160, Note_on_c,0,51,59,,
1,116160, Note_on_c,0,56,69,,
1,116515, Note_off_c,0,44,0,,
1,116515, Note_off_c,0,51,0,,
1,116515, Note_off_c,0,56,0,,
1,116520, Note_on_c,0,44,56,,
1,116520, Note_on_c,0,51,56,,
1,116520, Note_on_c,0,56,66,,
1,116877, Note_off_c,0,44,0,,
1,116877, Note_off_c,0,51,0,,
1,116877, Note_off_c,0,56,0,,
1,116880, Note_on_c,0,44,56,,
1,116880, Note_on_c,0,51,56,,
1,116880, Note_on_c,0,56,70,,
1,117103, Note_off_c,0,44,0,,
1,117103, Note_off_c,0,51,0,,
1,117118, Note_off_c,0,56,0,,
1,117120, Note_on_c,0,46,61,,
1,117120, Note_on_c,0,53,61,,
1,117120, Note_on_c,0,58,75,,
1,117600, Note_on_c,0,46,57,,
1,117600, Note_on_c,0,53,57,,
1,117600, Note_on_c,0,58,67,,
1,117612, Note_off_c,0,46,0,,
1,117612, Note_off_c,0,53,0,,
1,117612, Note_off_c,0,58,0,,
1,118075, Note_off_c,0,46,0,,
1,118075, Note_off_c,0,53,0,,
1,118075, Note_off_c,0,58,0,,
1,118080, Note_on_c,0,46,59,,
1,118080, Note_on_c,0,53,59,,
1,118080, Note_on_c,0,58,59,,
1,118080, Note_on_c,0,58,69,,
1,118080, Note_on_c,0,62,59,,
1,118080, Note_on_c,0,65,73,,
1,118088, Note_off_c,0,65,0,,
1,118088, Note_off_c,0,67,0,,
1,118088, Note_off_c,0,74,0,,
1,118319, Note_off_c,0,46,0,,
1,118319, Note_off_c,0,53,0,,
1,118319, Note_off_c,0,58,0,,
1,118319, Note_off_c,0,58,0,,
1,118319, Note_off_c,0,62,0,,
1,118319, Note_off_c,0,65,0,,
1,118320, Note_on_c,0,46,56,,
1,118320, Note_on_c,0,53,56,,
1,118320, Note_on_c,0,58,56,,
1,118320, Note_on_c,0,58,70,,
1,118320, Note_on_c,0,62,56,,
1,118320, Note_on_c,0,65,70,,
1,118429, Note_off_c,0,46,0,,
1,118429, Note_off_c,0,53,0,,
1,118429, Note_off_c,0,58,0,,
1,118436, Note_off_c,0,58,0,,
1,118436, Note_off_c,0,62,0,,
1,118436, Note_off_c,0,65,0,,
1,118440, Note_on_c,0,47,56,,
1,118440, Note_on_c,0,55,56,,
1,118440, Note_on_c,0,59,56,,
1,118440, Note_on_c,0,59,70,,
1,118440, Note_on_c,0,62,56,,
1,118440, Note_on_c,0,67,70,,
1,118783, Note_off_c,0,47,0,,
1,118783, Note_off_c,0,55,0,,
1,118797, Note_off_c,0,59,0,,
1,118800, Note_on_c,0,43,64,,
1,119023, Note_off_c,0,43,0,,
1,119035, Note_off_c,0,59,0,,
1,119035, Note_off_c,0,62,0,,
1,119035, Note_off_c,0,67,0,,
1,119040, Note_on_c,0,36,59,,
1,119040, Note_on_c,0,48,75,,
1,119040, Note_on_c,0,55,61,,
1,119040, Note_on_c,0,60,75,,
1,119280, Note_on_c,0,36,62,,
1,119294, Note_off_c,0,36,0,,
1,119294, Note_off_c,0,48,0,,
1,119504, Note_off_c,0,36,0,,
1,119520, Note_on_c,0,48,65,,
1,119520, Note_on_c,0,55,57,,
1,119520, Note_on_c,0,63,71,,
1,119532, Note_off_c,0,55,0,,
1,119532, Note_off_c,0,60,0,,
1,119742, Note_off_c,0,48,0,,
1,119760, Note_on_c,0,51,64,,
1,119985, Note_off_c,0,51,0,,
1,119995, Note_off_c,0,55,0,,
1,119995, Note_off_c,0,63,0,,
1,120000, Note_on_c,0,41,67,,
1,120000, Note_on_c,0,60,59,,
1,120000, Note_on_c,0,65,73,,
1,120116, Note_off_c,0,41,0,,
1,120120, Note_on_c,0,53,64,,
1,120228, Note_off_c,0,53,0,,
1,120240, Note_on_c,0,41,64,,
1,120355, Note_off_c,0,60,0,,
1,120355, Note_off_c,0,65,0,,
1,120360, Note_on_c,0,60,56,,
1,120360, Note_on_c,0,63,70,,
1,120463, Note_off_c,0,41,0,,
1,120480, Note_on_c,0,53,65,,
1,120702, Note_off_c,0,53,0,,
1,120717, Note_off_c,0,60,0,,
1,120717, Note_off_c,0,63,0,,
1,120720, Note_on_c,0,41,64,,
1,120720, Note_on_c,0,60,56,,
1,120720, Note_on_c,0,65,70,,
1,120943, Note_off_c,0,41,0,,
1,120943, Note_off_c,0,60,0,,
1,120958, Note_off_c,0,65,0,,
1,120960, Note_on_c,0,46,69,,
1,120960, Note_on_c,0,58,72,,
1,120960, Note_on_c,0,62,72,,
1,120960, Note_on_c,0,65,67,,
1,121200, Note_off_c,0,58,0,,
1,121200, Note_on_c,0,46,64,,
1,121200, Note_on_c,0,62,56,,
1,121200, Note_on_c,0,65,70,,
1,121214, Note_off_c,0,46,0,,
1,121214, Note_off_c,0,62,0,,
1,121214, Note_off_c,0,65,0,,
1,121438, Note_off_c,0,46,0,,
1,121438, Note_off_c,0,62,0,,
1,121438, Note_off_c,0,65,0,,
1,121440, Note_on_c,0,46,65,,
1,121440, Note_on_c,0,62,57,,
1,121440, Note_on_c,0,65,57,,
1,121440, Note_on_c,0,70,71,,
1,121662, Note_off_c,0,46,0,,
1,121662, Note_off_c,0,62,0,,
1,121662, Note_off_c,0,65,0,,
1,121676, Note_off_c,0,70,0,,
1,121680, Note_on_c,0,50,64,,
1,121680, Note_on_c,0,68,64,,
1,121905, Note_off_c,0,50,0,,
1,121905, Note_off_c,0,68,0,,
1,121920, Note_on_c,0,39,66,,
1,121920, Note_on_c,0,63,59,,
1,121920, Note_on_c,0,67,73,,
1,122036, Note_off_c,0,39,0,,
1,122036, Note_off_c,0,63,0,,
1,122040, Note_on_c,0,51,64,,
1,122040, Note_on_c,0,65,64,,
1,122043, Note_off_c,0,67,0,,
1,122148, Note_off_c,0,51,0,,
1,122160, Note_on_c,0,39,63,,
1,122258, Note_off_c,0,65,0,,
1,122280, Note_on_c,0,63,56,,
1,122280, Note_on_c,0,67,66,,
1,122397, Note_off_c,0,39,0,,
1,122400, Note_on_c,0,39,56,,
1,122400, Note_on_c,0,51,71,,
1,122622, Note_off_c,0,39,0,,
1,122636, Note_off_c,0,51,0,,
1,122640, Note_on_c,0,38,55,,
1,122640, Note_on_c,0,50,70,,
1,122863, Note_off_c,0,38,0,,
1,122875, Note_off_c,0,63,0,,
1,122875, Note_off_c,0,67,0,,
1,122878, Note_off_c,0,50,0,,
1,122880, Note_on_c,0,36,59,,
1,122880, Note_on_c,0,48,75,,
1,122880, Note_on_c,0,60,61,,
1,122880, Note_on_c,0,63,61,,
1,122880, Note_on_c,0,67,75,,
1,123120, Note_on_c,0,36,54,,
1,123120, Note_on_c,0,48,66,,
1,123134, Note_off_c,0,36,0,,
1,123134, Note_off_c,0,48,0,,
1,123344, Note_off_c,0,36,0,,
1,123358, Note_off_c,0,48,0,,
1,123360, Note_on_c,0,48,65,,
1,123360, Note_on_c,0,63,57,,
1,123360, Note_on_c,0,67,57,,
1,123360, Note_on_c,0,70,71,,
1,123372, Note_off_c,0,60,0,,
1,123372, Note_off_c,0,63,0,,
1,123372, Note_off_c,0,67,0,,
1,123582, Note_off_c,0,48,0,,
1,123600, Note_on_c,0,51,64,,
1,123825, Note_off_c,0,51,0,,
1,123835, Note_off_c,0,63,0,,
1,123835, Note_off_c,0,67,0,,
1,123835, Note_off_c,0,70,0,,
1,123840, Note_on_c,0,41,59,,
1,123840, Note_on_c,0,53,73,,
1,123840, Note_on_c,0,65,59,,
1,123840, Note_on_c,0,68,59,,
1,123840, Note_on_c,0,72,73,,
1,124065, Note_off_c,0,41,0,,
1,124079, Note_off_c,0,53,0,,
1,124080, Note_on_c,0,53,64,,
1,124195, Note_off_c,0,65,0,,
1,124195, Note_off_c,0,68,0,,
1,124195, Note_off_c,0,72,0,,
1,124200, Note_on_c,0,65,64,,
1,124317, Note_off_c,0,53,0,,
1,124320, Note_on_c,0,41,57,,
1,124320, Note_on_c,0,53,71,,
1,124542, Note_off_c,0,41,0,,
1,124542, Note_off_c,0,65,0,,
1,124556, Note_off_c,0,53,0,,
1,124560, Note_on_c,0,36,54,,
1,124560, Note_on_c,0,48,70,,
1,124560, Note_on_c,0,63,64,,
1,124783, Note_off_c,0,36,0,,
1,124783, Note_off_c,0,63,0,,
1,124798, Note_off_c,0,48,0,,
1,124800, Note_on_c,0,46,69,,
1,124800, Note_on_c,0,62,69,,
1,125040, Note_on_c,0,46,64,,
1,125040, Note_on_c,0,62,64,,
1,125054, Note_off_c,0,46,0,,
1,125054, Note_off_c,0,62,0,,
1,125264, Note_off_c,0,46,0,,
1,125264, Note_off_c,0,62,0,,
1,125280, Note_on_c,0,50,65,,
1,125280, Note_on_c,0,60,65,,
1,125502, Note_off_c,0,50,0,,
1,125502, Note_off_c,0,60,0,,
1,125520, Note_on_c,0,53,64,,
1,125520, Note_on_c,0,62,64,,
1,125745, Note_off_c,0,53,0,,
1,125745, Note_off_c,0,62,0,,
1,125760, Note_on_c,0,39,58,,
1,125760, Note_on_c,0,51,73,,
1,125760, Note_on_c,0,65,67,,
1,125876, Note_off_c,0,65,0,,
1,125880, Note_on_c,0,63,64,,
1,125985, Note_off_c,0,39,0,,
1,125999, Note_off_c,0,51,0,,
1,126000, Note_on_c,0,51,64,,
1,126112, Note_off_c,0,63,0,,
1,126120, Note_on_c,0,63,64,,
1,126223, Note_off_c,0,51,0,,
1,126240, Note_on_c,0,39,64,,
1,126354, Note_off_c,0,63,0,,
1,126360, Note_on_c,0,65,64,,
1,126462, Note_off_c,0,39,0,,
1,126469, Note_off_c,0,65,0,,
1,126480, Note_on_c,0,38,63,,
1,126480, Note_on_c,0,67,64,,
1,126589, Note_off_c,0,67,0,,
1,126600, Note_on_c,0,70,64,,
1,126703, Note_off_c,0,38,0,,
1,126714, Note_off_c,0,70,0,,
1,126720, Note_on_c,0,36,59,,
1,126720, Note_on_c,0,48,75,,
1,126720, Note_on_c,0,60,61,,
1,126720, Note_on_c,0,67,61,,
1,126720, Note_on_c,0,72,75,,
1,126960, Note_on_c,0,36,62,,
1,126974, Note_off_c,0,36,0,,
1,126974, Note_off_c,0,48,0,,
1,127184, Note_off_c,0,36,0,,
1,127200, Note_on_c,0,48,65,,
1,127200, Note_on_c,0,55,57,,
1,127200, Note_on_c,0,63,71,,
1,127212, Note_off_c,0,60,0,,
1,127212, Note_off_c,0,67,0,,
1,127212, Note_off_c,0,72,0,,
1,127422, Note_off_c,0,48,0,,
1,127440, Note_on_c,0,51,64,,
1,127665, Note_off_c,0,51,0,,
1,127675, Note_off_c,0,55,0,,
1,127675, Note_off_c,0,63,0,,
1,127680, Note_on_c,0,41,67,,
1,127680, Note_on_c,0,60,59,,
1,127680, Note_on_c,0,65,73,,
1,127796, Note_off_c,0,41,0,,
1,127800, Note_on_c,0,53,64,,
1,127908, Note_off_c,0,53,0,,
1,127920, Note_on_c,0,41,64,,
1,128035, Note_off_c,0,60,0,,
1,128035, Note_off_c,0,65,0,,
1,128040, Note_on_c,0,60,56,,
1,128040, Note_on_c,0,63,70,,
1,128143, Note_off_c,0,41,0,,
1,128160, Note_on_c,0,53,65,,
1,128382, Note_off_c,0,53,0,,
1,128397, Note_off_c,0,60,0,,
1,128397, Note_off_c,0,63,0,,
1,128400, Note_on_c,0,41,64,,
1,128400, Note_on_c,0,60,56,,
1,128400, Note_on_c,0,65,70,,
1,128623, Note_off_c,0,41,0,,
1,128623, Note_off_c,0,60,0,,
1,128638, Note_off_c,0,65,0,,
1,128640, Note_on_c,0,46,69,,
1,128640, Note_on_c,0,58,72,,
1,128640, Note_on_c,0,62,72,,
1,128640, Note_on_c,0,65,67,,
1,128880, Note_off_c,0,58,0,,
1,128880, Note_on_c,0,46,64,,
1,128880, Note_on_c,0,62,56,,
1,128880, Note_on_c,0,65,70,,
1,128894, Note_off_c,0,46,0,,
1,128894, Note_off_c,0,62,0,,
1,128894, Note_off_c,0,65,0,,
1,129104, Note_off_c,0,46,0,,
1,129118, Note_off_c,0,62,0,,
1,129118, Note_off_c,0,65,0,,
1,129120, Note_on_c,0,50,65,,
1,129120, Note_on_c,0,62,57,,
1,129120, Note_on_c,0,65,57,,
1,129120, Note_on_c,0,70,71,,
1,129342, Note_off_c,0,50,0,,
1,129342, Note_off_c,0,62,0,,
1,129342, Note_off_c,0,65,0,,
1,129356, Note_off_c,0,70,0,,
1,129360, Note_on_c,0,53,64,,
1,129360, Note_on_c,0,68,64,,
1,129585, Note_off_c,0,53,0,,
1,129585, Note_off_c,0,68,0,,
1,129600, Note_on_c,0,39,58,,
1,129600, Note_on_c,0,51,73,,
1,129600, Note_on_c,0,63,59,,
1,129600, Note_on_c,0,67,73,,
1,129716, Note_off_c,0,63,0,,
1,129720, Note_on_c,0,65,64,,
1,129723, Note_off_c,0,67,0,,
1,129825, Note_off_c,0,39,0,,
1,129839, Note_off_c,0,51,0,,
1,129840, Note_on_c,0,51,64,,
1,129938, Note_off_c,0,65,0,,
1,129960, Note_on_c,0,63,56,,
1,129960, Note_on_c,0,67,66,,
1,130077, Note_off_c,0,51,0,,
1,130080, Note_on_c,0,39,56,,
1,130080, Note_on_c,0,51,71,,
1,130302, Note_off_c,0,39,0,,
1,130316, Note_off_c,0,51,0,,
1,130320, Note_on_c,0,38,63,,
1,130543, Note_off_c,0,38,0,,
1,130555, Note_off_c,0,63,0,,
1,130555, Note_off_c,0,67,0,,
1,130560, Note_on_c,0,36,59,,
1,130560, Note_on_c,0,48,75,,
1,130560, Note_on_c,0,60,61,,
1,130560, Note_on_c,0,63,61,,
1,130560, Note_on_c,0,67,75,,
1,130800, Note_off_c,0,36,0,,
1,130800, Note_on_c,0,48,64,,
1,130814, Note_off_c,0,48,0,,
1,131038, Note_off_c,0,48,0,,
1,131040, Note_on_c,0,36,55,,
1,131040, Note_on_c,0,48,71,,
1,131040, Note_on_c,0,63,57,,
1,131040, Note_on_c,0,67,57,,
1,131040, Note_on_c,0,70,71,,
1,131052, Note_off_c,0,60,0,,
1,131052, Note_off_c,0,63,0,,
1,131052, Note_off_c,0,67,0,,
1,131262, Note_off_c,0,36,0,,
1,131276, Note_off_c,0,48,0,,
1,131280, Note_on_c,0,48,64,,
1,131505, Note_off_c,0,48,0,,
1,131515, Note_off_c,0,63,0,,
1,131515, Note_off_c,0,67,0,,
1,131515, Note_off_c,0,70,0,,
1,131520, Note_on_c,0,41,59,,
1,131520, Note_on_c,0,53,73,,
1,131520, Note_on_c,0,65,59,,
1,131520, Note_on_c,0,68,59,,
1,131520, Note_on_c,0,72,73,,
1,131745, Note_off_c,0,41,0,,
1,131759, Note_off_c,0,53,0,,
1,131760, Note_on_c,0,53,64,,
1,131875, Note_off_c,0,65,0,,
1,131875, Note_off_c,0,68,0,,
1,131875, Note_off_c,0,72,0,,
1,131880, Note_on_c,0,65,64,,
1,131997, Note_off_c,0,53,0,,
1,132000, Note_on_c,0,41,57,,
1,132000, Note_on_c,0,53,71,,
1,132222, Note_off_c,0,41,0,,
1,132222, Note_off_c,0,65,0,,
1,132236, Note_off_c,0,53,0,,
1,132240, Note_on_c,0,53,64,,
1,132240, Note_on_c,0,63,64,,
1,132463, Note_off_c,0,53,0,,
1,132463, Note_off_c,0,63,0,,
1,132480, Note_on_c,0,46,61,,
1,132480, Note_on_c,0,58,71,,
1,132480, Note_on_c,0,62,61,,
1,132480, Note_on_c,0,70,71,,
1,132720, Note_on_c,0,46,56,,
1,132720, Note_on_c,0,58,70,,
1,132720, Note_on_c,0,62,56,,
1,132720, Note_on_c,0,70,70,,
1,132734, Note_off_c,0,46,0,,
1,132734, Note_off_c,0,58,0,,
1,132734, Note_off_c,0,62,0,,
1,132734, Note_off_c,0,70,0,,
1,132944, Note_off_c,0,46,0,,
1,132944, Note_off_c,0,62,0,,
1,132958, Note_off_c,0,58,0,,
1,132958, Note_off_c,0,70,0,,
1,132960, Note_on_c,0,43,57,,
1,132960, Note_on_c,0,55,71,,
1,132960, Note_on_c,0,58,57,,
1,132960, Note_on_c,0,67,71,,
1,133182, Note_off_c,0,43,0,,
1,133182, Note_off_c,0,58,0,,
1,133196, Note_off_c,0,55,0,,
1,133196, Note_off_c,0,67,0,,
1,133200, Note_on_c,0,46,56,,
1,133200, Note_on_c,0,58,70,,
1,133200, Note_on_c,0,63,56,,
1,133200, Note_on_c,0,70,70,,
1,133439, Note_off_c,0,46,0,,
1,133439, Note_off_c,0,58,0,,
1,133439, Note_off_c,0,63,0,,
1,133439, Note_off_c,0,70,0,,
1,133440, Note_on_c,0,46,59,,
1,133440, Note_on_c,0,58,73,,
1,133440, Note_on_c,0,63,59,,
1,133440, Note_on_c,0,70,73,,
1,133795, Note_off_c,0,46,0,,
1,133795, Note_off_c,0,58,0,,
1,133795, Note_off_c,0,63,0,,
1,133795, Note_off_c,0,70,0,,
1,133800, Note_on_c,0,48,56,,
1,133800, Note_on_c,0,60,70,,
1,133800, Note_on_c,0,63,56,,
1,133800, Note_on_c,0,72,70,,
1,134395, Note_off_c,0,48,0,,
1,134395, Note_off_c,0,60,0,,
1,134395, Note_off_c,0,63,0,,
1,134395, Note_off_c,0,72,0,,
1,134400, Note_on_c,0,39,68,,
1,134400, Note_on_c,0,55,61,,
1,134400, Note_on_c,0,58,61,,
1,134400, Note_on_c,0,63,75,,
1,134640, Note_off_c,0,39,0,,
1,134640, Note_on_c,0,46,64,,
1,134864, Note_off_c,0,46,0,,
1,134880, Note_on_c,0,51,57,,
1,134880, Note_on_c,0,55,71,,
1,134880, Note_on_c,0,63,65,,
1,134892, Note_off_c,0,55,0,,
1,134892, Note_off_c,0,58,0,,
1,134892, Note_off_c,0,63,0,,
1,135102, Note_off_c,0,51,0,,
1,135102, Note_off_c,0,63,0,,
1,135116, Note_off_c,0,55,0,,
1,135120, Note_on_c,0,46,64,,
1,135120, Note_on_c,0,58,64,,
1,135236, Note_off_c,0,58,0,,
1,135240, Note_on_c,0,58,64,,
1,135345, Note_off_c,0,46,0,,
1,135360, Note_on_c,0,39,66,,
1,135585, Note_off_c,0,39,0,,
1,135600, Note_on_c,0,46,64,,
1,135823, Note_off_c,0,46,0,,
1,135840, Note_on_c,0,51,57,,
1,135840, Note_on_c,0,55,71,,
1,136075, Note_off_c,0,58,0,,
1,136080, Note_on_c,0,63,64,,
1,136314, Note_off_c,0,51,0,,
1,136314, Note_off_c,0,55,0,,
1,136318, Note_off_c,0,63,0,,
1,136320, Note_on_c,0,46,69,,
1,136320, Note_on_c,0,63,69,,
1,136560, Note_off_c,0,46,0,,
1,136560, Note_on_c,0,53,64,,
1,136680, Note_on_c,0,65,64,,
1,136691, Note_off_c,0,63,0,,
1,136784, Note_off_c,0,53,0,,
1,136800, Note_on_c,0,58,65,,
1,137022, Note_off_c,0,58,0,,
1,137024, Note_off_c,0,65,0,,
1,137040, Note_on_c,0,53,64,,
1,137040, Note_on_c,0,58,64,,
1,137265, Note_off_c,0,53,0,,
1,137279, Note_off_c,0,58,0,,
1,137280, Note_on_c,0,46,67,,
1,137280, Note_on_c,0,58,67,,
1,137505, Note_off_c,0,46,0,,
1,137520, Note_on_c,0,53,64,,
1,137743, Note_off_c,0,53,0,,
1,137760, Note_on_c,0,58,65,,
1,137992, Note_off_c,0,58,0,,
1,138000, Note_on_c,0,58,64,,
1,138220, Note_off_c,0,58,0,,
1,138238, Note_off_c,0,58,0,,
1,138240, Note_on_c,0,48,69,,
1,138240, Note_on_c,0,67,69,,
1,138480, Note_off_c,0,48,0,,
1,138480, Note_on_c,0,55,64,,
1,138600, Note_on_c,0,68,64,,
1,138611, Note_off_c,0,67,0,,
1,138704, Note_off_c,0,55,0,,
1,138720, Note_on_c,0,60,57,,
1,138720, Note_on_c,0,63,71,,
1,138944, Note_off_c,0,68,0,,
1,138960, Note_on_c,0,67,64,,
1,139185, Note_off_c,0,67,0,,
1,139195, Note_off_c,0,60,0,,
1,139195, Note_off_c,0,63,0,,
1,139200, Note_on_c,0,46,67,,
1,139200, Note_on_c,0,65,67,,
1,139425, Note_off_c,0,46,0,,
1,139440, Note_on_c,0,53,64,,
1,139555, Note_off_c,0,65,0,,
1,139560, Note_on_c,0,63,64,,
1,139663, Note_off_c,0,53,0,,
1,139680, Note_on_c,0,58,57,,
1,139680, Note_on_c,0,62,71,,
1,139903, Note_off_c,0,63,0,,
1,139920, Note_on_c,0,65,64,,
1,140143, Note_off_c,0,65,0,,
1,140154, Note_off_c,0,58,0,,
1,140154, Note_off_c,0,62,0,,
1,140160, Note_on_c,0,44,69,,
1,140160, Note_on_c,0,67,69,,
1,140400, Note_off_c,0,44,0,,
1,140400, Note_on_c,0,51,64,,
1,140520, Note_on_c,0,68,64,,
1,140531, Note_off_c,0,67,0,,
1,140624, Note_off_c,0,51,0,,
1,140640, Note_on_c,0,56,57,,
1,140640, Note_on_c,0,60,71,,
1,140864, Note_off_c,0,68,0,,
1,140880, Note_on_c,0,67,64,,
1,141105, Note_off_c,0,67,0,,
1,141115, Note_off_c,0,56,0,,
1,141115, Note_off_c,0,60,0,,
1,141120, Note_on_c,0,44,67,,
1,141120, Note_on_c,0,60,67,,
1,141345, Note_off_c,0,44,0,,
1,141360, Note_on_c,0,51,64,,
1,141583, Note_off_c,0,51,0,,
1,141600, Note_on_c,0,56,57,,
1,141600, Note_on_c,0,60,71,,
1,141822, Note_off_c,0,56,0,,
1,141832, Note_off_c,0,60,0,,
1,141836, Note_off_c,0,60,0,,
1,141840, Note_on_c,0,51,64,,
1,141840, Note_on_c,0,60,64,,
1,141949, Note_off_c,0,60,0,,
1,141960, Note_on_c,0,62,64,,
1,142063, Note_off_c,0,51,0,,
1,142074, Note_off_c,0,62,0,,
1,142080, Note_on_c,0,46,69,,
1,142080, Note_on_c,0,63,69,,
1,142320, Note_off_c,0,46,0,,
1,142320, Note_on_c,0,53,64,,
1,142440, Note_on_c,0,63,64,,
1,142451, Note_off_c,0,63,0,,
1,142544, Note_off_c,0,53,0,,
1,142560, Note_on_c,0,58,57,,
1,142560, Note_on_c,0,62,71,,
1,142784, Note_off_c,0,63,0,,
1,142800, Note_on_c,0,62,64,,
1,143035, Note_off_c,0,58,0,,
1,143035, Note_off_c,0,62,0,,
1,143039, Note_off_c,0,62,0,,
1,143040, Note_on_c,0,46,67,,
1,143040, Note_on_c,0,62,67,,
1,143265, Note_off_c,0,46,0,,
1,143280, Note_on_c,0,53,64,,
1,143503, Note_off_c,0,53,0,,
1,143520, Note_on_c,0,58,57,,
1,143520, Note_on_c,0,62,71,,
1,143742, Note_off_c,0,58,0,,
1,143752, Note_off_c,0,62,0,,
1,143756, Note_off_c,0,62,0,,
1,143760, Note_on_c,0,53,64,,
1,143760, Note_on_c,0,63,64,,
1,143869, Note_off_c,0,63,0,,
1,143880, Note_on_c,0,65,64,,
1,143983, Note_off_c,0,53,0,,
1,143994, Note_off_c,0,65,0,,
1,144000, Note_on_c,0,51,69,,
1,144000, Note_on_c,0,68,69,,
1,144240, Note_off_c,0,51,0,,
1,144240, Note_on_c,0,58,64,,
1,144360, Note_on_c,0,67,64,,
1,144371, Note_off_c,0,68,0,,
1,144464, Note_off_c,0,58,0,,
1,144480, Note_on_c,0,63,65,,
1,144702, Note_off_c,0,63,0,,
1,144704, Note_off_c,0,67,0,,
1,144720, Note_on_c,0,58,64,,
1,144720, Note_on_c,0,65,64,,
1,144945, Note_off_c,0,58,0,,
1,144945, Note_off_c,0,65,0,,
1,144960, Note_on_c,0,48,67,,
1,144960, Note_on_c,0,63,67,,
1,145185, Note_off_c,0,48,0,,
1,145200, Note_on_c,0,55,64,,
1,145423, Note_off_c,0,55,0,,
1,145440, Note_on_c,0,60,57,,
1,145440, Note_on_c,0,63,71,,
1,145672, Note_off_c,0,63,0,,
1,145680, Note_on_c,0,67,64,,
1,145914, Note_off_c,0,60,0,,
1,145914, Note_off_c,0,63,0,,
1,145918, Note_off_c,0,67,0,,
1,145920, Note_on_c,0,45,69,,
1,145920, Note_on_c,0,67,69,,
1,146160, Note_off_c,0,45,0,,
1,146160, Note_on_c,0,53,64,,
1,146280, Note_on_c,0,65,64,,
1,146291, Note_off_c,0,67,0,,
1,146384, Note_off_c,0,53,0,,
1,146400, Note_on_c,0,57,57,,
1,146400, Note_on_c,0,60,71,,
1,146622, Note_off_c,0,57,0,,
1,146624, Note_off_c,0,65,0,,
1,146636, Note_off_c,0,60,0,,
1,146640, Note_on_c,0,53,64,,
1,146640, Note_on_c,0,64,64,,
1,146865, Note_off_c,0,53,0,,
1,146865, Note_off_c,0,64,0,,
1,146880, Note_on_c,0,45,67,,
1,146880, Note_on_c,0,65,67,,
1,147105, Note_off_c,0,45,0,,
1,147120, Note_on_c,0,48,64,,
1,147343, Note_off_c,0,48,0,,
1,147356, Note_off_c,0,65,0,,
1,147360, Note_on_c,0,53,65,,
1,147360, Note_on_c,0,60,65,,
1,147582, Note_off_c,0,53,0,,
1,147600, Note_on_c,0,48,64,,
1,147823, Note_off_c,0,48,0,,
1,147834, Note_off_c,0,60,0,,
1,147840, Note_on_c,0,43,69,,
1,147840, Note_on_c,0,60,69,,
1,147960, Note_on_c,0,47,64,,
1,147970, Note_off_c,0,43,0,,
1,148069, Note_off_c,0,47,0,,
1,148080, Note_on_c,0,50,64,,
1,148190, Note_off_c,0,50,0,,
1,148200, Note_on_c,0,55,64,,
1,148314, Note_off_c,0,55,0,,
1,148320, Note_on_c,0,59,65,,
1,148434, Note_off_c,0,59,0,,
1,148440, Note_on_c,0,55,64,,
1,148548, Note_off_c,0,55,0,,
1,148560, Note_on_c,0,50,64,,
1,148560, Note_on_c,0,62,64,,
1,148569, Note_off_c,0,60,0,,
1,148669, Note_off_c,0,50,0,,
1,148680, Note_on_c,0,47,64,,
1,148795, Note_off_c,0,47,0,,
1,148799, Note_off_c,0,62,0,,
1,148800, Note_on_c,0,43,67,,
1,148800, Note_on_c,0,62,67,,
1,149025, Note_off_c,0,43,0,,
1,149040, Note_on_c,0,50,64,,
1,149263, Note_off_c,0,50,0,,
1,149280, Note_on_c,0,55,57,,
1,149280, Note_on_c,0,59,71,,
1,149750, Note_off_c,0,62,0,,
1,149754, Note_off_c,0,55,0,,
1,149754, Note_off_c,0,59,0,,
1,149760, Note_on_c,0,39,68,,
1,149760, Note_on_c,0,55,61,,
1,149760, Note_on_c,0,58,61,,
1,149760, Note_on_c,0,63,75,,
1,150000, Note_off_c,0,39,0,,
1,150000, Note_on_c,0,46,64,,
1,150224, Note_off_c,0,46,0,,
1,150240, Note_on_c,0,51,57,,
1,150240, Note_on_c,0,55,71,,
1,150240, Note_on_c,0,63,65,,
1,150252, Note_off_c,0,55,0,,
1,150252, Note_off_c,0,58,0,,
1,150252, Note_off_c,0,63,0,,
1,150462, Note_off_c,0,51,0,,
1,150462, Note_off_c,0,63,0,,
1,150476, Note_off_c,0,55,0,,
1,150480, Note_on_c,0,46,64,,
1,150480, Note_on_c,0,58,64,,
1,150596, Note_off_c,0,58,0,,
1,150600, Note_on_c,0,58,64,,
1,150705, Note_off_c,0,46,0,,
1,150720, Note_on_c,0,39,66,,
1,150945, Note_off_c,0,39,0,,
1,150960, Note_on_c,0,46,64,,
1,151183, Note_off_c,0,46,0,,
1,151200, Note_on_c,0,51,57,,
1,151200, Note_on_c,0,55,71,,
1,151422, Note_off_c,0,51,0,,
1,151435, Note_off_c,0,58,0,,
1,151436, Note_off_c,0,55,0,,
1,151440, Note_on_c,0,46,64,,
1,151440, Note_on_c,0,63,64,,
1,151678, Note_off_c,0,46,0,,
1,151678, Note_off_c,0,63,0,,
1,151680, Note_on_c,0,46,69,,
1,151680, Note_on_c,0,63,69,,
1,151920, Note_off_c,0,46,0,,
1,151920, Note_on_c,0,53,64,,
1,152040, Note_on_c,0,65,64,,
1,152051, Note_off_c,0,63,0,,
1,152144, Note_off_c,0,53,0,,
1,152160, Note_on_c,0,58,65,,
1,152382, Note_off_c,0,58,0,,
1,152384, Note_off_c,0,65,0,,
1,152400, Note_on_c,0,53,64,,
1,152400, Note_on_c,0,58,64,,
1,152625, Note_off_c,0,53,0,,
1,152639, Note_off_c,0,58,0,,
1,152640, Note_on_c,0,46,67,,
1,152640, Note_on_c,0,58,67,,
1,152865, Note_off_c,0,46,0,,
1,152880, Note_on_c,0,53,64,,
1,153103, Note_off_c,0,53,0,,
1,153120, Note_on_c,0,58,65,,
1,153338, Note_off_c,0,58,0,,
1,153356, Note_off_c,0,58,0,,
1,153360, Note_on_c,0,53,64,,
1,153360, Note_on_c,0,58,64,,
1,153583, Note_off_c,0,53,0,,
1,153583, Note_off_c,0,58,0,,
1,153600, Note_on_c,0,48,69,,
1,153600, Note_on_c,0,67,69,,
1,153840, Note_off_c,0,48,0,,
1,153840, Note_on_c,0,55,64,,
1,153960, Note_on_c,0,68,64,,
1,153971, Note_off_c,0,67,0,,
1,154064, Note_off_c,0,55,0,,
1,154080, Note_on_c,0,60,57,,
1,154080, Note_on_c,0,63,71,,
1,154302, Note_off_c,0,60,0,,
1,154304, Note_off_c,0,68,0,,
1,154316, Note_off_c,0,63,0,,
1,154320, Note_on_c,0,55,64,,
1,154320, Note_on_c,0,67,64,,
1,154545, Note_off_c,0,55,0,,
1,154545, Note_off_c,0,67,0,,
1,154560, Note_on_c,0,46,67,,
1,154560, Note_on_c,0,65,67,,
1,154785, Note_off_c,0,46,0,,
1,154800, Note_on_c,0,53,64,,
1,154915, Note_off_c,0,65,0,,
1,154920, Note_on_c,0,63,64,,
1,155023, Note_off_c,0,53,0,,
1,155040, Note_on_c,0,58,57,,
1,155040, Note_on_c,0,62,71,,
1,155262, Note_off_c,0,58,0,,
1,155262, Note_off_c,0,63,0,,
1,155276, Note_off_c,0,62,0,,
1,155280, Note_on_c,0,53,64,,
1,155280, Note_on_c,0,65,64,,
1,155503, Note_off_c,0,53,0,,
1,155503, Note_off_c,0,65,0,,
1,155520, Note_on_c,0,44,69,,
1,155520, Note_on_c,0,67,69,,
1,155760, Note_off_c,0,44,0,,
1,155760, Note_on_c,0,51,64,,
1,155880, Note_on_c,0,68,64,,
1,155891, Note_off_c,0,67,0,,
1,155984, Note_off_c,0,51,0,,
1,156000, Note_on_c,0,56,57,,
1,156000, Note_on_c,0,60,71,,
1,156222, Note_off_c,0,56,0,,
1,156224, Note_off_c,0,68,0,,
1,156236, Note_off_c,0,60,0,,
1,156240, Note_on_c,0,51,64,,
1,156240, Note_on_c,0,67,64,,
1,156465, Note_off_c,0,51,0,,
1,156465, Note_off_c,0,67,0,,
1,156480, Note_on_c,0,44,67,,
1,156480, Note_on_c,0,60,67,,
1,156705, Note_off_c,0,44,0,,
1,156720, Note_on_c,0,51,64,,
1,156943, Note_off_c,0,51,0,,
1,156960, Note_on_c,0,56,57,,
1,156960, Note_on_c,0,60,71,,
1,157182, Note_off_c,0,56,0,,
1,157192, Note_off_c,0,60,0,,
1,157196, Note_off_c,0,60,0,,
1,157200, Note_on_c,0,51,64,,
1,157200, Note_on_c,0,60,64,,
1,157309, Note_off_c,0,60,0,,
1,157320, Note_on_c,0,62,64,,
1,157423, Note_off_c,0,51,0,,
1,157434, Note_off_c,0,62,0,,
1,157440, Note_on_c,0,46,69,,
1,157440, Note_on_c,0,63,69,,
1,157680, Note_off_c,0,46,0,,
1,157680, Note_on_c,0,53,64,,
1,157800, Note_on_c,0,63,64,,
1,157811, Note_off_c,0,63,0,,
1,157904, Note_off_c,0,53,0,,
1,157920, Note_on_c,0,58,57,,
1,157920, Note_on_c,0,62,71,,
1,158142, Note_off_c,0,58,0,,
1,158144, Note_off_c,0,63,0,,
1,158156, Note_off_c,0,62,0,,
1,158160, Note_on_c,0,53,64,,
1,158160, Note_on_c,0,62,64,,
1,158385, Note_off_c,0,53,0,,
1,158399, Note_off_c,0,62,0,,
1,158400, Note_on_c,0,46,67,,
1,158400, Note_on_c,0,62,67,,
1,158625, Note_off_c,0,46,0,,
1,158640, Note_on_c,0,53,64,,
1,158863, Note_off_c,0,53,0,,
1,158880, Note_on_c,0,58,57,,
1,158880, Note_on_c,0,62,71,,
1,159102, Note_off_c,0,58,0,,
1,159112, Note_off_c,0,62,0,,
1,159116, Note_off_c,0,62,0,,
1,159120, Note_on_c,0,53,64,,
1,159120, Note_on_c,0,63,64,,
1,159229, Note_off_c,0,63,0,,
1,159240, Note_on_c,0,65,64,,
1,159343, Note_off_c,0,53,0,,
1,159354, Note_off_c,0,65,0,,
1,159360, Note_on_c,0,51,69,,
1,159360, Note_on_c,0,68,69,,
1,159600, Note_off_c,0,51,0,,
1,159600, Note_on_c,0,58,64,,
1,159720, Note_on_c,0,67,64,,
1,159731, Note_off_c,0,68,0,,
1,159824, Note_off_c,0,58,0,,
1,159840, Note_on_c,0,63,65,,
1,160062, Note_off_c,0,63,0,,
1,160064, Note_off_c,0,67,0,,
1,160080, Note_on_c,0,58,64,,
1,160080, Note_on_c,0,65,64,,
1,160305, Note_off_c,0,58,0,,
1,160305, Note_off_c,0,65,0,,
1,160320, Note_on_c,0,48,67,,
1,160320, Note_on_c,0,63,67,,
1,160545, Note_off_c,0,48,0,,
1,160560, Note_on_c,0,55,64,,
1,160783, Note_off_c,0,55,0,,
1,160800, Note_on_c,0,60,57,,
1,160800, Note_on_c,0,63,71,,
1,161022, Note_off_c,0,60,0,,
1,161032, Note_off_c,0,63,0,,
1,161036, Note_off_c,0,63,0,,
1,161040, Note_on_c,0,55,64,,
1,161040, Note_on_c,0,67,64,,
1,161263, Note_off_c,0,55,0,,
1,161278, Note_off_c,0,67,0,,
1,161280, Note_on_c,0,45,69,,
1,161280, Note_on_c,0,67,69,,
1,161520, Note_off_c,0,45,0,,
1,161520, Note_on_c,0,53,64,,
1,161640, Note_on_c,0,65,64,,
1,161651, Note_off_c,0,67,0,,
1,161744, Note_off_c,0,53,0,,
1,161760, Note_on_c,0,57,57,,
1,161760, Note_on_c,0,60,71,,
1,161982, Note_off_c,0,57,0,,
1,161984, Note_off_c,0,65,0,,
1,161996, Note_off_c,0,60,0,,
1,162000, Note_on_c,0,53,64,,
1,162000, Note_on_c,0,64,64,,
1,162225, Note_off_c,0,53,0,,
1,162225, Note_off_c,0,64,0,,
1,162240, Note_on_c,0,45,67,,
1,162240, Note_on_c,0,65,67,,
1,162465, Note_off_c,0,45,0,,
1,162480, Note_on_c,0,53,64,,
1,162595, Note_off_c,0,65,0,,
1,162600, Note_on_c,0,67,64,,
1,162703, Note_off_c,0,53,0,,
1,162720, Note_on_c,0,57,57,,
1,162720, Note_on_c,0,60,71,,
1,162942, Note_off_c,0,57,0,,
1,162942, Note_off_c,0,67,0,,
1,162956, Note_off_c,0,60,0,,
1,162960, Note_on_c,0,53,64,,
1,162960, Note_on_c,0,68,64,,
1,163183, Note_off_c,0,53,0,,
1,163183, Note_off_c,0,68,0,,
1,163200, Note_on_c,0,43,61,,
1,163200, Note_on_c,0,55,75,,
1,163200, Note_on_c,0,67,69,,
1,163680, Note_on_c,0,43,57,,
1,163680, Note_on_c,0,50,71,,
1,163680, Note_on_c,0,55,57,,
1,163680, Note_on_c,0,59,71,,
1,163692, Note_off_c,0,43,0,,
1,163692, Note_off_c,0,55,0,,
1,163692, Note_off_c,0,67,0,,
1,164155, Note_off_c,0,43,0,,
1,164155, Note_off_c,0,50,0,,
1,164155, Note_off_c,0,55,0,,
1,164155, Note_off_c,0,59,0,,
1,164160, Note_on_c,0,43,59,,
1,164160, Note_on_c,0,50,59,,
1,164160, Note_on_c,0,53,73,,
1,164160, Note_on_c,0,55,59,,
1,164160, Note_on_c,0,60,73,,
1,164399, Note_off_c,0,43,0,,
1,164399, Note_off_c,0,50,0,,
1,164399, Note_off_c,0,53,0,,
1,164399, Note_off_c,0,55,0,,
1,164399, Note_off_c,0,60,0,,
1,164400, Note_on_c,0,43,56,,
1,164400, Note_on_c,0,50,56,,
1,164400, Note_on_c,0,53,66,,
1,164400, Note_on_c,0,55,56,,
1,164400, Note_on_c,0,60,70,,
1,164623, Note_off_c,0,55,0,,
1,164637, Note_off_c,0,43,0,,
1,164637, Note_off_c,0,50,0,,
1,164637, Note_off_c,0,53,0,,
1,164637, Note_off_c,0,60,0,,
1,164640, Note_on_c,0,43,57,,
1,164640, Note_on_c,0,50,57,,
1,164640, Note_on_c,0,53,67,,
1,164640, Note_on_c,0,59,57,,
1,164640, Note_on_c,0,62,71,,
1,165114, Note_off_c,0,43,0,,
1,165114, Note_off_c,0,50,0,,
1,165114, Note_off_c,0,53,0,,
1,165114, Note_off_c,0,59,0,,
1,165114, Note_off_c,0,62,0,,
1,165120, Note_on_c,0,44,69,,
1,165120, Note_on_c,0,60,61,,
1,165120, Note_on_c,0,63,75,,
1,165360, Note_off_c,0,44,0,,
1,165360, Note_on_c,0,51,64,,
1,165480, Note_on_c,0,60,56,,
1,165480, Note_on_c,0,63,66,,
1,165491, Note_off_c,0,60,0,,
1,165491, Note_off_c,0,63,0,,
1,165584, Note_off_c,0,51,0,,
1,165600, Note_on_c,0,56,65,,
1,165822, Note_off_c,0,56,0,,
1,165824, Note_off_c,0,60,0,,
1,165838, Note_off_c,0,63,0,,
1,165840, Note_on_c,0,51,64,,
1,165840, Note_on_c,0,58,56,,
1,165840, Note_on_c,0,62,70,,
1,166065, Note_off_c,0,51,0,,
1,166065, Note_off_c,0,58,0,,
1,166079, Note_off_c,0,62,0,,
1,166080, Note_on_c,0,44,67,,
1,166080, Note_on_c,0,60,59,,
1,166080, Note_on_c,0,63,73,,
1,166305, Note_off_c,0,44,0,,
1,166320, Note_on_c,0,51,64,,
1,166435, Note_off_c,0,60,0,,
1,166435, Note_off_c,0,63,0,,
1,166440, Note_on_c,0,60,56,,
1,166440, Note_on_c,0,63,66,,
1,166543, Note_off_c,0,51,0,,
1,166560, Note_on_c,0,56,65,,
1,166782, Note_off_c,0,56,0,,
1,166782, Note_off_c,0,60,0,,
1,166797, Note_off_c,0,63,0,,
1,166800, Note_on_c,0,51,64,,
1,166800, Note_on_c,0,58,56,,
1,166800, Note_on_c,0,62,70,,
1,167023, Note_off_c,0,51,0,,
1,167038, Note_off_c,0,58,0,,
1,167038, Note_off_c,0,62,0,,
1,167040, Note_on_c,0,43,69,,
1,167040, Note_on_c,0,58,61,,
1,167040, Note_on_c,0,65,75,,
1,167280, Note_off_c,0,43,0,,
1,167280, Note_on_c,0,50,64,,
1,167400, Note_on_c,0,58,56,,
1,167400, Note_on_c,0,65,66,,
1,167411, Note_off_c,0,58,0,,
1,167411, Note_off_c,0,65,0,,
1,167504, Note_off_c,0,50,0,,
1,167520, Note_on_c,0,55,65,,
1,167742, Note_off_c,0,55,0,,
1,167744, Note_off_c,0,58,0,,
1,167758, Note_off_c,0,65,0,,
1,167760, Note_on_c,0,50,64,,
1,167760, Note_on_c,0,63,64,,
1,167985, Note_off_c,0,50,0,,
1,167985, Note_off_c,0,63,0,,
1,168000, Note_on_c,0,36,65,,
1,168000, Note_on_c,0,60,59,,
1,168000, Note_on_c,0,62,73,,
1,168225, Note_off_c,0,36,0,,
1,168240, Note_on_c,0,43,64,,
1,168355, Note_off_c,0,60,0,,
1,168355, Note_off_c,0,62,0,,
1,168360, Note_on_c,0,60,64,,
1,168463, Note_off_c,0,43,0,,
1,168480, Note_on_c,0,48,65,,
1,168702, Note_off_c,0,48,0,,
1,168702, Note_off_c,0,60,0,,
1,168720, Note_on_c,0,43,64,,
1,168720, Note_on_c,0,58,56,,
1,168720, Note_on_c,0,62,70,,
1,168943, Note_off_c,0,43,0,,
1,168943, Note_off_c,0,58,0,,
1,168958, Note_off_c,0,62,0,,
1,168960, Note_on_c,0,44,69,,
1,168960, Note_on_c,0,60,61,,
1,168960, Note_on_c,0,63,75,,
1,169200, Note_off_c,0,44,0,,
1,169200, Note_on_c,0,51,64,,
1,169320, Note_on_c,0,60,56,,
1,169320, Note_on_c,0,63,66,,
1,169331, Note_off_c,0,60,0,,
1,169331, Note_off_c,0,63,0,,
1,169424, Note_off_c,0,51,0,,
1,169440, Note_on_c,0,56,65,,
1,169662, Note_off_c,0,56,0,,
1,169664, Note_off_c,0,60,0,,
1,169678, Note_off_c,0,63,0,,
1,169680, Note_on_c,0,51,64,,
1,169680, Note_on_c,0,58,56,,
1,169680, Note_on_c,0,62,70,,
1,169905, Note_off_c,0,51,0,,
1,169905, Note_off_c,0,58,0,,
1,169919, Note_off_c,0,62,0,,
1,169920, Note_on_c,0,46,67,,
1,169920, Note_on_c,0,62,59,,
1,169920, Note_on_c,0,65,73,,
1,170145, Note_off_c,0,46,0,,
1,170160, Note_on_c,0,53,64,,
1,170275, Note_off_c,0,62,0,,
1,170275, Note_off_c,0,65,0,,
1,170280, Note_on_c,0,62,64,,
1,170383, Note_off_c,0,53,0,,
1,170400, Note_on_c,0,58,65,,
1,170622, Note_off_c,0,58,0,,
1,170622, Note_off_c,0,62,0,,
1,170640, Note_on_c,0,53,64,,
1,170640, Note_on_c,0,60,64,,
1,170863, Note_off_c,0,53,0,,
1,170863, Note_off_c,0,60,0,,
1,170880, Note_on_c,0,39,68,,
1,170880, Note_on_c,0,53,61,,
1,170880, Note_on_c,0,58,75,,
1,171120, Note_off_c,0,39,0,,
1,171120, Note_on_c,0,46,64,,
1,171344, Note_off_c,0,46,0,,
1,171360, Note_on_c,0,51,65,,
1,171360, Note_on_c,0,55,65,,
1,171372, Note_off_c,0,53,0,,
1,171372, Note_off_c,0,58,0,,
1,171582, Note_off_c,0,51,0,,
1,171600, Note_on_c,0,46,64,,
1,171825, Note_off_c,0,46,0,,
1,171835, Note_off_c,0,55,0,,
1,171840, Note_on_c,0,39,66,,
1,171840, Note_on_c,0,56,67,,
1,172065, Note_off_c,0,39,0,,
1,172080, Note_on_c,0,46,64,,
1,172303, Note_off_c,0,46,0,,
1,172316, Note_off_c,0,56,0,,
1,172320, Note_on_c,0,51,65,,
1,172320, Note_on_c,0,58,65,,
1,172542, Note_off_c,0,51,0,,
1,172560, Note_on_c,0,46,64,,
1,172783, Note_off_c,0,46,0,,
1,172794, Note_off_c,0,58,0,,
1,172800, Note_on_c,0,44,69,,
1,172800, Note_on_c,0,60,61,,
1,172800, Note_on_c,0,63,71,,
1,173040, Note_off_c,0,44,0,,
1,173040, Note_on_c,0,51,64,,
1,173160, Note_on_c,0,60,56,,
1,173160, Note_on_c,0,63,66,,
1,173171, Note_off_c,0,60,0,,
1,173171, Note_off_c,0,63,0,,
1,173264, Note_off_c,0,51,0,,
1,173280, Note_on_c,0,56,65,,
1,173502, Note_off_c,0,56,0,,
1,173504, Note_off_c,0,60,0,,
1,173518, Note_off_c,0,63,0,,
1,173520, Note_on_c,0,51,64,,
1,173520, Note_on_c,0,58,56,,
1,173520, Note_on_c,0,62,70,,
1,173745, Note_off_c,0,51,0,,
1,173745, Note_off_c,0,58,0,,
1,173759, Note_off_c,0,62,0,,
1,173760, Note_on_c,0,44,67,,
1,173760, Note_on_c,0,60,59,,
1,173760, Note_on_c,0,63,73,,
1,173985, Note_off_c,0,44,0,,
1,174000, Note_on_c,0,51,64,,
1,174115, Note_off_c,0,60,0,,
1,174115, Note_off_c,0,63,0,,
1,174120, Note_on_c,0,60,56,,
1,174120, Note_on_c,0,63,66,,
1,174223, Note_off_c,0,51,0,,
1,174240, Note_on_c,0,56,65,,
1,174462, Note_off_c,0,56,0,,
1,174462, Note_off_c,0,60,0,,
1,174477, Note_off_c,0,63,0,,
1,174480, Note_on_c,0,51,64,,
1,174480, Note_on_c,0,58,56,,
1,174480, Note_on_c,0,62,70,,
1,174703, Note_off_c,0,51,0,,
1,174718, Note_off_c,0,58,0,,
1,174718, Note_off_c,0,62,0,,
1,174720, Note_on_c,0,43,69,,
1,174720, Note_on_c,0,58,61,,
1,174720, Note_on_c,0,65,75,,
1,174960, Note_off_c,0,43,0,,
1,174960, Note_on_c,0,50,64,,
1,175080, Note_on_c,0,58,56,,
1,175080, Note_on_c,0,65,66,,
1,175091, Note_off_c,0,58,0,,
1,175091, Note_off_c,0,65,0,,
1,175184, Note_off_c,0,50,0,,
1,175200, Note_on_c,0,55,65,,
1,175422, Note_off_c,0,55,0,,
1,175424, Note_off_c,0,58,0,,
1,175438, Note_off_c,0,65,0,,
1,175440, Note_on_c,0,50,64,,
1,175440, Note_on_c,0,60,56,,
1,175440, Note_on_c,0,63,70,,
1,175665, Note_off_c,0,50,0,,
1,175665, Note_off_c,0,60,0,,
1,175679, Note_off_c,0,63,0,,
1,175680, Note_on_c,0,36,65,,
1,175680, Note_on_c,0,58,59,,
1,175680, Note_on_c,0,62,73,,
1,175905, Note_off_c,0,36,0,,
1,175920, Note_on_c,0,43,64,,
1,176035, Note_off_c,0,58,0,,
1,176035, Note_off_c,0,62,0,,
1,176040, Note_on_c,0,60,56,,
1,176040, Note_on_c,0,63,70,,
1,176143, Note_off_c,0,43,0,,
1,176160, Note_on_c,0,48,65,,
1,176160, Note_on_c,0,63,71,,
1,176160, Note_off_c,0,63,0,,
1,176382, Note_off_c,0,48,0,,
1,176382, Note_off_c,0,60,0,,
1,176396, Note_off_c,0,63,0,,
1,176400, Note_on_c,0,43,64,,
1,176400, Note_on_c,0,62,56,,
1,176400, Note_on_c,0,65,70,,
1,176623, Note_off_c,0,43,0,,
1,176638, Note_off_c,0,62,0,,
1,176638, Note_off_c,0,65,0,,
1,176640, Note_on_c,0,45,69,,
1,176640, Note_on_c,0,62,61,,
1,176640, Note_on_c,0,67,75,,
1,176880, Note_off_c,0,45,0,,
1,176880, Note_on_c,0,53,64,,
1,177000, Note_on_c,0,62,56,,
1,177000, Note_on_c,0,68,70,,
1,177011, Note_off_c,0,62,0,,
1,177011, Note_off_c,0,67,0,,
1,177104, Note_off_c,0,53,0,,
1,177120, Note_on_c,0,57,65,,
1,177342, Note_off_c,0,57,0,,
1,177358, Note_off_c,0,62,0,,
1,177358, Note_off_c,0,68,0,,
1,177360, Note_on_c,0,53,64,,
1,177360, Note_on_c,0,62,56,,
1,177360, Note_on_c,0,67,70,,
1,177585, Note_off_c,0,53,0,,
1,177599, Note_off_c,0,62,0,,
1,177599, Note_off_c,0,67,0,,
1,177600, Note_on_c,0,45,67,,
1,177600, Note_on_c,0,62,59,,
1,177600, Note_on_c,0,65,73,,
1,177825, Note_off_c,0,45,0,,
1,177840, Note_on_c,0,53,64,,
1,177955, Note_off_c,0,62,0,,
1,177955, Note_off_c,0,65,0,,
1,177960, Note_on_c,0,62,56,,
1,177960, Note_on_c,0,63,70,,
1,178063, Note_off_c,0,53,0,,
1,178080, Note_on_c,0,57,65,,
1,178302, Note_off_c,0,57,0,,
1,178317, Note_off_c,0,62,0,,
1,178317, Note_off_c,0,63,0,,
1,178320, Note_on_c,0,53,64,,
1,178320, Note_on_c,0,62,56,,
1,178320, Note_on_c,0,65,70,,
1,178543, Note_off_c,0,53,0,,
1,178558, Note_off_c,0,62,0,,
1,178558, Note_off_c,0,65,0,,
1,178560, Note_on_c,0,43,61,,
1,178560, Note_on_c,0,55,75,,
1,178560, Note_on_c,0,59,61,,
1,178560, Note_on_c,0,62,61,,
1,178560, Note_on_c,0,67,75,,
1,179040, Note_on_c,0,45,57,,
1,179040, Note_on_c,0,57,71,,
1,179052, Note_off_c,0,43,0,,
1,179052, Note_off_c,0,55,0,,
1,179515, Note_off_c,0,45,0,,
1,179515, Note_off_c,0,57,0,,
1,179520, Note_on_c,0,47,59,,
1,179520, Note_on_c,0,55,59,,
1,179520, Note_on_c,0,59,73,,
1,179520, Note_on_c,0,67,73,,
1,179528, Note_off_c,0,59,0,,
1,179528, Note_off_c,0,62,0,,
1,179528, Note_off_c,0,67,0,,
1,179875, Note_off_c,0,55,0,,
1,179875, Note_off_c,0,67,0,,
1,179880, Note_on_c,0,57,56,,
1,179880, Note_on_c,0,69,70,,
1,179996, Note_off_c,0,47,0,,
1,179996, Note_off_c,0,59,0,,
1,180000, Note_on_c,0,43,57,,
1,180000, Note_on_c,0,55,71,,
1,180223, Note_off_c,0,57,0,,
1,180237, Note_off_c,0,69,0,,
1,180240, Note_on_c,0,59,56,,
1,180240, Note_on_c,0,71,70,,
1,180463, Note_off_c,0,59,0,,
1,180474, Note_off_c,0,43,0,,
1,180474, Note_off_c,0,55,0,,
1,180478, Note_off_c,0,71,0,,
1,180480, Note_on_c,0,36,59,,
1,180480, Note_on_c,0,48,75,,
1,180480, Note_on_c,0,55,61,,
1,180480, Note_on_c,0,60,75,,
1,180720, Note_on_c,0,36,62,,
1,180734, Note_off_c,0,36,0,,
1,180734, Note_off_c,0,48,0,,
1,180944, Note_off_c,0,36,0,,
1,180960, Note_on_c,0,48,65,,
1,180960, Note_on_c,0,55,57,,
1,180960, Note_on_c,0,63,71,,
1,180972, Note_off_c,0,55,0,,
1,180972, Note_off_c,0,60,0,,
1,181182, Note_off_c,0,48,0,,
1,181200, Note_on_c,0,51,64,,
1,181425, Note_off_c,0,51,0,,
1,181435, Note_off_c,0,55,0,,
1,181435, Note_off_c,0,63,0,,
1,181440, Note_on_c,0,41,67,,
1,181440, Note_on_c,0,60,59,,
1,181440, Note_on_c,0,65,73,,
1,181556, Note_off_c,0,41,0,,
1,181560, Note_on_c,0,53,64,,
1,181668, Note_off_c,0,53,0,,
1,181680, Note_on_c,0,41,64,,
1,181795, Note_off_c,0,60,0,,
1,181795, Note_off_c,0,65,0,,
1,181800, Note_on_c,0,60,56,,
1,181800, Note_on_c,0,63,70,,
1,181903, Note_off_c,0,41,0,,
1,181920, Note_on_c,0,53,65,,
1,182142, Note_off_c,0,53,0,,
1,182157, Note_off_c,0,60,0,,
1,182157, Note_off_c,0,63,0,,
1,182160, Note_on_c,0,41,64,,
1,182160, Note_on_c,0,60,56,,
1,182160, Note_on_c,0,65,70,,
1,182383, Note_off_c,0,41,0,,
1,182383, Note_off_c,0,60,0,,
1,182398, Note_off_c,0,65,0,,
1,182400, Note_on_c,0,46,69,,
1,182400, Note_on_c,0,58,72,,
1,182400, Note_on_c,0,62,72,,
1,182400, Note_on_c,0,65,67,,
1,182640, Note_off_c,0,58,0,,
1,182640, Note_on_c,0,46,64,,
1,182640, Note_on_c,0,62,56,,
1,182640, Note_on_c,0,65,70,,
1,182654, Note_off_c,0,46,0,,
1,182654, Note_off_c,0,62,0,,
1,182654, Note_off_c,0,65,0,,
1,182864, Note_off_c,0,46,0,,
1,182878, Note_off_c,0,62,0,,
1,182878, Note_off_c,0,65,0,,
1,182880, Note_on_c,0,50,65,,
1,182880, Note_on_c,0,62,57,,
1,182880, Note_on_c,0,65,57,,
1,182880, Note_on_c,0,70,71,,
1,183102, Note_off_c,0,50,0,,
1,183102, Note_off_c,0,62,0,,
1,183102, Note_off_c,0,65,0,,
1,183116, Note_off_c,0,70,0,,
1,183120, Note_on_c,0,53,64,,
1,183120, Note_on_c,0,68,64,,
1,183345, Note_off_c,0,53,0,,
1,183345, Note_off_c,0,68,0,,
1,183360, Note_on_c,0,39,66,,
1,183360, Note_on_c,0,63,59,,
1,183360, Note_on_c,0,67,73,,
1,183476, Note_off_c,0,39,0,,
1,183476, Note_off_c,0,63,0,,
1,183480, Note_on_c,0,51,64,,
1,183480, Note_on_c,0,65,64,,
1,183483, Note_off_c,0,67,0,,
1,183588, Note_off_c,0,51,0,,
1,183600, Note_on_c,0,39,63,,
1,183698, Note_off_c,0,65,0,,
1,183720, Note_on_c,0,63,56,,
1,183720, Note_on_c,0,67,66,,
1,183837, Note_off_c,0,39,0,,
1,183840, Note_on_c,0,39,56,,
1,183840, Note_on_c,0,51,71,,
1,184062, Note_off_c,0,39,0,,
1,184076, Note_off_c,0,51,0,,
1,184080, Note_on_c,0,38,55,,
1,184080, Note_on_c,0,50,70,,
1,184303, Note_off_c,0,38,0,,
1,184315, Note_off_c,0,63,0,,
1,184315, Note_off_c,0,67,0,,
1,184318, Note_off_c,0,50,0,,
1,184320, Note_on_c,0,36,59,,
1,184320, Note_on_c,0,48,75,,
1,184320, Note_on_c,0,60,61,,
1,184320, Note_on_c,0,63,61,,
1,184320, Note_on_c,0,67,75,,
1,184560, Note_on_c,0,36,54,,
1,184560, Note_on_c,0,48,66,,
1,184574, Note_off_c,0,36,0,,
1,184574, Note_off_c,0,48,0,,
1,184784, Note_off_c,0,36,0,,
1,184798, Note_off_c,0,48,0,,
1,184800, Note_on_c,0,48,65,,
1,184800, Note_on_c,0,63,57,,
1,184800, Note_on_c,0,67,57,,
1,184800, Note_on_c,0,70,71,,
1,184812, Note_off_c,0,60,0,,
1,184812, Note_off_c,0,63,0,,
1,184812, Note_off_c,0,67,0,,
1,185022, Note_off_c,0,48,0,,
1,185040, Note_on_c,0,51,64,,
1,185265, Note_off_c,0,51,0,,
1,185275, Note_off_c,0,63,0,,
1,185275, Note_off_c,0,67,0,,
1,185275, Note_off_c,0,70,0,,
1,185280, Note_on_c,0,41,59,,
1,185280, Note_on_c,0,53,73,,
1,185280, Note_on_c,0,65,59,,
1,185280, Note_on_c,0,68,59,,
1,185280, Note_on_c,0,72,73,,
1,185505, Note_off_c,0,41,0,,
1,185519, Note_off_c,0,53,0,,
1,185520, Note_on_c,0,53,64,,
1,185635, Note_off_c,0,65,0,,
1,185635, Note_off_c,0,68,0,,
1,185635, Note_off_c,0,72,0,,
1,185640, Note_on_c,0,65,64,,
1,185757, Note_off_c,0,53,0,,
1,185760, Note_on_c,0,41,57,,
1,185760, Note_on_c,0,53,71,,
1,185982, Note_off_c,0,41,0,,
1,185982, Note_off_c,0,65,0,,
1,185996, Note_off_c,0,53,0,,
1,186000, Note_on_c,0,36,54,,
1,186000, Note_on_c,0,48,70,,
1,186000, Note_on_c,0,63,64,,
1,186223, Note_off_c,0,36,0,,
1,186223, Note_off_c,0,63,0,,
1,186238, Note_off_c,0,48,0,,
1,186240, Note_on_c,0,46,69,,
1,186240, Note_on_c,0,62,69,,
1,186480, Note_on_c,0,46,64,,
1,186480, Note_on_c,0,62,64,,
1,186494, Note_off_c,0,46,0,,
1,186494, Note_off_c,0,62,0,,
1,186704, Note_off_c,0,46,0,,
1,186704, Note_off_c,0,62,0,,
1,186720, Note_on_c,0,50,65,,
1,186720, Note_on_c,0,60,65,,
1,186942, Note_off_c,0,50,0,,
1,186942, Note_off_c,0,60,0,,
1,186960, Note_on_c,0,53,64,,
1,186960, Note_on_c,0,62,64,,
1,187185, Note_off_c,0,53,0,,
1,187185, Note_off_c,0,62,0,,
1,187200, Note_on_c,0,39,58,,
1,187200, Note_on_c,0,51,73,,
1,187200, Note_on_c,0,65,67,,
1,187316, Note_off_c,0,65,0,,
1,187320, Note_on_c,0,63,64,,
1,187425, Note_off_c,0,39,0,,
1,187439, Note_off_c,0,51,0,,
1,187440, Note_on_c,0,51,64,,
1,187552, Note_off_c,0,63,0,,
1,187560, Note_on_c,0,63,64,,
1,187663, Note_off_c,0,51,0,,
1,187680, Note_on_c,0,39,64,,
1,187794, Note_off_c,0,63,0,,
1,187800, Note_on_c,0,65,64,,
1,187902, Note_off_c,0,39,0,,
1,187909, Note_off_c,0,65,0,,
1,187920, Note_on_c,0,38,63,,
1,187920, Note_on_c,0,67,64,,
1,188029, Note_off_c,0,67,0,,
1,188040, Note_on_c,0,70,64,,
1,188143, Note_off_c,0,38,0,,
1,188154, Note_off_c,0,70,0,,
1,188160, Note_on_c,0,36,59,,
1,188160, Note_on_c,0,48,75,,
1,188160, Note_on_c,0,60,61,,
1,188160, Note_on_c,0,67,61,,
1,188160, Note_on_c,0,72,75,,
1,188400, Note_on_c,0,36,62,,
1,188414, Note_off_c,0,36,0,,
1,188414, Note_off_c,0,48,0,,
1,188624, Note_off_c,0,36,0,,
1,188640, Note_on_c,0,48,65,,
1,188640, Note_on_c,0,55,57,,
1,188640, Note_on_c,0,63,71,,
1,188652, Note_off_c,0,60,0,,
1,188652, Note_off_c,0,67,0,,
1,188652, Note_off_c,0,72,0,,
1,188862, Note_off_c,0,48,0,,
1,188880, Note_on_c,0,51,64,,
1,189105, Note_off_c,0,51,0,,
1,189115, Note_off_c,0,55,0,,
1,189115, Note_off_c,0,63,0,,
1,189120, Note_on_c,0,41,67,,
1,189120, Note_on_c,0,60,59,,
1,189120, Note_on_c,0,65,73,,
1,189236, Note_off_c,0,41,0,,
1,189240, Note_on_c,0,53,64,,
1,189348, Note_off_c,0,53,0,,
1,189360, Note_on_c,0,41,64,,
1,189475, Note_off_c,0,60,0,,
1,189475, Note_off_c,0,65,0,,
1,189480, Note_on_c,0,60,56,,
1,189480, Note_on_c,0,63,70,,
1,189583, Note_off_c,0,41,0,,
1,189600, Note_on_c,0,53,65,,
1,189822, Note_off_c,0,53,0,,
1,189837, Note_off_c,0,60,0,,
1,189837, Note_off_c,0,63,0,,
1,189840, Note_on_c,0,41,64,,
1,189840, Note_on_c,0,60,56,,
1,189840, Note_on_c,0,65,70,,
1,190063, Note_off_c,0,41,0,,
1,190063, Note_off_c,0,60,0,,
1,190078, Note_off_c,0,65,0,,
1,190080, Note_on_c,0,46,69,,
1,190080, Note_on_c,0,58,72,,
1,190080, Note_on_c,0,62,72,,
1,190080, Note_on_c,0,65,67,,
1,190320, Note_off_c,0,58,0,,
1,190320, Note_on_c,0,46,64,,
1,190320, Note_on_c,0,62,56,,
1,190320, Note_on_c,0,65,70,,
1,190334, Note_off_c,0,46,0,,
1,190334, Note_off_c,0,62,0,,
1,190334, Note_off_c,0,65,0,,
1,190544, Note_off_c,0,46,0,,
1,190558, Note_off_c,0,62,0,,
1,190558, Note_off_c,0,65,0,,
1,190560, Note_on_c,0,50,65,,
1,190560, Note_on_c,0,62,57,,
1,190560, Note_on_c,0,65,57,,
1,190560, Note_on_c,0,70,71,,
1,190782, Note_off_c,0,50,0,,
1,190782, Note_off_c,0,62,0,,
1,190782, Note_off_c,0,65,0,,
1,190796, Note_off_c,0,70,0,,
1,190800, Note_on_c,0,53,64,,
1,190800, Note_on_c,0,68,64,,
1,191025, Note_off_c,0,53,0,,
1,191025, Note_off_c,0,68,0,,
1,191040, Note_on_c,0,39,58,,
1,191040, Note_on_c,0,51,73,,
1,191040, Note_on_c,0,63,59,,
1,191040, Note_on_c,0,67,73,,
1,191156, Note_off_c,0,63,0,,
1,191160, Note_on_c,0,65,64,,
1,191163, Note_off_c,0,67,0,,
1,191265, Note_off_c,0,39,0,,
1,191279, Note_off_c,0,51,0,,
1,191280, Note_on_c,0,51,64,,
1,191378, Note_off_c,0,65,0,,
1,191400, Note_on_c,0,63,56,,
1,191400, Note_on_c,0,67,66,,
1,191517, Note_off_c,0,51,0,,
1,191520, Note_on_c,0,39,56,,
1,191520, Note_on_c,0,51,71,,
1,191742, Note_off_c,0,39,0,,
1,191756, Note_off_c,0,51,0,,
1,191760, Note_on_c,0,38,63,,
1,191983, Note_off_c,0,38,0,,
1,191995, Note_off_c,0,63,0,,
1,191995, Note_off_c,0,67,0,,
1,192000, Note_on_c,0,36,59,,
1,192000, Note_on_c,0,48,75,,
1,192000, Note_on_c,0,60,61,,
1,192000, Note_on_c,0,63,61,,
1,192000, Note_on_c,0,67,75,,
1,192240, Note_off_c,0,36,0,,
1,192240, Note_on_c,0,48,64,,
1,192254, Note_off_c,0,48,0,,
1,192478, Note_off_c,0,48,0,,
1,192480, Note_on_c,0,36,55,,
1,192480, Note_on_c,0,48,71,,
1,192480, Note_on_c,0,63,57,,
1,192480, Note_on_c,0,67,57,,
1,192480, Note_on_c,0,70,71,,
1,192492, Note_off_c,0,60,0,,
1,192492, Note_off_c,0,63,0,,
1,192492, Note_off_c,0,67,0,,
1,192702, Note_off_c,0,36,0,,
1,192716, Note_off_c,0,48,0,,
1,192720, Note_on_c,0,48,64,,
1,192945, Note_off_c,0,48,0,,
1,192955, Note_off_c,0,63,0,,
1,192955, Note_off_c,0,67,0,,
1,192955, Note_off_c,0,70,0,,
1,192960, Note_on_c,0,41,59,,
1,192960, Note_on_c,0,53,73,,
1,192960, Note_on_c,0,65,59,,
1,192960, Note_on_c,0,68,59,,
1,192960, Note_on_c,0,72,73,,
1,193185, Note_off_c,0,41,0,,
1,193199, Note_off_c,0,53,0,,
1,193200, Note_on_c,0,53,64,,
1,193315, Note_off_c,0,65,0,,
1,193315, Note_off_c,0,68,0,,
1,193315, Note_off_c,0,72,0,,
1,193320, Note_on_c,0,65,64,,
1,193437, Note_off_c,0,53,0,,
1,193440, Note_on_c,0,41,57,,
1,193440, Note_on_c,0,53,71,,
1,193662, Note_off_c,0,41,0,,
1,193662, Note_off_c,0,65,0,,
1,193676, Note_off_c,0,53,0,,
1,193680, Note_on_c,0,53,64,,
1,193680, Note_on_c,0,63,64,,
1,193903, Note_off_c,0,53,0,,
1,193903, Note_off_c,0,63,0,,
1,193920, Note_on_c,0,46,61,,
1,193920, Note_on_c,0,58,71,,
1,193920, Note_on_c,0,62,61,,
1,193920, Note_on_c,0,70,71,,
1,194160, Note_on_c,0,46,56,,
1,194160, Note_on_c,0,58,70,,
1,194160, Note_on_c,0,62,56,,
1,194160, Note_on_c,0,70,70,,
1,194174, Note_off_c,0,46,0,,
1,194174, Note_off_c,0,58,0,,
1,194174, Note_off_c,0,62,0,,
1,194174, Note_off_c,0,70,0,,
1,194384, Note_off_c,0,46,0,,
1,194384, Note_off_c,0,62,0,,
1,194398, Note_off_c,0,58,0,,
1,194398, Note_off_c,0,70,0,,
1,194400, Note_on_c,0,43,57,,
1,194400, Note_on_c,0,55,71,,
1,194400, Note_on_c,0,58,57,,
1,194400, Note_on_c,0,67,71,,
1,194622, Note_off_c,0,43,0,,
1,194622, Note_off_c,0,58,0,,
1,194636, Note_off_c,0,55,0,,
1,194636, Note_off_c,0,67,0,,
1,194640, Note_on_c,0,46,56,,
1,194640, Note_on_c,0,58,70,,
1,194640, Note_on_c,0,63,56,,
1,194640, Note_on_c,0,70,70,,
1,194879, Note_off_c,0,46,0,,
1,194879, Note_off_c,0,58,0,,
1,194879, Note_off_c,0,63,0,,
1,194879, Note_off_c,0,70,0,,
1,194880, Note_on_c,0,46,59,,
1,194880, Note_on_c,0,58,73,,
1,194880, Note_on_c,0,63,59,,
1,194880, Note_on_c,0,70,73,,
1,195235, Note_off_c,0,46,0,,
1,195235, Note_off_c,0,58,0,,
1,195235, Note_off_c,0,63,0,,
1,195235, Note_off_c,0,70,0,,
1,195240, Note_on_c,0,48,56,,
1,195240, Note_on_c,0,60,70,,
1,195240, Note_on_c,0,63,56,,
1,195240, Note_on_c,0,72,70,,
1,195835, Note_off_c,0,48,0,,
1,195835, Note_off_c,0,60,0,,
1,195835, Note_off_c,0,63,0,,
1,195835, Note_off_c,0,72,0,,
1,195840, Note_on_c,0,36,59,,
1,195840, Note_on_c,0,48,75,,
1,195840, Note_on_c,0,55,61,,
1,195840, Note_on_c,0,60,75,,
1,196080, Note_on_c,0,36,62,,
1,196094, Note_off_c,0,36,0,,
1,196094, Note_off_c,0,48,0,,
1,196304, Note_off_c,0,36,0,,
1,196320, Note_on_c,0,48,65,,
1,196320, Note_on_c,0,55,57,,
1,196320, Note_on_c,0,63,71,,
1,196332, Note_off_c,0,55,0,,
1,196332, Note_off_c,0,60,0,,
1,196542, Note_off_c,0,48,0,,
1,196560, Note_on_c,0,51,64,,
1,196785, Note_off_c,0,51,0,,
1,196795, Note_off_c,0,55,0,,
1,196795, Note_off_c,0,63,0,,
1,196800, Note_on_c,0,41,67,,
1,196800, Note_on_c,0,60,59,,
1,196800, Note_on_c,0,65,73,,
1,196916, Note_off_c,0,41,0,,
1,196920, Note_on_c,0,53,64,,
1,197028, Note_off_c,0,53,0,,
1,197040, Note_on_c,0,41,64,,
1,197155, Note_off_c,0,60,0,,
1,197155, Note_off_c,0,65,0,,
1,197160, Note_on_c,0,60,56,,
1,197160, Note_on_c,0,63,70,,
1,197263, Note_off_c,0,41,0,,
1,197280, Note_on_c,0,53,65,,
1,197502, Note_off_c,0,53,0,,
1,197517, Note_off_c,0,60,0,,
1,197517, Note_off_c,0,63,0,,
1,197520, Note_on_c,0,41,64,,
1,197520, Note_on_c,0,60,56,,
1,197520, Note_on_c,0,65,70,,
1,197743, Note_off_c,0,41,0,,
1,197743, Note_off_c,0,60,0,,
1,197758, Note_off_c,0,65,0,,
1,197760, Note_on_c,0,46,69,,
1,197760, Note_on_c,0,58,72,,
1,197760, Note_on_c,0,62,72,,
1,197760, Note_on_c,0,65,67,,
1,198000, Note_off_c,0,58,0,,
1,198000, Note_on_c,0,46,64,,
1,198000, Note_on_c,0,62,56,,
1,198000, Note_on_c,0,65,70,,
1,198014, Note_off_c,0,46,0,,
1,198014, Note_off_c,0,62,0,,
1,198014, Note_off_c,0,65,0,,
1,198224, Note_off_c,0,46,0,,
1,198238, Note_off_c,0,62,0,,
1,198238, Note_off_c,0,65,0,,
1,198240, Note_on_c,0,50,65,,
1,198240, Note_on_c,0,62,57,,
1,198240, Note_on_c,0,65,57,,
1,198240, Note_on_c,0,70,71,,
1,198462, Note_off_c,0,50,0,,
1,198462, Note_off_c,0,62,0,,
1,198462, Note_off_c,0,65,0,,
1,198476, Note_off_c,0,70,0,,
1,198480, Note_on_c,0,53,64,,
1,198480, Note_on_c,0,68,64,,
1,198705, Note_off_c,0,53,0,,
1,198705, Note_off_c,0,68,0,,
1,198720, Note_on_c,0,39,66,,
1,198720, Note_on_c,0,63,59,,
1,198720, Note_on_c,0,67,73,,
1,198836, Note_off_c,0,39,0,,
1,198836, Note_off_c,0,63,0,,
1,198840, Note_on_c,0,51,64,,
1,198840, Note_on_c,0,65,64,,
1,198843, Note_off_c,0,67,0,,
1,198948, Note_off_c,0,51,0,,
1,198960, Note_on_c,0,39,63,,
1,199058, Note_off_c,0,65,0,,
1,199080, Note_on_c,0,63,56,,
1,199080, Note_on_c,0,67,66,,
1,199197, Note_off_c,0,39,0,,
1,199200, Note_on_c,0,39,56,,
1,199200, Note_on_c,0,51,71,,
1,199422, Note_off_c,0,39,0,,
1,199436, Note_off_c,0,51,0,,
1,199440, Note_on_c,0,38,55,,
1,199440, Note_on_c,0,50,70,,
1,199663, Note_off_c,0,38,0,,
1,199675, Note_off_c,0,63,0,,
1,199675, Note_off_c,0,67,0,,
1,199678, Note_off_c,0,50,0,,
1,199680, Note_on_c,0,36,59,,
1,199680, Note_on_c,0,48,75,,
1,199680, Note_on_c,0,60,61,,
1,199680, Note_on_c,0,63,61,,
1,199680, Note_on_c,0,67,75,,
1,199920, Note_on_c,0,36,54,,
1,199920, Note_on_c,0,48,66,,
1,199934, Note_off_c,0,36,0,,
1,199934, Note_off_c,0,48,0,,
1,200144, Note_off_c,0,36,0,,
1,200158, Note_off_c,0,48,0,,
1,200160, Note_on_c,0,48,65,,
1,200160, Note_on_c,0,63,57,,
1,200160, Note_on_c,0,67,57,,
1,200160, Note_on_c,0,70,71,,
1,200172, Note_off_c,0,60,0,,
1,200172, Note_off_c,0,63,0,,
1,200172, Note_off_c,0,67,0,,
1,200382, Note_off_c,0,48,0,,
1,200400, Note_on_c,0,51,64,,
1,200625, Note_off_c,0,51,0,,
1,200635, Note_off_c,0,63,0,,
1,200635, Note_off_c,0,67,0,,
1,200635, Note_off_c,0,70,0,,
1,200640, Note_on_c,0,41,59,,
1,200640, Note_on_c,0,53,73,,
1,200640, Note_on_c,0,65,59,,
1,200640, Note_on_c,0,68,59,,
1,200640, Note_on_c,0,72,73,,
1,200865, Note_off_c,0,41,0,,
1,200879, Note_off_c,0,53,0,,
1,200880, Note_on_c,0,53,64,,
1,200995, Note_off_c,0,65,0,,
1,200995, Note_off_c,0,68,0,,
1,200995, Note_off_c,0,72,0,,
1,201000, Note_on_c,0,65,64,,
1,201117, Note_off_c,0,53,0,,
1,201120, Note_on_c,0,41,57,,
1,201120, Note_on_c,0,53,71,,
1,201342, Note_off_c,0,41,0,,
1,201342, Note_off_c,0,65,0,,
1,201356, Note_off_c,0,53,0,,
1,201360, Note_on_c,0,36,54,,
1,201360, Note_on_c,0,48,70,,
1,201360, Note_on_c,0,63,64,,
1,201583, Note_off_c,0,36,0,,
1,201583, Note_off_c,0,63,0,,
1,201598, Note_off_c,0,48,0,,
1,201600, Note_on_c,0,46,61,,
1,201600, Note_on_c,0,58,75,,
1,201600, Note_on_c,0,62,61,,
1,201600, Note_on_c,0,70,71,,
1,201840, Note_on_c,0,46,56,,
1,201840, Note_on_c,0,58,70,,
1,201840, Note_on_c,0,62,56,,
1,201840, Note_on_c,0,70,70,,
1,201854, Note_off_c,0,46,0,,
1,201854, Note_off_c,0,58,0,,
1,201854, Note_off_c,0,62,0,,
1,201854, Note_off_c,0,70,0,,
1,202064, Note_off_c,0,46,0,,
1,202064, Note_off_c,0,62,0,,
1,202078, Note_off_c,0,58,0,,
1,202078, Note_off_c,0,70,0,,
1,202080, Note_on_c,0,43,57,,
1,202080, Note_on_c,0,55,71,,
1,202080, Note_on_c,0,58,57,,
1,202080, Note_on_c,0,67,71,,
1,202302, Note_off_c,0,43,0,,
1,202302, Note_off_c,0,58,0,,
1,202316, Note_off_c,0,55,0,,
1,202316, Note_off_c,0,67,0,,
1,202320, Note_on_c,0,46,56,,
1,202320, Note_on_c,0,58,70,,
1,202320, Note_on_c,0,63,56,,
1,202320, Note_on_c,0,70,70,,
1,202559, Note_off_c,0,46,0,,
1,202559, Note_off_c,0,58,0,,
1,202559, Note_off_c,0,63,0,,
1,202559, Note_off_c,0,70,0,,
1,202560, Note_on_c,0,46,59,,
1,202560, Note_on_c,0,58,73,,
1,202560, Note_on_c,0,63,59,,
1,202560, Note_on_c,0,70,73,,
1,202915, Note_off_c,0,46,0,,
1,202915, Note_off_c,0,58,0,,
1,202915, Note_off_c,0,63,0,,
1,202915, Note_off_c,0,70,0,,
1,202920, Note_on_c,0,48,56,,
1,202920, Note_on_c,0,60,70,,
1,202920, Note_on_c,0,63,56,,
1,202920, Note_on_c,0,72,70,,
1,203515, Note_off_c,0,48,0,,
1,203515, Note_off_c,0,60,0,,
1,203515, Note_off_c,0,63,0,,
1,203515, Note_off_c,0,72,0,,
1,203520, Note_on_c,0,44,69,,
1,203520, Note_on_c,0,60,61,,
1,203520, Note_on_c,0,63,75,,
1,203760, Note_off_c,0,44,0,,
1,203760, Note_on_c,0,51,64,,
1,203880, Note_on_c,0,60,56,,
1,203880, Note_on_c,0,63,66,,
1,203891, Note_off_c,0,60,0,,
1,203891, Note_off_c,0,63,0,,
1,203984, Note_off_c,0,51,0,,
1,204000, Note_on_c,0,56,65,,
1,204222, Note_off_c,0,56,0,,
1,204224, Note_off_c,0,60,0,,
1,204238, Note_off_c,0,63,0,,
1,204240, Note_on_c,0,51,64,,
1,204240, Note_on_c,0,58,56,,
1,204240, Note_on_c,0,62,70,,
1,204465, Note_off_c,0,51,0,,
1,204465, Note_off_c,0,58,0,,
1,204479, Note_off_c,0,62,0,,
1,204480, Note_on_c,0,44,67,,
1,204480, Note_on_c,0,60,59,,
1,204480, Note_on_c,0,63,73,,
1,204705, Note_off_c,0,44,0,,
1,204720, Note_on_c,0,51,64,,
1,204835, Note_off_c,0,60,0,,
1,204835, Note_off_c,0,63,0,,
1,204840, Note_on_c,0,60,56,,
1,204840, Note_on_c,0,63,66,,
1,204943, Note_off_c,0,51,0,,
1,204960, Note_on_c,0,56,65,,
1,205182, Note_off_c,0,56,0,,
1,205182, Note_off_c,0,60,0,,
1,205197, Note_off_c,0,63,0,,
1,205200, Note_on_c,0,51,64,,
1,205200, Note_on_c,0,58,56,,
1,205200, Note_on_c,0,62,70,,
1,205423, Note_off_c,0,51,0,,
1,205438, Note_off_c,0,58,0,,
1,205438, Note_off_c,0,62,0,,
1,205440, Note_on_c,0,43,69,,
1,205440, Note_on_c,0,58,61,,
1,205440, Note_on_c,0,65,75,,
1,205680, Note_off_c,0,43,0,,
1,205680, Note_on_c,0,50,64,,
1,205800, Note_on_c,0,58,56,,
1,205800, Note_on_c,0,65,66,,
1,205811, Note_off_c,0,58,0,,
1,205811, Note_off_c,0,65,0,,
1,205904, Note_off_c,0,50,0,,
1,205920, Note_on_c,0,55,65,,
1,206142, Note_off_c,0,55,0,,
1,206144, Note_off_c,0,58,0,,
1,206158, Note_off_c,0,65,0,,
1,206160, Note_on_c,0,50,64,,
1,206160, Note_on_c,0,63,64,,
1,206385, Note_off_c,0,50,0,,
1,206385, Note_off_c,0,63,0,,
1,206400, Note_on_c,0,36,65,,
1,206400, Note_on_c,0,60,59,,
1,206400, Note_on_c,0,62,73,,
1,206625, Note_off_c,0,36,0,,
1,206640, Note_on_c,0,43,64,,
1,206755, Note_off_c,0,60,0,,
1,206755, Note_off_c,0,62,0,,
1,206760, Note_on_c,0,60,64,,
1,206863, Note_off_c,0,43,0,,
1,206880, Note_on_c,0,48,65,,
1,207102, Note_off_c,0,48,0,,
1,207102, Note_off_c,0,60,0,,
1,207120, Note_on_c,0,43,64,,
1,207120, Note_on_c,0,58,56,,
1,207120, Note_on_c,0,62,70,,
1,207343, Note_off_c,0,43,0,,
1,207343, Note_off_c,0,58,0,,
1,207358, Note_off_c,0,62,0,,
1,207360, Note_on_c,0,44,69,,
1,207360, Note_on_c,0,60,61,,
1,207360, Note_on_c,0,63,75,,
1,207600, Note_off_c,0,44,0,,
1,207600, Note_on_c,0,51,64,,
1,207720, Note_on_c,0,60,56,,
1,207720, Note_on_c,0,63,66,,
1,207731, Note_off_c,0,60,0,,
1,207731, Note_off_c,0,63,0,,
1,207824, Note_off_c,0,51,0,,
1,207840, Note_on_c,0,56,65,,
1,208062, Note_off_c,0,56,0,,
1,208064, Note_off_c,0,60,0,,
1,208078, Note_off_c,0,63,0,,
1,208080, Note_on_c,0,51,64,,
1,208080, Note_on_c,0,58,56,,
1,208080, Note_on_c,0,62,70,,
1,208305, Note_off_c,0,51,0,,
1,208305, Note_off_c,0,58,0,,
1,208319, Note_off_c,0,62,0,,
1,208320, Note_on_c,0,46,67,,
1,208320, Note_on_c,0,62,59,,
1,208320, Note_on_c,0,65,73,,
1,208545, Note_off_c,0,46,0,,
1,208560, Note_on_c,0,53,64,,
1,208675, Note_off_c,0,62,0,,
1,208675, Note_off_c,0,65,0,,
1,208680, Note_on_c,0,62,64,,
1,208783, Note_off_c,0,53,0,,
1,208800, Note_on_c,0,58,65,,
1,209022, Note_off_c,0,58,0,,
1,209022, Note_off_c,0,62,0,,
1,209040, Note_on_c,0,53,64,,
1,209040, Note_on_c,0,60,64,,
1,209263, Note_off_c,0,53,0,,
1,209263, Note_off_c,0,60,0,,
1,209280, Note_on_c,0,39,68,,
1,209280, Note_on_c,0,53,61,,
1,209280, Note_on_c,0,58,75,,
1,209520, Note_off_c,0,39,0,,
1,209520, Note_on_c,0,46,64,,
1,209744, Note_off_c,0,46,0,,
1,209760, Note_on_c,0,51,65,,
1,209760, Note_on_c,0,55,65,,
1,209772, Note_off_c,0,53,0,,
1,209772, Note_off_c,0,58,0,,
1,209982, Note_off_c,0,51,0,,
1,210000, Note_on_c,0,46,64,,
1,210225, Note_off_c,0,46,0,,
1,210235, Note_off_c,0,55,0,,
1,210240, Note_on_c,0,39,66,,
1,210240, Note_on_c,0,56,67,,
1,210465, Note_off_c,0,39,0,,
1,210480, Note_on_c,0,46,64,,
1,210703, Note_off_c,0,46,0,,
1,210716, Note_off_c,0,56,0,,
1,210720, Note_on_c,0,51,65,,
1,210720, Note_on_c,0,58,65,,
1,210942, Note_off_c,0,51,0,,
1,210960, Note_on_c,0,46,64,,
1,211183, Note_off_c,0,46,0,,
1,211194, Note_off_c,0,58,0,,
1,211200, Note_on_c,0,44,69,,
1,211200, Note_on_c,0,60,61,,
1,211200, Note_on_c,0,63,71,,
1,211440, Note_off_c,0,44,0,,
1,211440, Note_on_c,0,51,64,,
1,211560, Note_on_c,0,60,56,,
1,211560, Note_on_c,0,63,66,,
1,211571, Note_off_c,0,60,0,,
1,211571, Note_off_c,0,63,0,,
1,211664, Note_off_c,0,51,0,,
1,211680, Note_on_c,0,56,65,,
1,211902, Note_off_c,0,56,0,,
1,211904, Note_off_c,0,60,0,,
1,211918, Note_off_c,0,63,0,,
1,211920, Note_on_c,0,51,64,,
1,211920, Note_on_c,0,58,56,,
1,211920, Note_on_c,0,62,70,,
1,212145, Note_off_c,0,51,0,,
1,212145, Note_off_c,0,58,0,,
1,212159, Note_off_c,0,62,0,,
1,212160, Note_on_c,0,44,67,,
1,212160, Note_on_c,0,60,59,,
1,212160, Note_on_c,0,63,73,,
1,212385, Note_off_c,0,44,0,,
1,212400, Note_on_c,0,51,64,,
1,212515, Note_off_c,0,60,0,,
1,212515, Note_off_c,0,63,0,,
1,212520, Note_on_c,0,60,56,,
1,212520, Note_on_c,0,63,66,,
1,212623, Note_off_c,0,51,0,,
1,212640, Note_on_c,0,56,65,,
1,212862, Note_off_c,0,56,0,,
1,212862, Note_off_c,0,60,0,,
1,212877, Note_off_c,0,63,0,,
1,212880, Note_on_c,0,51,64,,
1,212880, Note_on_c,0,58,56,,
1,212880, Note_on_c,0,62,70,,
1,213103, Note_off_c,0,51,0,,
1,213118, Note_off_c,0,58,0,,
1,213118, Note_off_c,0,62,0,,
1,213120, Note_on_c,0,43,69,,
1,213120, Note_on_c,0,58,61,,
1,213120, Note_on_c,0,65,75,,
1,213360, Note_off_c,0,43,0,,
1,213360, Note_on_c,0,50,64,,
1,213480, Note_on_c,0,58,56,,
1,213480, Note_on_c,0,65,66,,
1,213491, Note_off_c,0,58,0,,
1,213491, Note_off_c,0,65,0,,
1,213584, Note_off_c,0,50,0,,
1,213600, Note_on_c,0,55,65,,
1,213822, Note_off_c,0,55,0,,
1,213824, Note_off_c,0,58,0,,
1,213838, Note_off_c,0,65,0,,
1,213840, Note_on_c,0,50,64,,
1,213840, Note_on_c,0,60,56,,
1,213840, Note_on_c,0,63,70,,
1,214065, Note_off_c,0,50,0,,
1,214065, Note_off_c,0,60,0,,
1,214079, Note_off_c,0,63,0,,
1,214080, Note_on_c,0,36,65,,
1,214080, Note_on_c,0,58,59,,
1,214080, Note_on_c,0,62,73,,
1,214305, Note_off_c,0,36,0,,
1,214320, Note_on_c,0,43,64,,
1,214435, Note_off_c,0,58,0,,
1,214435, Note_off_c,0,62,0,,
1,214440, Note_on_c,0,60,56,,
1,214440, Note_on_c,0,63,70,,
1,214543, Note_off_c,0,43,0,,
1,214560, Note_on_c,0,48,65,,
1,214560, Note_on_c,0,63,71,,
1,214560, Note_off_c,0,63,0,,
1,214782, Note_off_c,0,48,0,,
1,214782, Note_off_c,0,60,0,,
1,214796, Note_off_c,0,63,0,,
1,214800, Note_on_c,0,43,64,,
1,214800, Note_on_c,0,62,56,,
1,214800, Note_on_c,0,65,70,,
1,215023, Note_off_c,0,43,0,,
1,215038, Note_off_c,0,62,0,,
1,215038, Note_off_c,0,65,0,,
1,215040, Note_on_c,0,45,69,,
1,215040, Note_on_c,0,62,61,,
1,215040, Note_on_c,0,67,75,,
1,215280, Note_off_c,0,45,0,,
1,215280, Note_on_c,0,53,64,,
1,215400, Note_on_c,0,62,56,,
1,215400, Note_on_c,0,68,70,,
1,215411, Note_off_c,0,62,0,,
1,215411, Note_off_c,0,67,0,,
1,215504, Note_off_c,0,53,0,,
1,215520, Note_on_c,0,57,65,,
1,215742, Note_off_c,0,57,0,,
1,215758, Note_off_c,0,62,0,,
1,215758, Note_off_c,0,68,0,,
1,215760, Note_on_c,0,53,64,,
1,215760, Note_on_c,0,62,56,,
1,215760, Note_on_c,0,67,70,,
1,215985, Note_off_c,0,53,0,,
1,215999, Note_off_c,0,62,0,,
1,215999, Note_off_c,0,67,0,,
1,216000, Note_on_c,0,45,67,,
1,216000, Note_on_c,0,62,59,,
1,216000, Note_on_c,0,65,73,,
1,216225, Note_off_c,0,45,0,,
1,216240, Note_on_c,0,53,64,,
1,216355, Note_off_c,0,62,0,,
1,216355, Note_off_c,0,65,0,,
1,216360, Note_on_c,0,62,56,,
1,216360, Note_on_c,0,63,70,,
1,216463, Note_off_c,0,53,0,,
1,216480, Note_on_c,0,57,65,,
1,216702, Note_off_c,0,57,0,,
1,216717, Note_off_c,0,62,0,,
1,216717, Note_off_c,0,63,0,,
1,216720, Note_on_c,0,53,64,,
1,216720, Note_on_c,0,62,56,,
1,216720, Note_on_c,0,65,70,,
1,216943, Note_off_c,0,53,0,,
1,216958, Note_off_c,0,62,0,,
1,216958, Note_off_c,0,65,0,,
1,216960, Note_on_c,0,43,61,,
1,216960, Note_on_c,0,55,75,,
1,216960, Note_on_c,0,59,61,,
1,216960, Note_on_c,0,62,61,,
1,216960, Note_on_c,0,67,75,,
1,217440, Note_on_c,0,45,57,,
1,217440, Note_on_c,0,57,71,,
1,217452, Note_off_c,0,43,0,,
1,217452, Note_off_c,0,55,0,,
1,217915, Note_off_c,0,45,0,,
1,217915, Note_off_c,0,57,0,,
1,217920, Note_on_c,0,47,59,,
1,217920, Note_on_c,0,55,59,,
1,217920, Note_on_c,0,59,73,,
1,217920, Note_on_c,0,67,73,,
1,217928, Note_off_c,0,59,0,,
1,217928, Note_off_c,0,62,0,,
1,217928, Note_off_c,0,67,0,,
1,218275, Note_off_c,0,55,0,,
1,218275, Note_off_c,0,67,0,,
1,218280, Note_on_c,0,57,56,,
1,218280, Note_on_c,0,69,70,,
1,218396, Note_off_c,0,47,0,,
1,218396, Note_off_c,0,59,0,,
1,218400, Note_on_c,0,43,57,,
1,218400, Note_on_c,0,55,71,,
1,218623, Note_off_c,0,57,0,,
1,218637, Note_off_c,0,69,0,,
1,218640, Note_on_c,0,59,56,,
1,218640, Note_on_c,0,71,70,,
1,218863, Note_off_c,0,59,0,,
1,218874, Note_off_c,0,43,0,,
1,218874, Note_off_c,0,55,0,,
1,218878, Note_off_c,0,71,0,,
1,218880, Note_on_c,0,36,59,,
1,218880, Note_on_c,0,48,75,,
1,218880, Note_on_c,0,55,61,,
1,218880, Note_on_c,0,60,75,,
1,219120, Note_on_c,0,36,62,,
1,219134, Note_off_c,0,36,0,,
1,219134, Note_off_c,0,48,0,,
1,219344, Note_off_c,0,36,0,,
1,219360, Note_on_c,0,48,65,,
1,219360, Note_on_c,0,55,57,,
1,219360, Note_on_c,0,63,71,,
1,219372, Note_off_c,0,55,0,,
1,219372, Note_off_c,0,60,0,,
1,219582, Note_off_c,0,48,0,,
1,219600, Note_on_c,0,51,64,,
1,219825, Note_off_c,0,51,0,,
1,219835, Note_off_c,0,55,0,,
1,219835, Note_off_c,0,63,0,,
1,219840, Note_on_c,0,41,67,,
1,219840, Note_on_c,0,60,59,,
1,219840, Note_on_c,0,65,73,,
1,219956, Note_off_c,0,41,0,,
1,219960, Note_on_c,0,53,64,,
1,220068, Note_off_c,0,53,0,,
1,220080, Note_on_c,0,41,64,,
1,220195, Note_off_c,0,60,0,,
1,220195, Note_off_c,0,65,0,,
1,220200, Note_on_c,0,60,56,,
1,220200, Note_on_c,0,63,70,,
1,220303, Note_off_c,0,41,0,,
1,220320, Note_on_c,0,53,65,,
1,220542, Note_off_c,0,53,0,,
1,220557, Note_off_c,0,60,0,,
1,220557, Note_off_c,0,63,0,,
1,220560, Note_on_c,0,41,64,,
1,220560, Note_on_c,0,60,56,,
1,220560, Note_on_c,0,65,70,,
1,220783, Note_off_c,0,41,0,,
1,220783, Note_off_c,0,60,0,,
1,220798, Note_off_c,0,65,0,,
1,220800, Note_on_c,0,46,69,,
1,220800, Note_on_c,0,58,72,,
1,220800, Note_on_c,0,62,72,,
1,220800, Note_on_c,0,65,67,,
1,221040, Note_off_c,0,58,0,,
1,221040, Note_on_c,0,46,64,,
1,221040, Note_on_c,0,62,56,,
1,221040, Note_on_c,0,65,70,,
1,221054, Note_off_c,0,46,0,,
1,221054, Note_off_c,0,62,0,,
1,221054, Note_off_c,0,65,0,,
1,221264, Note_off_c,0,46,0,,
1,221278, Note_off_c,0,62,0,,
1,221278, Note_off_c,0,65,0,,
1,221280, Note_on_c,0,50,65,,
1,221280, Note_on_c,0,62,57,,
1,221280, Note_on_c,0,65,57,,
1,221280, Note_on_c,0,70,71,,
1,221502, Note_off_c,0,50,0,,
1,221502, Note_off_c,0,62,0,,
1,221502, Note_off_c,0,65,0,,
1,221516, Note_off_c,0,70,0,,
1,221520, Note_on_c,0,53,64,,
1,221520, Note_on_c,0,68,64,,
1,221745, Note_off_c,0,53,0,,
1,221745, Note_off_c,0,68,0,,
1,221760, Note_on_c,0,39,66,,
1,221760, Note_on_c,0,63,59,,
1,221760, Note_on_c,0,67,73,,
1,221876, Note_off_c,0,39,0,,
1,221876, Note_off_c,0,63,0,,
1,221880, Note_on_c,0,51,64,,
1,221880, Note_on_c,0,65,64,,
1,221883, Note_off_c,0,67,0,,
1,221988, Note_off_c,0,51,0,,
1,222000, Note_on_c,0,39,63,,
1,222098, Note_off_c,0,65,0,,
1,222120, Note_on_c,0,63,56,,
1,222120, Note_on_c,0,67,66,,
1,222237, Note_off_c,0,39,0,,
1,222240, Note_on_c,0,39,56,,
1,222240, Note_on_c,0,51,71,,
1,222462, Note_off_c,0,39,0,,
1,222476, Note_off_c,0,51,0,,
1,222480, Note_on_c,0,38,55,,
1,222480, Note_on_c,0,50,70,,
1,222703, Note_off_c,0,38,0,,
1,222715, Note_off_c,0,63,0,,
1,222715, Note_off_c,0,67,0,,
1,222718, Note_off_c,0,50,0,,
1,222720, Note_on_c,0,36,59,,
1,222720, Note_on_c,0,48,75,,
1,222720, Note_on_c,0,60,61,,
1,222720, Note_on_c,0,63,61,,
1,222720, Note_on_c,0,67,75,,
1,222960, Note_on_c,0,36,54,,
1,222960, Note_on_c,0,48,66,,
1,222974, Note_off_c,0,36,0,,
1,222974, Note_off_c,0,48,0,,
1,223184, Note_off_c,0,36,0,,
1,223198, Note_off_c,0,48,0,,
1,223200, Note_on_c,0,48,65,,
1,223200, Note_on_c,0,63,57,,
1,223200, Note_on_c,0,67,57,,
1,223200, Note_on_c,0,70,71,,
1,223212, Note_off_c,0,60,0,,
1,223212, Note_off_c,0,63,0,,
1,223212, Note_off_c,0,67,0,,
1,223422, Note_off_c,0,48,0,,
1,223440, Note_on_c,0,51,64,,
1,223665, Note_off_c,0,51,0,,
1,223675, Note_off_c,0,63,0,,
1,223675, Note_off_c,0,67,0,,
1,223675, Note_off_c,0,70,0,,
1,223680, Note_on_c,0,41,59,,
1,223680, Note_on_c,0,53,73,,
1,223680, Note_on_c,0,65,59,,
1,223680, Note_on_c,0,68,59,,
1,223680, Note_on_c,0,72,73,,
1,223905, Note_off_c,0,41,0,,
1,223919, Note_off_c,0,53,0,,
1,223920, Note_on_c,0,53,64,,
1,224035, Note_off_c,0,65,0,,
1,224035, Note_off_c,0,68,0,,
1,224035, Note_off_c,0,72,0,,
1,224040, Note_on_c,0,65,64,,
1,224157, Note_off_c,0,53,0,,
1,224160, Note_on_c,0,41,57,,
1,224160, Note_on_c,0,53,71,,
1,224382, Note_off_c,0,41,0,,
1,224382, Note_off_c,0,65,0,,
1,224396, Note_off_c,0,53,0,,
1,224400, Note_on_c,0,36,54,,
1,224400, Note_on_c,0,48,70,,
1,224400, Note_on_c,0,63,64,,
1,224623, Note_off_c,0,36,0,,
1,224623, Note_off_c,0,63,0,,
1,224638, Note_off_c,0,48,0,,
1,224640, Note_on_c,0,46,69,,
1,224640, Note_on_c,0,62,69,,
1,224880, Note_on_c,0,46,64,,
1,224880, Note_on_c,0,62,64,,
1,224894, Note_off_c,0,46,0,,
1,224894, Note_off_c,0,62,0,,
1,225104, Note_off_c,0,46,0,,
1,225104, Note_off_c,0,62,0,,
1,225120, Note_on_c,0,50,65,,
1,225120, Note_on_c,0,60,65,,
1,225342, Note_off_c,0,50,0,,
1,225342, Note_off_c,0,60,0,,
1,225360, Note_on_c,0,53,64,,
1,225360, Note_on_c,0,62,64,,
1,225585, Note_off_c,0,53,0,,
1,225585, Note_off_c,0,62,0,,
1,225600, Note_on_c,0,39,58,,
1,225600, Note_on_c,0,51,73,,
1,225600, Note_on_c,0,65,67,,
1,225716, Note_off_c,0,65,0,,
1,225720, Note_on_c,0,63,64,,
1,225825, Note_off_c,0,39,0,,
1,225839, Note_off_c,0,51,0,,
1,225840, Note_on_c,0,51,64,,
1,225952, Note_off_c,0,63,0,,
1,225960, Note_on_c,0,63,64,,
1,226063, Note_off_c,0,51,0,,
1,226080, Note_on_c,0,39,64,,
1,226194, Note_off_c,0,63,0,,
1,226200, Note_on_c,0,65,64,,
1,226302, Note_off_c,0,39,0,,
1,226309, Note_off_c,0,65,0,,
1,226320, Note_on_c,0,38,63,,
1,226320, Note_on_c,0,67,64,,
1,226429, Note_off_c,0,67,0,,
1,226440, Note_on_c,0,70,64,,
1,226543, Note_off_c,0,38,0,,
1,226554, Note_off_c,0,70,0,,
1,226560, Note_on_c,0,36,59,,
1,226560, Note_on_c,0,48,75,,
1,226560, Note_on_c,0,60,61,,
1,226560, Note_on_c,0,67,61,,
1,226560, Note_on_c,0,72,75,,
1,226800, Note_on_c,0,36,62,,
1,226814, Note_off_c,0,36,0,,
1,226814, Note_off_c,0,48,0,,
1,227024, Note_off_c,0,36,0,,
1,227040, Note_on_c,0,48,65,,
1,227040, Note_on_c,0,55,57,,
1,227040, Note_on_c,0,63,71,,
1,227052, Note_off_c,0,60,0,,
1,227052, Note_off_c,0,67,0,,
1,227052, Note_off_c,0,72,0,,
1,227262, Note_off_c,0,48,0,,
1,227280, Note_on_c,0,51,64,,
1,227505, Note_off_c,0,51,0,,
1,227515, Note_off_c,0,55,0,,
1,227515, Note_off_c,0,63,0,,
1,227520, Note_on_c,0,41,67,,
1,227520, Note_on_c,0,60,59,,
1,227520, Note_on_c,0,65,73,,
1,227636, Note_off_c,0,41,0,,
1,227640, Note_on_c,0,53,64,,
1,227748, Note_off_c,0,53,0,,
1,227760, Note_on_c,0,41,64,,
1,227875, Note_off_c,0,60,0,,
1,227875, Note_off_c,0,65,0,,
1,227880, Note_on_c,0,60,56,,
1,227880, Note_on_c,0,63,70,,
1,227983, Note_off_c,0,41,0,,
1,228000, Note_on_c,0,53,65,,
1,228222, Note_off_c,0,53,0,,
1,228237, Note_off_c,0,60,0,,
1,228237, Note_off_c,0,63,0,,
1,228240, Note_on_c,0,41,64,,
1,228240, Note_on_c,0,60,56,,
1,228240, Note_on_c,0,65,70,,
1,228463, Note_off_c,0,41,0,,
1,228463, Note_off_c,0,60,0,,
1,228478, Note_off_c,0,65,0,,
1,228480, Note_on_c,0,46,69,,
1,228480, Note_on_c,0,58,72,,
1,228480, Note_on_c,0,62,72,,
1,228480, Note_on_c,0,65,67,,
1,228720, Note_off_c,0,58,0,,
1,228720, Note_on_c,0,46,64,,
1,228720, Note_on_c,0,62,56,,
1,228720, Note_on_c,0,65,70,,
1,228734, Note_off_c,0,46,0,,
1,228734, Note_off_c,0,62,0,,
1,228734, Note_off_c,0,65,0,,
1,228944, Note_off_c,0,46,0,,
1,228958, Note_off_c,0,62,0,,
1,228958, Note_off_c,0,65,0,,
1,228960, Note_on_c,0,50,65,,
1,228960, Note_on_c,0,62,57,,
1,228960, Note_on_c,0,65,57,,
1,228960, Note_on_c,0,70,71,,
1,229182, Note_off_c,0,50,0,,
1,229182, Note_off_c,0,62,0,,
1,229182, Note_off_c,0,65,0,,
1,229196, Note_off_c,0,70,0,,
1,229200, Note_on_c,0,53,64,,
1,229200, Note_on_c,0,68,64,,
1,229425, Note_off_c,0,53,0,,
1,229425, Note_off_c,0,68,0,,
1,229440, Note_on_c,0,39,58,,
1,229440, Note_on_c,0,51,73,,
1,229440, Note_on_c,0,63,59,,
1,229440, Note_on_c,0,67,73,,
1,229556, Note_off_c,0,63,0,,
1,229560, Note_on_c,0,65,64,,
1,229563, Note_off_c,0,67,0,,
1,229665, Note_off_c,0,39,0,,
1,229679, Note_off_c,0,51,0,,
1,229680, Note_on_c,0,51,64,,
1,229778, Note_off_c,0,65,0,,
1,229800, Note_on_c,0,63,56,,
1,229800, Note_on_c,0,67,66,,
1,229917, Note_off_c,0,51,0,,
1,229920, Note_on_c,0,39,56,,
1,229920, Note_on_c,0,51,71,,
1,230142, Note_off_c,0,39,0,,
1,230156, Note_off_c,0,51,0,,
1,230160, Note_on_c,0,38,63,,
1,230383, Note_off_c,0,38,0,,
1,230395, Note_off_c,0,63,0,,
1,230395, Note_off_c,0,67,0,,
1,230400, Note_on_c,0,36,59,,
1,230400, Note_on_c,0,48,75,,
1,230400, Note_on_c,0,60,61,,
1,230400, Note_on_c,0,63,61,,
1,230400, Note_on_c,0,67,75,,
1,230640, Note_off_c,0,36,0,,
1,230640, Note_on_c,0,48,64,,
1,230654, Note_off_c,0,48,0,,
1,230878, Note_off_c,0,48,0,,
1,230880, Note_on_c,0,36,55,,
1,230880, Note_on_c,0,48,71,,
1,230880, Note_on_c,0,63,57,,
1,230880, Note_on_c,0,67,57,,
1,230880, Note_on_c,0,70,71,,
1,230892, Note_off_c,0,60,0,,
1,230892, Note_off_c,0,63,0,,
1,230892, Note_off_c,0,67,0,,
1,231102, Note_off_c,0,36,0,,
1,231116, Note_off_c,0,48,0,,
1,231120, Note_on_c,0,48,64,,
1,231345, Note_off_c,0,48,0,,
1,231355, Note_off_c,0,63,0,,
1,231355, Note_off_c,0,67,0,,
1,231355, Note_off_c,0,70,0,,
1,231360, Note_on_c,0,41,59,,
1,231360, Note_on_c,0,53,73,,
1,231360, Note_on_c,0,65,59,,
1,231360, Note_on_c,0,68,59,,
1,231360, Note_on_c,0,72,73,,
1,231585, Note_off_c,0,41,0,,
1,231599, Note_off_c,0,53,0,,
1,231600, Note_on_c,0,53,64,,
1,231715, Note_off_c,0,65,0,,
1,231715, Note_off_c,0,68,0,,
1,231715, Note_off_c,0,72,0,,
1,231720, Note_on_c,0,65,64,,
1,231837, Note_off_c,0,53,0,,
1,231840, Note_on_c,0,41,57,,
1,231840, Note_on_c,0,53,71,,
1,232062, Note_off_c,0,41,0,,
1,232062, Note_off_c,0,65,0,,
1,232076, Note_off_c,0,53,0,,
1,232080, Note_on_c,0,53,64,,
1,232080, Note_on_c,0,63,64,,
1,232303, Note_off_c,0,53,0,,
1,232303, Note_off_c,0,63,0,,
1,232320, Note_on_c,0,46,61,,
1,232320, Note_on_c,0,58,71,,
1,232320, Note_on_c,0,62,61,,
1,232320, Note_on_c,0,70,71,,
1,232560, Note_on_c,0,46,56,,
1,232560, Note_on_c,0,58,70,,
1,232560, Note_on_c,0,62,56,,
1,232560, Note_on_c,0,70,70,,
1,232574, Note_off_c,0,46,0,,
1,232574, Note_off_c,0,58,0,,
1,232574, Note_off_c,0,62,0,,
1,232574, Note_off_c,0,70,0,,
1,232784, Note_off_c,0,46,0,,
1,232784, Note_off_c,0,62,0,,
1,232798, Note_off_c,0,58,0,,
1,232798, Note_off_c,0,70,0,,
1,232800, Note_on_c,0,43,57,,
1,232800, Note_on_c,0,55,71,,
1,232800, Note_on_c,0,58,57,,
1,232800, Note_on_c,0,67,71,,
1,233022, Note_off_c,0,43,0,,
1,233022, Note_off_c,0,58,0,,
1,233036, Note_off_c,0,55,0,,
1,233036, Note_off_c,0,67,0,,
1,233040, Note_on_c,0,46,56,,
1,233040, Note_on_c,0,58,70,,
1,233040, Note_on_c,0,63,56,,
1,233040, Note_on_c,0,70,70,,
1,233279, Note_off_c,0,46,0,,
1,233279, Note_off_c,0,58,0,,
1,233279, Note_off_c,0,63,0,,
1,233279, Note_off_c,0,70,0,,
1,233280, Note_on_c,0,46,59,,
1,233280, Note_on_c,0,58,73,,
1,233280, Note_on_c,0,63,59,,
1,233280, Note_on_c,0,70,73,,
1,233635, Note_off_c,0,46,0,,
1,233635, Note_off_c,0,58,0,,
1,233635, Note_off_c,0,63,0,,
1,233635, Note_off_c,0,70,0,,
1,233640, Note_on_c,0,48,56,,
1,233640, Note_on_c,0,60,70,,
1,233640, Note_on_c,0,63,56,,
1,233640, Note_on_c,0,72,70,,
1,234235, Note_off_c,0,48,0,,
1,234235, Note_off_c,0,60,0,,
1,234235, Note_off_c,0,63,0,,
1,234235, Note_off_c,0,72,0,,
1,234240, Note_on_c,0,36,59,,
1,234240, Note_on_c,0,48,75,,
1,234240, Note_on_c,0,55,61,,
1,234240, Note_on_c,0,60,75,,
1,234480, Note_on_c,0,36,62,,
1,234494, Note_off_c,0,36,0,,
1,234494, Note_off_c,0,48,0,,
1,234704, Note_off_c,0,36,0,,
1,234720, Note_on_c,0,48,65,,
1,234720, Note_on_c,0,55,57,,
1,234720, Note_on_c,0,63,71,,
1,234732, Note_off_c,0,55,0,,
1,234732, Note_off_c,0,60,0,,
1,234942, Note_off_c,0,48,0,,
1,234960, Note_on_c,0,51,64,,
1,235185, Note_off_c,0,51,0,,
1,235195, Note_off_c,0,55,0,,
1,235195, Note_off_c,0,63,0,,
1,235200, Note_on_c,0,41,67,,
1,235200, Note_on_c,0,60,59,,
1,235200, Note_on_c,0,65,73,,
1,235316, Note_off_c,0,41,0,,
1,235320, Note_on_c,0,53,64,,
1,235428, Note_off_c,0,53,0,,
1,235440, Note_on_c,0,41,64,,
1,235555, Note_off_c,0,60,0,,
1,235555, Note_off_c,0,65,0,,
1,235560, Note_on_c,0,60,56,,
1,235560, Note_on_c,0,63,70,,
1,235663, Note_off_c,0,41,0,,
1,235680, Note_on_c,0,53,65,,
1,235902, Note_off_c,0,53,0,,
1,235917, Note_off_c,0,60,0,,
1,235917, Note_off_c,0,63,0,,
1,235920, Note_on_c,0,41,64,,
1,235920, Note_on_c,0,60,56,,
1,235920, Note_on_c,0,65,70,,
1,236143, Note_off_c,0,41,0,,
1,236143, Note_off_c,0,60,0,,
1,236158, Note_off_c,0,65,0,,
1,236160, Note_on_c,0,46,69,,
1,236160, Note_on_c,0,58,72,,
1,236160, Note_on_c,0,62,72,,
1,236160, Note_on_c,0,65,67,,
1,236400, Note_off_c,0,58,0,,
1,236400, Note_on_c,0,46,64,,
1,236400, Note_on_c,0,62,56,,
1,236400, Note_on_c,0,65,70,,
1,236414, Note_off_c,0,46,0,,
1,236414, Note_off_c,0,62,0,,
1,236414, Note_off_c,0,65,0,,
1,236624, Note_off_c,0,46,0,,
1,236638, Note_off_c,0,62,0,,
1,236638, Note_off_c,0,65,0,,
1,236640, Note_on_c,0,50,65,,
1,236640, Note_on_c,0,62,57,,
1,236640, Note_on_c,0,65,57,,
1,236640, Note_on_c,0,70,71,,
1,236862, Note_off_c,0,50,0,,
1,236862, Note_off_c,0,62,0,,
1,236862, Note_off_c,0,65,0,,
1,236876, Note_off_c,0,70,0,,
1,236880, Note_on_c,0,53,64,,
1,236880, Note_on_c,0,68,64,,
1,237105, Note_off_c,0,53,0,,
1,237105, Note_off_c,0,68,0,,
1,237120, Note_on_c,0,39,66,,
1,237120, Note_on_c,0,63,59,,
1,237120, Note_on_c,0,67,73,,
1,237236, Note_off_c,0,39,0,,
1,237236, Note_off_c,0,63,0,,
1,237240, Note_on_c,0,51,64,,
1,237240, Note_on_c,0,65,64,,
1,237243, Note_off_c,0,67,0,,
1,237348, Note_off_c,0,51,0,,
1,237360, Note_on_c,0,39,63,,
1,237458, Note_off_c,0,65,0,,
1,237480, Note_on_c,0,63,56,,
1,237480, Note_on_c,0,67,66,,
1,237597, Note_off_c,0,39,0,,
1,237600, Note_on_c,0,39,56,,
1,237600, Note_on_c,0,51,71,,
1,237822, Note_off_c,0,39,0,,
1,237836, Note_off_c,0,51,0,,
1,237840, Note_on_c,0,38,55,,
1,237840, Note_on_c,0,50,70,,
1,238063, Note_off_c,0,38,0,,
1,238075, Note_off_c,0,63,0,,
1,238075, Note_off_c,0,67,0,,
1,238078, Note_off_c,0,50,0,,
1,238080, Note_on_c,0,36,59,,
1,238080, Note_on_c,0,48,75,,
1,238080, Note_on_c,0,60,61,,
1,238080, Note_on_c,0,63,61,,
1,238080, Note_on_c,0,67,75,,
1,238320, Note_on_c,0,36,54,,
1,238320, Note_on_c,0,48,66,,
1,238334, Note_off_c,0,36,0,,
1,238334, Note_off_c,0,48,0,,
1,238544, Note_off_c,0,36,0,,
1,238558, Note_off_c,0,48,0,,
1,238560, Note_on_c,0,48,65,,
1,238560, Note_on_c,0,63,57,,
1,238560, Note_on_c,0,67,57,,
1,238560, Note_on_c,0,70,71,,
1,238572, Note_off_c,0,60,0,,
1,238572, Note_off_c,0,63,0,,
1,238572, Note_off_c,0,67,0,,
1,238782, Note_off_c,0,48,0,,
1,238800, Note_on_c,0,51,64,,
1,239025, Note_off_c,0,51,0,,
1,239035, Note_off_c,0,63,0,,
1,239035, Note_off_c,0,67,0,,
1,239035, Note_off_c,0,70,0,,
1,239040, Note_on_c,0,41,59,,
1,239040, Note_on_c,0,53,73,,
1,239040, Note_on_c,0,65,59,,
1,239040, Note_on_c,0,68,59,,
1,239040, Note_on_c,0,72,73,,
1,239265, Note_off_c,0,41,0,,
1,239279, Note_off_c,0,53,0,,
1,239280, Note_on_c,0,53,64,,
1,239395, Note_off_c,0,65,0,,
1,239395, Note_off_c,0,68,0,,
1,239395, Note_off_c,0,72,0,,
1,239400, Note_on_c,0,65,64,,
1,239517, Note_off_c,0,53,0,,
1,239520, Note_on_c,0,41,57,,
1,239520, Note_on_c,0,53,71,,
1,239742, Note_off_c,0,41,0,,
1,239742, Note_off_c,0,65,0,,
1,239756, Note_off_c,0,53,0,,
1,239760, Note_on_c,0,36,54,,
1,239760, Note_on_c,0,48,70,,
1,239760, Note_on_c,0,63,64,,
1,239983, Note_off_c,0,36,0,,
1,239983, Note_off_c,0,63,0,,
1,239998, Note_off_c,0,48,0,,
1,240000, Note_on_c,0,46,61,,
1,240000, Note_on_c,0,58,75,,
1,240000, Note_on_c,0,62,61,,
1,240000, Note_on_c,0,70,71,,
1,240240, Note_on_c,0,46,56,,
1,240240, Note_on_c,0,58,70,,
1,240240, Note_on_c,0,62,56,,
1,240240, Note_on_c,0,70,70,,
1,240254, Note_off_c,0,46,0,,
1,240254, Note_off_c,0,58,0,,
1,240254, Note_off_c,0,62,0,,
1,240254, Note_off_c,0,70,0,,
1,240464, Note_off_c,0,46,0,,
1,240464, Note_off_c,0,62,0,,
1,240478, Note_off_c,0,58,0,,
1,240478, Note_off_c,0,70,0,,
1,240480, Note_on_c,0,43,57,,
1,240480, Note_on_c,0,55,71,,
1,240480, Note_on_c,0,58,57,,
1,240480, Note_on_c,0,67,71,,
1,240702, Note_off_c,0,43,0,,
1,240702, Note_off_c,0,58,0,,
1,240716, Note_off_c,0,55,0,,
1,240716, Note_off_c,0,67,0,,
1,240720, Note_on_c,0,46,56,,
1,240720, Note_on_c,0,58,70,,
1,240720, Note_on_c,0,63,56,,
1,240720, Note_on_c,0,70,70,,
1,240959, Note_off_c,0,46,0,,
1,240959, Note_off_c,0,58,0,,
1,240959, Note_off_c,0,63,0,,
1,240959, Note_off_c,0,70,0,,
1,240960, Note_on_c,0,46,59,,
1,240960, Note_on_c,0,58,73,,
1,240960, Note_on_c,0,63,59,,
1,240960, Note_on_c,0,70,73,,
1,241315, Note_off_c,0,46,0,,
1,241315, Note_off_c,0,58,0,,
1,241315, Note_off_c,0,63,0,,
1,241315, Note_off_c,0,70,0,,
1,241320, Note_on_c,0,48,56,,
1,241320, Note_on_c,0,60,70,,
1,241320, Note_on_c,0,63,56,,
1,241320, Note_on_c,0,72,70,,
1,241915, Note_off_c,0,48,0,,
1,241915, Note_off_c,0,60,0,,
1,241915, Note_off_c,0,63,0,,
1,241915, Note_off_c,0,72,0,,
1,241915, End_track,,,,,
0,0, End_of_file,,,,,
